<svg width="390" height="380" viewBox="0 0 390 380" fill="none" xmlns="http://www.w3.org/2000/svg">
<rect width="390" height="380" fill="#FFEDDE"/>
<path d="M120.385 283.365C119.662 282.642 118.66 282.227 117.637 282.227C116.611 282.227 115.612 282.642 114.889 283.365C114.163 284.088 113.751 285.091 113.751 286.113C113.751 287.135 114.163 288.138 114.889 288.861C115.612 289.584 116.612 290 117.637 290C118.66 290 119.662 289.584 120.385 288.861C121.108 288.138 121.524 287.135 121.524 286.113C121.524 285.091 121.108 284.088 120.385 283.365Z" fill="#35CD8C"/>
<path d="M241.001 255.898C240.279 255.175 239.276 254.759 238.254 254.759C237.232 254.759 236.229 255.175 235.506 255.898C234.783 256.621 234.367 257.624 234.367 258.646C234.367 259.672 234.783 260.671 235.506 261.394C236.229 262.116 237.232 262.533 238.254 262.533C239.276 262.533 240.279 262.117 241.001 261.394C241.724 260.671 242.141 259.672 242.141 258.646C242.141 257.624 241.725 256.621 241.001 255.898Z" fill="#35CD8C"/>
<path d="M282.464 153.817C285.405 150.863 287.227 146.793 287.227 142.305V139.195C287.227 130.194 279.904 122.871 270.902 122.871C261.901 122.871 254.578 130.194 254.578 139.195V142.305C254.578 146.793 256.4 150.864 259.342 153.818C252.962 157.322 248.329 163.626 247.118 171.066H229.314C222.885 171.066 217.654 176.297 217.654 182.727C217.654 184.089 217.891 185.397 218.323 186.613H172.677C173.109 185.397 173.346 184.089 173.346 182.727C173.346 176.297 168.115 171.066 161.686 171.066H143.882C142.671 163.626 138.038 157.321 131.658 153.818C134.6 150.864 136.422 146.793 136.422 142.305V139.195C136.422 130.194 129.099 122.871 120.098 122.871C111.096 122.871 103.773 130.194 103.773 139.195V142.305C103.773 146.793 105.595 150.863 108.536 153.817C101.072 157.916 96 165.853 96 174.953V213.82V218.549C96 230.729 105.909 240.639 118.089 240.639H148.859V277.757C148.859 279.334 149.163 280.841 149.708 282.227H134.349C132.203 282.227 130.462 283.967 130.462 286.113C130.462 288.26 132.203 290 134.349 290H273.364C275.51 290 277.251 288.26 277.251 286.113C277.251 283.967 275.51 282.227 273.364 282.227H241.292C241.837 280.841 242.141 279.334 242.141 277.757V273.287C242.141 271.141 240.4 269.4 238.254 269.4C236.108 269.4 234.367 271.141 234.367 273.287V277.757C234.367 280.221 232.362 282.227 229.897 282.227C227.433 282.227 225.428 280.221 225.428 277.757V228.687C225.428 222.633 230.353 217.707 236.408 217.707H250.691H253.801H287.227V218.549C287.227 226.443 280.805 232.865 272.911 232.865H238.254C236.108 232.865 234.367 234.606 234.367 236.752V242.971C234.367 245.117 236.108 246.857 238.254 246.857C240.4 246.857 242.141 245.117 242.141 242.971V240.639H272.911C285.091 240.639 295 230.729 295 218.549V213.82V174.953C295 165.853 289.928 157.916 282.464 153.817ZM262.352 139.195C262.352 134.48 266.187 130.645 270.902 130.645C275.617 130.645 279.453 134.48 279.453 139.195V142.305C279.453 147.02 275.617 150.855 270.902 150.855C266.187 150.855 262.352 147.02 262.352 142.305V139.195ZM111.547 139.195C111.547 134.48 115.383 130.645 120.098 130.645C124.813 130.645 128.648 134.48 128.648 139.195V142.305C128.648 147.02 124.813 150.855 120.098 150.855C115.383 150.855 111.547 147.02 111.547 142.305V139.195ZM103.773 174.953C103.773 165.952 111.096 158.629 120.098 158.629C129.099 158.629 136.422 165.952 136.422 174.953C136.422 177.099 138.162 178.84 140.309 178.84H161.686C163.829 178.84 165.572 180.583 165.572 182.727C165.572 184.87 163.829 186.613 161.686 186.613H139.051C132.871 186.613 127.22 183.229 124.301 177.781C123.288 175.889 120.932 175.177 119.04 176.191C117.148 177.204 116.436 179.56 117.449 181.452C121.34 188.716 128.549 193.474 136.639 194.269C136.498 194.67 136.422 195.103 136.422 195.553V209.934H103.773V174.953ZM151.729 209.934H144.195V195.553C144.195 195.147 144.133 194.755 144.017 194.387H151.729C150.401 196.675 149.637 199.329 149.637 202.16C149.637 204.991 150.401 207.645 151.729 209.934ZM165.572 277.757C165.572 280.221 163.567 282.227 161.103 282.227C158.638 282.227 156.633 280.221 156.633 277.757V236.752C156.633 234.606 154.892 232.865 152.746 232.865H118.089C110.195 232.865 103.773 226.443 103.773 218.549V217.707H137.199H140.309H154.592C160.647 217.707 165.572 222.633 165.572 228.687V277.757ZM183.84 282.227H172.497C173.043 280.841 173.346 279.334 173.346 277.757V228.687C173.346 224.589 172.021 220.796 169.781 217.707H183.84V282.227ZM199.387 282.227H191.613V217.707H199.387V282.227ZM218.503 282.227H207.16V217.707H221.219C218.98 220.796 217.654 224.589 217.654 228.687V277.757C217.654 279.334 217.957 280.841 218.503 282.227ZM225.816 209.934H165.184C160.897 209.934 157.41 206.446 157.41 202.16C157.41 197.874 160.897 194.387 165.184 194.387H225.816C230.103 194.387 233.59 197.874 233.59 202.16C233.59 206.446 230.103 209.934 225.816 209.934ZM246.805 195.553V209.934H239.271C240.599 207.645 241.363 204.991 241.363 202.16C241.363 199.329 240.599 196.675 239.271 194.387H246.983C246.867 194.755 246.805 195.147 246.805 195.553ZM287.227 209.934H254.578V195.553C254.578 195.103 254.502 194.67 254.361 194.269C262.451 193.474 269.66 188.716 273.551 181.452C274.564 179.56 273.852 177.204 271.96 176.191C270.067 175.177 267.713 175.89 266.699 177.781C263.78 183.229 258.129 186.613 251.949 186.613H229.314C227.171 186.613 225.428 184.87 225.428 182.727C225.428 180.583 227.171 178.84 229.314 178.84H250.691C252.838 178.84 254.578 177.099 254.578 174.953C254.578 165.952 261.901 158.629 270.902 158.629C279.904 158.629 287.227 165.952 287.227 174.953V209.934Z" fill="#35CD8C"/>
<path d="M223.484 91H167.516C161.086 91 155.855 96.2307 155.855 102.66V140.75C155.855 147.179 161.086 152.41 167.516 152.41H181.064L192.751 164.098C193.511 164.857 194.505 165.236 195.5 165.236C196.495 165.236 197.489 164.857 198.248 164.098L209.936 152.41H223.484C229.914 152.41 235.145 147.179 235.145 140.75V102.66C235.145 96.2307 229.914 91 223.484 91ZM227.371 140.75C227.371 142.893 225.628 144.637 223.484 144.637H208.326C207.295 144.637 206.307 145.046 205.578 145.775L195.5 155.853L185.422 145.775C184.693 145.046 183.705 144.637 182.674 144.637H167.516C165.372 144.637 163.629 142.893 163.629 140.75V102.66C163.629 100.517 165.372 98.7734 167.516 98.7734H223.484C225.628 98.7734 227.371 100.517 227.371 102.66V140.75Z" fill="#35CD8C"/>
<path d="M179.98 117.469C179.257 116.742 178.255 116.33 177.232 116.33C176.21 116.33 175.207 116.742 174.485 117.469C173.762 118.192 173.346 119.194 173.346 120.217C173.346 121.239 173.761 122.242 174.485 122.964C175.207 123.687 176.21 124.103 177.232 124.103C178.255 124.103 179.257 123.687 179.98 122.964C180.703 122.242 181.119 121.239 181.119 120.217C181.119 119.194 180.703 118.192 179.98 117.469Z" fill="#35CD8C"/>
<path d="M198.248 117.469C197.525 116.746 196.522 116.33 195.5 116.33C194.478 116.33 193.475 116.746 192.752 117.469C192.029 118.192 191.613 119.194 191.613 120.217C191.613 121.239 192.029 122.242 192.752 122.964C193.475 123.687 194.478 124.103 195.5 124.103C196.522 124.103 197.525 123.687 198.248 122.964C198.97 122.242 199.387 121.239 199.387 120.217C199.387 119.194 198.971 118.192 198.248 117.469Z" fill="#35CD8C"/>
<path d="M216.515 117.469C215.793 116.742 214.79 116.33 213.768 116.33C212.745 116.33 211.743 116.742 211.02 117.469C210.297 118.192 209.881 119.194 209.881 120.217C209.881 121.239 210.296 122.242 211.02 122.964C211.743 123.687 212.745 124.103 213.768 124.103C214.79 124.103 215.793 123.687 216.515 122.964C217.238 122.242 217.654 121.239 217.654 120.217C217.654 119.194 217.238 118.192 216.515 117.469Z" fill="#35CD8C"/>
</svg>
