<svg width="398" height="118" viewBox="0 0 398 118" fill="none" xmlns="http://www.w3.org/2000/svg">
<path d="M200.856 17.592H193.872L192.672 21H189.816L195.792 4.296H198.96L204.936 21H202.056L200.856 17.592ZM200.088 15.36L197.376 7.608L194.64 15.36H200.088ZM206.622 14.328C206.622 13 206.894 11.824 207.438 10.8C207.998 9.776 208.75 8.984 209.694 8.424C210.654 7.848 211.718 7.56 212.886 7.56C213.75 7.56 214.598 7.752 215.43 8.136C216.278 8.504 216.95 9 217.446 9.624V3.24H220.206V21H217.446V19.008C216.998 19.648 216.374 20.176 215.574 20.592C214.79 21.008 213.886 21.216 212.862 21.216C211.71 21.216 210.654 20.928 209.694 20.352C208.75 19.76 207.998 18.944 207.438 17.904C206.894 16.848 206.622 15.656 206.622 14.328ZM217.446 14.376C217.446 13.464 217.254 12.672 216.87 12C216.502 11.328 216.014 10.816 215.406 10.464C214.798 10.112 214.142 9.936 213.438 9.936C212.734 9.936 212.078 10.112 211.47 10.464C210.862 10.8 210.366 11.304 209.982 11.976C209.614 12.632 209.43 13.416 209.43 14.328C209.43 15.24 209.614 16.04 209.982 16.728C210.366 17.416 210.862 17.944 211.47 18.312C212.094 18.664 212.75 18.84 213.438 18.84C214.142 18.84 214.798 18.664 215.406 18.312C216.014 17.96 216.502 17.448 216.87 16.776C217.254 16.088 217.446 15.288 217.446 14.376ZM228.912 18.552L232.656 7.776H235.56L230.52 21H227.256L222.24 7.776H225.168L228.912 18.552ZM236.716 14.328C236.716 13 236.988 11.824 237.532 10.8C238.092 9.776 238.844 8.984 239.788 8.424C240.748 7.848 241.804 7.56 242.956 7.56C243.996 7.56 244.9 7.768 245.668 8.184C246.452 8.584 247.076 9.088 247.54 9.696V7.776H250.3V21H247.54V19.032C247.076 19.656 246.444 20.176 245.644 20.592C244.844 21.008 243.932 21.216 242.908 21.216C241.772 21.216 240.732 20.928 239.788 20.352C238.844 19.76 238.092 18.944 237.532 17.904C236.988 16.848 236.716 15.656 236.716 14.328ZM247.54 14.376C247.54 13.464 247.348 12.672 246.964 12C246.596 11.328 246.108 10.816 245.5 10.464C244.892 10.112 244.236 9.936 243.532 9.936C242.828 9.936 242.172 10.112 241.564 10.464C240.956 10.8 240.46 11.304 240.076 11.976C239.708 12.632 239.524 13.416 239.524 14.328C239.524 15.24 239.708 16.04 240.076 16.728C240.46 17.416 240.956 17.944 241.564 18.312C242.188 18.664 242.844 18.84 243.532 18.84C244.236 18.84 244.892 18.664 245.5 18.312C246.108 17.96 246.596 17.448 246.964 16.776C247.348 16.088 247.54 15.288 247.54 14.376ZM260.566 7.56C261.606 7.56 262.534 7.776 263.35 8.208C264.182 8.64 264.83 9.28 265.294 10.128C265.758 10.976 265.99 12 265.99 13.2V21H263.278V13.608C263.278 12.424 262.982 11.52 262.39 10.896C261.798 10.256 260.99 9.936 259.966 9.936C258.942 9.936 258.126 10.256 257.518 10.896C256.926 11.52 256.63 12.424 256.63 13.608V21H253.894V7.776H256.63V9.288C257.078 8.744 257.646 8.32 258.334 8.016C259.038 7.712 259.782 7.56 260.566 7.56ZM268.568 14.376C268.568 13.016 268.84 11.824 269.384 10.8C269.944 9.76 270.712 8.96 271.688 8.4C272.664 7.84 273.784 7.56 275.048 7.56C276.648 7.56 277.968 7.944 279.008 8.712C280.064 9.464 280.776 10.544 281.144 11.952H278.192C277.952 11.296 277.568 10.784 277.04 10.416C276.512 10.048 275.848 9.864 275.048 9.864C273.928 9.864 273.032 10.264 272.36 11.064C271.704 11.848 271.376 12.952 271.376 14.376C271.376 15.8 271.704 16.912 272.36 17.712C273.032 18.512 273.928 18.912 275.048 18.912C276.632 18.912 277.68 18.216 278.192 16.824H281.144C280.76 18.168 280.04 19.24 278.984 20.04C277.928 20.824 276.616 21.216 275.048 21.216C273.784 21.216 272.664 20.936 271.688 20.376C270.712 19.8 269.944 19 269.384 17.976C268.84 16.936 268.568 15.736 268.568 14.376ZM295.99 14.064C295.99 14.56 295.958 15.008 295.894 15.408H285.79C285.87 16.464 286.262 17.312 286.966 17.952C287.67 18.592 288.534 18.912 289.558 18.912C291.03 18.912 292.07 18.296 292.678 17.064H295.63C295.23 18.28 294.502 19.28 293.446 20.064C292.406 20.832 291.11 21.216 289.558 21.216C288.294 21.216 287.158 20.936 286.15 20.376C285.158 19.8 284.374 19 283.798 17.976C283.238 16.936 282.958 15.736 282.958 14.376C282.958 13.016 283.23 11.824 283.774 10.8C284.334 9.76 285.11 8.96 286.102 8.4C287.11 7.84 288.262 7.56 289.558 7.56C290.806 7.56 291.918 7.832 292.894 8.376C293.87 8.92 294.63 9.688 295.174 10.68C295.718 11.656 295.99 12.784 295.99 14.064ZM293.134 13.2C293.118 12.192 292.758 11.384 292.054 10.776C291.35 10.168 290.478 9.864 289.438 9.864C288.494 9.864 287.686 10.168 287.014 10.776C286.342 11.368 285.942 12.176 285.814 13.2H293.134ZM297.771 14.328C297.771 13 298.043 11.824 298.587 10.8C299.147 9.776 299.899 8.984 300.843 8.424C301.803 7.848 302.867 7.56 304.035 7.56C304.899 7.56 305.747 7.752 306.579 8.136C307.427 8.504 308.099 9 308.595 9.624V3.24H311.355V21H308.595V19.008C308.147 19.648 307.523 20.176 306.723 20.592C305.939 21.008 305.035 21.216 304.011 21.216C302.859 21.216 301.803 20.928 300.843 20.352C299.899 19.76 299.147 18.944 298.587 17.904C298.043 16.848 297.771 15.656 297.771 14.328ZM308.595 14.376C308.595 13.464 308.403 12.672 308.019 12C307.651 11.328 307.163 10.816 306.555 10.464C305.947 10.112 305.291 9.936 304.587 9.936C303.883 9.936 303.227 10.112 302.619 10.464C302.011 10.8 301.515 11.304 301.131 11.976C300.763 12.632 300.579 13.416 300.579 14.328C300.579 15.24 300.763 16.04 301.131 16.728C301.515 17.416 302.011 17.944 302.619 18.312C303.243 18.664 303.899 18.84 304.587 18.84C305.291 18.84 305.947 18.664 306.555 18.312C307.163 17.96 307.651 17.448 308.019 16.776C308.403 16.088 308.595 15.288 308.595 14.376ZM331.959 4.32V6.552H327.519V21H324.783V6.552H320.319V4.32H331.959ZM333.818 14.328C333.818 13 334.09 11.824 334.634 10.8C335.194 9.776 335.946 8.984 336.89 8.424C337.85 7.848 338.906 7.56 340.058 7.56C341.098 7.56 342.002 7.768 342.77 8.184C343.554 8.584 344.178 9.088 344.642 9.696V7.776H347.402V21H344.642V19.032C344.178 19.656 343.546 20.176 342.746 20.592C341.946 21.008 341.034 21.216 340.01 21.216C338.874 21.216 337.834 20.928 336.89 20.352C335.946 19.76 335.194 18.944 334.634 17.904C334.09 16.848 333.818 15.656 333.818 14.328ZM344.642 14.376C344.642 13.464 344.45 12.672 344.066 12C343.698 11.328 343.21 10.816 342.602 10.464C341.994 10.112 341.338 9.936 340.634 9.936C339.93 9.936 339.274 10.112 338.666 10.464C338.058 10.8 337.562 11.304 337.178 11.976C336.81 12.632 336.626 13.416 336.626 14.328C336.626 15.24 336.81 16.04 337.178 16.728C337.562 17.416 338.058 17.944 338.666 18.312C339.29 18.664 339.946 18.84 340.634 18.84C341.338 18.84 341.994 18.664 342.602 18.312C343.21 17.96 343.698 17.448 344.066 16.776C344.45 16.088 344.642 15.288 344.642 14.376ZM353.731 9.744C354.195 9.104 354.827 8.584 355.627 8.184C356.443 7.768 357.347 7.56 358.339 7.56C359.507 7.56 360.563 7.84 361.507 8.4C362.451 8.96 363.195 9.76 363.739 10.8C364.283 11.824 364.555 13 364.555 14.328C364.555 15.656 364.283 16.848 363.739 17.904C363.195 18.944 362.443 19.76 361.483 20.352C360.539 20.928 359.491 21.216 358.339 21.216C357.315 21.216 356.403 21.016 355.603 20.616C354.819 20.216 354.195 19.704 353.731 19.08V21H350.995V3.24H353.731V9.744ZM361.771 14.328C361.771 13.416 361.579 12.632 361.195 11.976C360.827 11.304 360.331 10.8 359.707 10.464C359.099 10.112 358.443 9.936 357.739 9.936C357.051 9.936 356.395 10.112 355.771 10.464C355.163 10.816 354.667 11.328 354.283 12C353.915 12.672 353.731 13.464 353.731 14.376C353.731 15.288 353.915 16.088 354.283 16.776C354.667 17.448 355.163 17.96 355.771 18.312C356.395 18.664 357.051 18.84 357.739 18.84C358.443 18.84 359.099 18.664 359.707 18.312C360.331 17.944 360.827 17.416 361.195 16.728C361.579 16.04 361.771 15.24 361.771 14.328ZM369.997 3.24V21H367.261V3.24H369.997ZM385.709 14.064C385.709 14.56 385.677 15.008 385.613 15.408H375.509C375.589 16.464 375.981 17.312 376.685 17.952C377.389 18.592 378.253 18.912 379.277 18.912C380.749 18.912 381.789 18.296 382.397 17.064H385.349C384.949 18.28 384.221 19.28 383.165 20.064C382.125 20.832 380.829 21.216 379.277 21.216C378.013 21.216 376.877 20.936 375.869 20.376C374.877 19.8 374.093 19 373.517 17.976C372.957 16.936 372.677 15.736 372.677 14.376C372.677 13.016 372.949 11.824 373.493 10.8C374.053 9.76 374.829 8.96 375.821 8.4C376.829 7.84 377.981 7.56 379.277 7.56C380.525 7.56 381.637 7.832 382.613 8.376C383.589 8.92 384.349 9.688 384.893 10.68C385.437 11.656 385.709 12.784 385.709 14.064ZM382.853 13.2C382.837 12.192 382.477 11.384 381.773 10.776C381.069 10.168 380.197 9.864 379.157 9.864C378.213 9.864 377.405 10.168 376.733 10.776C376.061 11.368 375.661 12.176 375.533 13.2H382.853ZM199.728 44.432C200.624 44.592 201.384 45.064 202.008 45.848C202.632 46.632 202.944 47.52 202.944 48.512C202.944 49.36 202.72 50.128 202.272 50.816C201.84 51.488 201.208 52.024 200.376 52.424C199.544 52.808 198.576 53 197.472 53H190.8V36.32H197.16C198.296 36.32 199.272 36.512 200.088 36.896C200.904 37.28 201.52 37.8 201.936 38.456C202.352 39.096 202.56 39.816 202.56 40.616C202.56 41.576 202.304 42.376 201.792 43.016C201.28 43.656 200.592 44.128 199.728 44.432ZM193.536 43.328H196.92C197.816 43.328 198.512 43.128 199.008 42.728C199.52 42.312 199.776 41.72 199.776 40.952C199.776 40.2 199.52 39.616 199.008 39.2C198.512 38.768 197.816 38.552 196.92 38.552H193.536V43.328ZM197.232 50.768C198.16 50.768 198.888 50.544 199.416 50.096C199.944 49.648 200.208 49.024 200.208 48.224C200.208 47.408 199.928 46.76 199.368 46.28C198.808 45.8 198.064 45.56 197.136 45.56H193.536V50.768H197.232ZM211.653 53.216C210.405 53.216 209.277 52.936 208.269 52.376C207.261 51.8 206.469 51 205.893 49.976C205.317 48.936 205.029 47.736 205.029 46.376C205.029 45.032 205.325 43.84 205.917 42.8C206.509 41.76 207.317 40.96 208.341 40.4C209.365 39.84 210.509 39.56 211.773 39.56C213.037 39.56 214.181 39.84 215.205 40.4C216.229 40.96 217.037 41.76 217.629 42.8C218.221 43.84 218.517 45.032 218.517 46.376C218.517 47.72 218.213 48.912 217.605 49.952C216.997 50.992 216.165 51.8 215.109 52.376C214.069 52.936 212.917 53.216 211.653 53.216ZM211.653 50.84C212.357 50.84 213.013 50.672 213.621 50.336C214.245 50 214.749 49.496 215.133 48.824C215.517 48.152 215.709 47.336 215.709 46.376C215.709 45.416 215.525 44.608 215.157 43.952C214.789 43.28 214.301 42.776 213.693 42.44C213.085 42.104 212.429 41.936 211.725 41.936C211.021 41.936 210.365 42.104 209.757 42.44C209.165 42.776 208.693 43.28 208.341 43.952C207.989 44.608 207.813 45.416 207.813 46.376C207.813 47.8 208.173 48.904 208.893 49.688C209.629 50.456 210.549 50.84 211.653 50.84ZM226.958 53.216C225.71 53.216 224.582 52.936 223.574 52.376C222.566 51.8 221.774 51 221.198 49.976C220.622 48.936 220.334 47.736 220.334 46.376C220.334 45.032 220.63 43.84 221.222 42.8C221.814 41.76 222.622 40.96 223.646 40.4C224.67 39.84 225.814 39.56 227.078 39.56C228.342 39.56 229.486 39.84 230.51 40.4C231.534 40.96 232.342 41.76 232.934 42.8C233.526 43.84 233.822 45.032 233.822 46.376C233.822 47.72 233.518 48.912 232.91 49.952C232.302 50.992 231.47 51.8 230.414 52.376C229.374 52.936 228.222 53.216 226.958 53.216ZM226.958 50.84C227.662 50.84 228.318 50.672 228.926 50.336C229.55 50 230.054 49.496 230.438 48.824C230.822 48.152 231.014 47.336 231.014 46.376C231.014 45.416 230.83 44.608 230.462 43.952C230.094 43.28 229.606 42.776 228.998 42.44C228.39 42.104 227.734 41.936 227.03 41.936C226.326 41.936 225.67 42.104 225.062 42.44C224.47 42.776 223.998 43.28 223.646 43.952C223.294 44.608 223.118 45.416 223.118 46.376C223.118 47.8 223.478 48.904 224.198 49.688C224.934 50.456 225.854 50.84 226.958 50.84ZM241.759 46.4L247.855 53H244.159L239.263 47.312V53H236.527V35.24H239.263V45.56L244.063 39.776H247.855L241.759 46.4ZM251.208 38.024C250.712 38.024 250.296 37.856 249.96 37.52C249.624 37.184 249.456 36.768 249.456 36.272C249.456 35.776 249.624 35.36 249.96 35.024C250.296 34.688 250.712 34.52 251.208 34.52C251.688 34.52 252.096 34.688 252.432 35.024C252.768 35.36 252.936 35.776 252.936 36.272C252.936 36.768 252.768 37.184 252.432 37.52C252.096 37.856 251.688 38.024 251.208 38.024ZM252.552 39.776V53H249.816V39.776H252.552ZM262.816 39.56C263.856 39.56 264.784 39.776 265.6 40.208C266.432 40.64 267.08 41.28 267.544 42.128C268.008 42.976 268.24 44 268.24 45.2V53H265.528V45.608C265.528 44.424 265.232 43.52 264.64 42.896C264.048 42.256 263.24 41.936 262.216 41.936C261.192 41.936 260.376 42.256 259.768 42.896C259.176 43.52 258.88 44.424 258.88 45.608V53H256.144V39.776H258.88V41.288C259.328 40.744 259.896 40.32 260.584 40.016C261.288 39.712 262.032 39.56 262.816 39.56ZM277.058 39.56C278.082 39.56 278.986 39.768 279.77 40.184C280.57 40.584 281.194 41.088 281.642 41.696V39.776H284.402V53.216C284.402 54.432 284.146 55.512 283.634 56.456C283.122 57.416 282.378 58.168 281.402 58.712C280.442 59.256 279.29 59.528 277.946 59.528C276.154 59.528 274.666 59.104 273.482 58.256C272.298 57.424 271.626 56.288 271.466 54.848H274.178C274.386 55.536 274.826 56.088 275.498 56.504C276.186 56.936 277.002 57.152 277.946 57.152C279.05 57.152 279.938 56.816 280.61 56.144C281.298 55.472 281.642 54.496 281.642 53.216V51.008C281.178 51.632 280.546 52.16 279.746 52.592C278.962 53.008 278.066 53.216 277.058 53.216C275.906 53.216 274.85 52.928 273.89 52.352C272.946 51.76 272.194 50.944 271.634 49.904C271.09 48.848 270.818 47.656 270.818 46.328C270.818 45 271.09 43.824 271.634 42.8C272.194 41.776 272.946 40.984 273.89 40.424C274.85 39.848 275.906 39.56 277.058 39.56ZM281.642 46.376C281.642 45.464 281.45 44.672 281.066 44C280.698 43.328 280.21 42.816 279.602 42.464C278.994 42.112 278.338 41.936 277.634 41.936C276.93 41.936 276.274 42.112 275.666 42.464C275.058 42.8 274.562 43.304 274.178 43.976C273.81 44.632 273.626 45.416 273.626 46.328C273.626 47.24 273.81 48.04 274.178 48.728C274.562 49.416 275.058 49.944 275.666 50.312C276.29 50.664 276.946 50.84 277.634 50.84C278.338 50.84 278.994 50.664 279.602 50.312C280.21 49.96 280.698 49.448 281.066 48.776C281.45 48.088 281.642 47.288 281.642 46.376Z" fill="#2E266F"/>
<path d="M191.352 88.964H194.768V90H190.078V80.242H191.352V88.964ZM199.467 90.126C198.748 90.126 198.095 89.9627 197.507 89.636C196.928 89.3093 196.471 88.8473 196.135 88.25C195.808 87.6433 195.645 86.9433 195.645 86.15C195.645 85.366 195.813 84.6753 196.149 84.078C196.494 83.4713 196.961 83.0093 197.549 82.692C198.137 82.3653 198.795 82.202 199.523 82.202C200.251 82.202 200.909 82.3653 201.497 82.692C202.085 83.0093 202.547 83.4667 202.883 84.064C203.228 84.6613 203.401 85.3567 203.401 86.15C203.401 86.9433 203.224 87.6433 202.869 88.25C202.524 88.8473 202.052 89.3093 201.455 89.636C200.858 89.9627 200.195 90.126 199.467 90.126ZM199.467 89.006C199.924 89.006 200.354 88.8987 200.755 88.684C201.156 88.4693 201.478 88.1473 201.721 87.718C201.973 87.2887 202.099 86.766 202.099 86.15C202.099 85.534 201.978 85.0113 201.735 84.582C201.492 84.1527 201.175 83.8353 200.783 83.63C200.391 83.4153 199.966 83.308 199.509 83.308C199.042 83.308 198.613 83.4153 198.221 83.63C197.838 83.8353 197.53 84.1527 197.297 84.582C197.064 85.0113 196.947 85.534 196.947 86.15C196.947 86.7753 197.059 87.3027 197.283 87.732C197.516 88.1613 197.824 88.4833 198.207 88.698C198.59 88.9033 199.01 89.006 199.467 89.006ZM206.35 83.574C206.574 83.1353 206.891 82.7947 207.302 82.552C207.722 82.3093 208.231 82.188 208.828 82.188V83.504H208.492C207.064 83.504 206.35 84.2787 206.35 85.828V90H205.076V82.328H206.35V83.574ZM217.299 85.87C217.299 86.1127 217.285 86.3693 217.257 86.64H211.125C211.171 87.396 211.428 87.9887 211.895 88.418C212.371 88.838 212.945 89.048 213.617 89.048C214.167 89.048 214.625 88.922 214.989 88.67C215.362 88.4087 215.623 88.0633 215.773 87.634H217.145C216.939 88.3713 216.529 88.9733 215.913 89.44C215.297 89.8973 214.531 90.126 213.617 90.126C212.889 90.126 212.235 89.9627 211.657 89.636C211.087 89.3093 210.639 88.8473 210.313 88.25C209.986 87.6433 209.823 86.9433 209.823 86.15C209.823 85.3567 209.981 84.6613 210.299 84.064C210.616 83.4667 211.059 83.0093 211.629 82.692C212.207 82.3653 212.87 82.202 213.617 82.202C214.345 82.202 214.989 82.3607 215.549 82.678C216.109 82.9953 216.538 83.434 216.837 83.994C217.145 84.5447 217.299 85.17 217.299 85.87ZM215.983 85.604C215.983 85.1187 215.875 84.7033 215.661 84.358C215.446 84.0033 215.152 83.7373 214.779 83.56C214.415 83.3733 214.009 83.28 213.561 83.28C212.917 83.28 212.366 83.4853 211.909 83.896C211.461 84.3067 211.204 84.876 211.139 85.604H215.983ZM228.206 82.188C228.804 82.188 229.336 82.314 229.802 82.566C230.269 82.8087 230.638 83.1773 230.908 83.672C231.179 84.1667 231.314 84.7687 231.314 85.478V90H230.054V85.66C230.054 84.8947 229.863 84.3113 229.48 83.91C229.107 83.4993 228.598 83.294 227.954 83.294C227.292 83.294 226.764 83.5087 226.372 83.938C225.98 84.358 225.784 84.9693 225.784 85.772V90H224.524V85.66C224.524 84.8947 224.333 84.3113 223.95 83.91C223.577 83.4993 223.068 83.294 222.424 83.294C221.762 83.294 221.234 83.5087 220.842 83.938C220.45 84.358 220.254 84.9693 220.254 85.772V90H218.98V82.328H220.254V83.434C220.506 83.0327 220.842 82.7247 221.262 82.51C221.692 82.2953 222.163 82.188 222.676 82.188C223.32 82.188 223.89 82.3327 224.384 82.622C224.879 82.9113 225.248 83.336 225.49 83.896C225.705 83.3547 226.06 82.9347 226.554 82.636C227.049 82.3373 227.6 82.188 228.206 82.188ZM238.411 80.242V90H237.137V80.242H238.411ZM241.856 83.742C242.108 83.3033 242.481 82.9393 242.976 82.65C243.48 82.3513 244.063 82.202 244.726 82.202C245.407 82.202 246.023 82.3653 246.574 82.692C247.134 83.0187 247.573 83.4807 247.89 84.078C248.207 84.666 248.366 85.352 248.366 86.136C248.366 86.9107 248.207 87.6013 247.89 88.208C247.573 88.8147 247.134 89.286 246.574 89.622C246.023 89.958 245.407 90.126 244.726 90.126C244.073 90.126 243.494 89.9813 242.99 89.692C242.495 89.3933 242.117 89.0247 241.856 88.586V93.64H240.582V82.328H241.856V83.742ZM247.064 86.136C247.064 85.5573 246.947 85.0533 246.714 84.624C246.481 84.1947 246.163 83.868 245.762 83.644C245.37 83.42 244.936 83.308 244.46 83.308C243.993 83.308 243.559 83.4247 243.158 83.658C242.766 83.882 242.449 84.2133 242.206 84.652C241.973 85.0813 241.856 85.5807 241.856 86.15C241.856 86.7287 241.973 87.2373 242.206 87.676C242.449 88.1053 242.766 88.4367 243.158 88.67C243.559 88.894 243.993 89.006 244.46 89.006C244.936 89.006 245.37 88.894 245.762 88.67C246.163 88.4367 246.481 88.1053 246.714 87.676C246.947 87.2373 247.064 86.724 247.064 86.136ZM252.759 90.126C252.171 90.126 251.644 90.028 251.177 89.832C250.71 89.6267 250.342 89.3467 250.071 88.992C249.8 88.628 249.651 88.2127 249.623 87.746H250.939C250.976 88.1287 251.154 88.4413 251.471 88.684C251.798 88.9267 252.222 89.048 252.745 89.048C253.23 89.048 253.613 88.9407 253.893 88.726C254.173 88.5113 254.313 88.2407 254.313 87.914C254.313 87.578 254.164 87.3307 253.865 87.172C253.566 87.004 253.104 86.8407 252.479 86.682C251.91 86.5327 251.443 86.3833 251.079 86.234C250.724 86.0753 250.416 85.8467 250.155 85.548C249.903 85.24 249.777 84.8387 249.777 84.344C249.777 83.952 249.894 83.5927 250.127 83.266C250.36 82.9393 250.692 82.6827 251.121 82.496C251.55 82.3 252.04 82.202 252.591 82.202C253.44 82.202 254.126 82.4167 254.649 82.846C255.172 83.2753 255.452 83.8633 255.489 84.61H254.215C254.187 84.2087 254.024 83.8867 253.725 83.644C253.436 83.4013 253.044 83.28 252.549 83.28C252.092 83.28 251.728 83.378 251.457 83.574C251.186 83.77 251.051 84.0267 251.051 84.344C251.051 84.596 251.13 84.806 251.289 84.974C251.457 85.1327 251.662 85.2633 251.905 85.366C252.157 85.4593 252.502 85.5667 252.941 85.688C253.492 85.8373 253.94 85.9867 254.285 86.136C254.63 86.276 254.924 86.4907 255.167 86.78C255.419 87.0693 255.55 87.4473 255.559 87.914C255.559 88.334 255.442 88.712 255.209 89.048C254.976 89.384 254.644 89.65 254.215 89.846C253.795 90.0327 253.31 90.126 252.759 90.126ZM264.161 82.328V90H262.887V88.866C262.645 89.258 262.304 89.566 261.865 89.79C261.436 90.0047 260.96 90.112 260.437 90.112C259.84 90.112 259.303 89.9907 258.827 89.748C258.351 89.496 257.973 89.1227 257.693 88.628C257.423 88.1333 257.287 87.5313 257.287 86.822V82.328H258.547V86.654C258.547 87.41 258.739 87.9933 259.121 88.404C259.504 88.8053 260.027 89.006 260.689 89.006C261.371 89.006 261.907 88.796 262.299 88.376C262.691 87.956 262.887 87.3447 262.887 86.542V82.328H264.161ZM275.538 82.188C276.136 82.188 276.668 82.314 277.134 82.566C277.601 82.8087 277.97 83.1773 278.24 83.672C278.511 84.1667 278.646 84.7687 278.646 85.478V90H277.386V85.66C277.386 84.8947 277.195 84.3113 276.812 83.91C276.439 83.4993 275.93 83.294 275.286 83.294C274.624 83.294 274.096 83.5087 273.704 83.938C273.312 84.358 273.116 84.9693 273.116 85.772V90H271.856V85.66C271.856 84.8947 271.665 84.3113 271.282 83.91C270.909 83.4993 270.4 83.294 269.756 83.294C269.094 83.294 268.566 83.5087 268.174 83.938C267.782 84.358 267.586 84.9693 267.586 85.772V90H266.312V82.328H267.586V83.434C267.838 83.0327 268.174 82.7247 268.594 82.51C269.024 82.2953 269.495 82.188 270.008 82.188C270.652 82.188 271.222 82.3327 271.716 82.622C272.211 82.9113 272.58 83.336 272.822 83.896C273.037 83.3547 273.392 82.9347 273.886 82.636C274.381 82.3373 274.932 82.188 275.538 82.188ZM287.507 80.242C288.571 80.242 289.49 80.4427 290.265 80.844C291.049 81.236 291.646 81.8007 292.057 82.538C292.477 83.2753 292.687 84.1433 292.687 85.142C292.687 86.1407 292.477 87.0087 292.057 87.746C291.646 88.474 291.049 89.034 290.265 89.426C289.49 89.8087 288.571 90 287.507 90H284.469V80.242H287.507ZM287.507 88.95C288.767 88.95 289.728 88.6187 290.391 87.956C291.053 87.284 291.385 86.346 291.385 85.142C291.385 83.9287 291.049 82.9813 290.377 82.3C289.714 81.6187 288.757 81.278 287.507 81.278H285.743V88.95H287.507ZM297.713 90.126C296.994 90.126 296.341 89.9627 295.753 89.636C295.174 89.3093 294.717 88.8473 294.381 88.25C294.054 87.6433 293.891 86.9433 293.891 86.15C293.891 85.366 294.059 84.6753 294.395 84.078C294.74 83.4713 295.207 83.0093 295.795 82.692C296.383 82.3653 297.041 82.202 297.769 82.202C298.497 82.202 299.155 82.3653 299.743 82.692C300.331 83.0093 300.793 83.4667 301.129 84.064C301.474 84.6613 301.647 85.3567 301.647 86.15C301.647 86.9433 301.47 87.6433 301.115 88.25C300.77 88.8473 300.298 89.3093 299.701 89.636C299.104 89.9627 298.441 90.126 297.713 90.126ZM297.713 89.006C298.17 89.006 298.6 88.8987 299.001 88.684C299.402 88.4693 299.724 88.1473 299.967 87.718C300.219 87.2887 300.345 86.766 300.345 86.15C300.345 85.534 300.224 85.0113 299.981 84.582C299.738 84.1527 299.421 83.8353 299.029 83.63C298.637 83.4153 298.212 83.308 297.755 83.308C297.288 83.308 296.859 83.4153 296.467 83.63C296.084 83.8353 295.776 84.1527 295.543 84.582C295.31 85.0113 295.193 85.534 295.193 86.15C295.193 86.7753 295.305 87.3027 295.529 87.732C295.762 88.1613 296.07 88.4833 296.453 88.698C296.836 88.9033 297.256 89.006 297.713 89.006ZM304.596 79.64V90H303.322V79.64H304.596ZM310.113 90.126C309.395 90.126 308.741 89.9627 308.153 89.636C307.575 89.3093 307.117 88.8473 306.781 88.25C306.455 87.6433 306.291 86.9433 306.291 86.15C306.291 85.366 306.459 84.6753 306.795 84.078C307.141 83.4713 307.607 83.0093 308.195 82.692C308.783 82.3653 309.441 82.202 310.169 82.202C310.897 82.202 311.555 82.3653 312.143 82.692C312.731 83.0093 313.193 83.4667 313.529 84.064C313.875 84.6613 314.047 85.3567 314.047 86.15C314.047 86.9433 313.87 87.6433 313.515 88.25C313.17 88.8473 312.699 89.3093 312.101 89.636C311.504 89.9627 310.841 90.126 310.113 90.126ZM310.113 89.006C310.571 89.006 311 88.8987 311.401 88.684C311.803 88.4693 312.125 88.1473 312.367 87.718C312.619 87.2887 312.745 86.766 312.745 86.15C312.745 85.534 312.624 85.0113 312.381 84.582C312.139 84.1527 311.821 83.8353 311.429 83.63C311.037 83.4153 310.613 83.308 310.155 83.308C309.689 83.308 309.259 83.4153 308.867 83.63C308.485 83.8353 308.177 84.1527 307.943 84.582C307.71 85.0113 307.593 85.534 307.593 86.15C307.593 86.7753 307.705 87.3027 307.929 87.732C308.163 88.1613 308.471 88.4833 308.853 88.698C309.236 88.9033 309.656 89.006 310.113 89.006ZM316.997 83.574C317.221 83.1353 317.538 82.7947 317.949 82.552C318.369 82.3093 318.877 82.188 319.475 82.188V83.504H319.139C317.711 83.504 316.997 84.2787 316.997 85.828V90H315.723V82.328H316.997V83.574ZM327.772 90.098C327.128 90.098 326.549 89.986 326.036 89.762C325.532 89.5287 325.135 89.2113 324.846 88.81C324.556 88.3993 324.407 87.928 324.398 87.396H325.756C325.802 87.8533 325.989 88.2407 326.316 88.558C326.652 88.866 327.137 89.02 327.772 89.02C328.378 89.02 328.854 88.8707 329.2 88.572C329.554 88.264 329.732 87.872 329.732 87.396C329.732 87.0227 329.629 86.7193 329.424 86.486C329.218 86.2527 328.962 86.0753 328.654 85.954C328.346 85.8327 327.93 85.702 327.408 85.562C326.764 85.394 326.246 85.226 325.854 85.058C325.471 84.89 325.14 84.6287 324.86 84.274C324.589 83.91 324.454 83.4247 324.454 82.818C324.454 82.286 324.589 81.8147 324.86 81.404C325.13 80.9933 325.508 80.676 325.994 80.452C326.488 80.228 327.053 80.116 327.688 80.116C328.602 80.116 329.349 80.3447 329.928 80.802C330.516 81.2593 330.847 81.866 330.922 82.622H329.522C329.475 82.2487 329.279 81.922 328.934 81.642C328.588 81.3527 328.131 81.208 327.562 81.208C327.03 81.208 326.596 81.348 326.26 81.628C325.924 81.8987 325.756 82.2813 325.756 82.776C325.756 83.1307 325.854 83.42 326.05 83.644C326.255 83.868 326.502 84.0407 326.792 84.162C327.09 84.274 327.506 84.4047 328.038 84.554C328.682 84.7313 329.2 84.9087 329.592 85.086C329.984 85.254 330.32 85.52 330.6 85.884C330.88 86.2387 331.02 86.724 331.02 87.34C331.02 87.816 330.894 88.264 330.642 88.684C330.39 89.104 330.016 89.4447 329.522 89.706C329.027 89.9673 328.444 90.098 327.772 90.098ZM333.552 81.082C333.31 81.082 333.104 80.998 332.936 80.83C332.768 80.662 332.684 80.4567 332.684 80.214C332.684 79.9713 332.768 79.766 332.936 79.598C333.104 79.43 333.31 79.346 333.552 79.346C333.786 79.346 333.982 79.43 334.14 79.598C334.308 79.766 334.392 79.9713 334.392 80.214C334.392 80.4567 334.308 80.662 334.14 80.83C333.982 80.998 333.786 81.082 333.552 81.082ZM334.168 82.328V90H332.894V82.328H334.168ZM337.894 83.378V87.9C337.894 88.2733 337.973 88.5393 338.132 88.698C338.29 88.8473 338.566 88.922 338.958 88.922H339.896V90H338.748C338.038 90 337.506 89.8367 337.152 89.51C336.797 89.1833 336.62 88.6467 336.62 87.9V83.378H335.626V82.328H336.62V80.396H337.894V82.328H339.896V83.378H337.894ZM350.94 87.83H346.684L345.9 90H344.556L348.084 80.298H349.554L353.068 90H351.724L350.94 87.83ZM350.576 86.794L348.812 81.866L347.048 86.794H350.576ZM363.831 82.188C364.429 82.188 364.961 82.314 365.427 82.566C365.894 82.8087 366.263 83.1773 366.533 83.672C366.804 84.1667 366.939 84.7687 366.939 85.478V90H365.679V85.66C365.679 84.8947 365.488 84.3113 365.105 83.91C364.732 83.4993 364.223 83.294 363.579 83.294C362.917 83.294 362.389 83.5087 361.997 83.938C361.605 84.358 361.409 84.9693 361.409 85.772V90H360.149V85.66C360.149 84.8947 359.958 84.3113 359.575 83.91C359.202 83.4993 358.693 83.294 358.049 83.294C357.387 83.294 356.859 83.5087 356.467 83.938C356.075 84.358 355.879 84.9693 355.879 85.772V90H354.605V82.328H355.879V83.434C356.131 83.0327 356.467 82.7247 356.887 82.51C357.317 82.2953 357.788 82.188 358.301 82.188C358.945 82.188 359.515 82.3327 360.009 82.622C360.504 82.9113 360.873 83.336 361.115 83.896C361.33 83.3547 361.685 82.9347 362.179 82.636C362.674 82.3373 363.225 82.188 363.831 82.188ZM376.029 85.87C376.029 86.1127 376.015 86.3693 375.987 86.64H369.855C369.902 87.396 370.159 87.9887 370.625 88.418C371.101 88.838 371.675 89.048 372.347 89.048C372.898 89.048 373.355 88.922 373.719 88.67C374.093 88.4087 374.354 88.0633 374.503 87.634H375.875C375.67 88.3713 375.259 88.9733 374.643 89.44C374.027 89.8973 373.262 90.126 372.347 90.126C371.619 90.126 370.966 89.9627 370.387 89.636C369.818 89.3093 369.37 88.8473 369.043 88.25C368.717 87.6433 368.553 86.9433 368.553 86.15C368.553 85.3567 368.712 84.6613 369.029 84.064C369.347 83.4667 369.79 83.0093 370.359 82.692C370.938 82.3653 371.601 82.202 372.347 82.202C373.075 82.202 373.719 82.3607 374.279 82.678C374.839 82.9953 375.269 83.434 375.567 83.994C375.875 84.5447 376.029 85.17 376.029 85.87ZM374.713 85.604C374.713 85.1187 374.606 84.7033 374.391 84.358C374.177 84.0033 373.883 83.7373 373.509 83.56C373.145 83.3733 372.739 83.28 372.291 83.28C371.647 83.28 371.097 83.4853 370.639 83.896C370.191 84.3067 369.935 84.876 369.869 85.604H374.713ZM379.265 83.378V87.9C379.265 88.2733 379.344 88.5393 379.503 88.698C379.661 88.8473 379.937 88.922 380.329 88.922H381.267V90H380.119C379.409 90 378.877 89.8367 378.523 89.51C378.168 89.1833 377.991 88.6467 377.991 87.9V83.378H376.997V82.328H377.991V80.396H379.265V82.328H381.267V83.378H379.265ZM384.126 88.236L382.558 92.002H381.704L382.726 88.236H384.126ZM189.602 109.114C189.602 108.162 189.817 107.308 190.246 106.552C190.675 105.787 191.259 105.189 191.996 104.76C192.743 104.331 193.569 104.116 194.474 104.116C195.538 104.116 196.467 104.373 197.26 104.886C198.053 105.399 198.632 106.127 198.996 107.07H197.47C197.199 106.482 196.807 106.029 196.294 105.712C195.79 105.395 195.183 105.236 194.474 105.236C193.793 105.236 193.181 105.395 192.64 105.712C192.099 106.029 191.674 106.482 191.366 107.07C191.058 107.649 190.904 108.33 190.904 109.114C190.904 109.889 191.058 110.57 191.366 111.158C191.674 111.737 192.099 112.185 192.64 112.502C193.181 112.819 193.793 112.978 194.474 112.978C195.183 112.978 195.79 112.824 196.294 112.516C196.807 112.199 197.199 111.746 197.47 111.158H198.996C198.632 112.091 198.053 112.815 197.26 113.328C196.467 113.832 195.538 114.084 194.474 114.084C193.569 114.084 192.743 113.874 191.996 113.454C191.259 113.025 190.675 112.432 190.246 111.676C189.817 110.92 189.602 110.066 189.602 109.114ZM204.238 114.126C203.52 114.126 202.866 113.963 202.278 113.636C201.7 113.309 201.242 112.847 200.906 112.25C200.58 111.643 200.416 110.943 200.416 110.15C200.416 109.366 200.584 108.675 200.92 108.078C201.266 107.471 201.732 107.009 202.32 106.692C202.908 106.365 203.566 106.202 204.294 106.202C205.022 106.202 205.68 106.365 206.268 106.692C206.856 107.009 207.318 107.467 207.654 108.064C208 108.661 208.172 109.357 208.172 110.15C208.172 110.943 207.995 111.643 207.64 112.25C207.295 112.847 206.824 113.309 206.226 113.636C205.629 113.963 204.966 114.126 204.238 114.126ZM204.238 113.006C204.696 113.006 205.125 112.899 205.526 112.684C205.928 112.469 206.25 112.147 206.492 111.718C206.744 111.289 206.87 110.766 206.87 110.15C206.87 109.534 206.749 109.011 206.506 108.582C206.264 108.153 205.946 107.835 205.554 107.63C205.162 107.415 204.738 107.308 204.28 107.308C203.814 107.308 203.384 107.415 202.992 107.63C202.61 107.835 202.302 108.153 202.068 108.582C201.835 109.011 201.718 109.534 201.718 110.15C201.718 110.775 201.83 111.303 202.054 111.732C202.288 112.161 202.596 112.483 202.978 112.698C203.361 112.903 203.781 113.006 204.238 113.006ZM213.586 106.188C214.519 106.188 215.275 106.473 215.854 107.042C216.432 107.602 216.722 108.414 216.722 109.478V114H215.462V109.66C215.462 108.895 215.27 108.311 214.888 107.91C214.505 107.499 213.982 107.294 213.32 107.294C212.648 107.294 212.111 107.504 211.71 107.924C211.318 108.344 211.122 108.955 211.122 109.758V114H209.848V106.328H211.122V107.42C211.374 107.028 211.714 106.725 212.144 106.51C212.582 106.295 213.063 106.188 213.586 106.188ZM221.519 114.126C220.931 114.126 220.403 114.028 219.937 113.832C219.47 113.627 219.101 113.347 218.831 112.992C218.56 112.628 218.411 112.213 218.383 111.746H219.699C219.736 112.129 219.913 112.441 220.231 112.684C220.557 112.927 220.982 113.048 221.505 113.048C221.99 113.048 222.373 112.941 222.653 112.726C222.933 112.511 223.073 112.241 223.073 111.914C223.073 111.578 222.923 111.331 222.625 111.172C222.326 111.004 221.864 110.841 221.239 110.682C220.669 110.533 220.203 110.383 219.839 110.234C219.484 110.075 219.176 109.847 218.915 109.548C218.663 109.24 218.537 108.839 218.537 108.344C218.537 107.952 218.653 107.593 218.887 107.266C219.12 106.939 219.451 106.683 219.881 106.496C220.31 106.3 220.8 106.202 221.351 106.202C222.2 106.202 222.886 106.417 223.409 106.846C223.931 107.275 224.211 107.863 224.249 108.61H222.975C222.947 108.209 222.783 107.887 222.485 107.644C222.195 107.401 221.803 107.28 221.309 107.28C220.851 107.28 220.487 107.378 220.217 107.574C219.946 107.77 219.811 108.027 219.811 108.344C219.811 108.596 219.89 108.806 220.049 108.974C220.217 109.133 220.422 109.263 220.665 109.366C220.917 109.459 221.262 109.567 221.701 109.688C222.251 109.837 222.699 109.987 223.045 110.136C223.39 110.276 223.684 110.491 223.927 110.78C224.179 111.069 224.309 111.447 224.319 111.914C224.319 112.334 224.202 112.712 223.969 113.048C223.735 113.384 223.404 113.65 222.975 113.846C222.555 114.033 222.069 114.126 221.519 114.126ZM233.117 109.87C233.117 110.113 233.103 110.369 233.075 110.64H226.943C226.99 111.396 227.246 111.989 227.713 112.418C228.189 112.838 228.763 113.048 229.435 113.048C229.986 113.048 230.443 112.922 230.807 112.67C231.18 112.409 231.442 112.063 231.591 111.634H232.963C232.758 112.371 232.347 112.973 231.731 113.44C231.115 113.897 230.35 114.126 229.435 114.126C228.707 114.126 228.054 113.963 227.475 113.636C226.906 113.309 226.458 112.847 226.131 112.25C225.804 111.643 225.641 110.943 225.641 110.15C225.641 109.357 225.8 108.661 226.117 108.064C226.434 107.467 226.878 107.009 227.447 106.692C228.026 106.365 228.688 106.202 229.435 106.202C230.163 106.202 230.807 106.361 231.367 106.678C231.927 106.995 232.356 107.434 232.655 107.994C232.963 108.545 233.117 109.17 233.117 109.87ZM231.801 109.604C231.801 109.119 231.694 108.703 231.479 108.358C231.264 108.003 230.97 107.737 230.597 107.56C230.233 107.373 229.827 107.28 229.379 107.28C228.735 107.28 228.184 107.485 227.727 107.896C227.279 108.307 227.022 108.876 226.957 109.604H231.801ZM234.323 110.15C234.323 109.357 234.481 108.666 234.799 108.078C235.116 107.481 235.555 107.019 236.115 106.692C236.684 106.365 237.333 106.202 238.061 106.202C239.003 106.202 239.778 106.431 240.385 106.888C241.001 107.345 241.407 107.98 241.603 108.792H240.231C240.1 108.325 239.843 107.957 239.461 107.686C239.087 107.415 238.621 107.28 238.061 107.28C237.333 107.28 236.745 107.532 236.297 108.036C235.849 108.531 235.625 109.235 235.625 110.15C235.625 111.074 235.849 111.788 236.297 112.292C236.745 112.796 237.333 113.048 238.061 113.048C238.621 113.048 239.087 112.917 239.461 112.656C239.834 112.395 240.091 112.021 240.231 111.536H241.603C241.397 112.32 240.987 112.95 240.371 113.426C239.755 113.893 238.985 114.126 238.061 114.126C237.333 114.126 236.684 113.963 236.115 113.636C235.555 113.309 235.116 112.847 234.799 112.25C234.481 111.653 234.323 110.953 234.323 110.15ZM244.857 107.378V111.9C244.857 112.273 244.936 112.539 245.095 112.698C245.253 112.847 245.529 112.922 245.921 112.922H246.859V114H245.711C245.001 114 244.469 113.837 244.115 113.51C243.76 113.183 243.583 112.647 243.583 111.9V107.378H242.589V106.328H243.583V104.396H244.857V106.328H246.859V107.378H244.857ZM255.402 109.87C255.402 110.113 255.388 110.369 255.36 110.64H249.228C249.275 111.396 249.532 111.989 249.998 112.418C250.474 112.838 251.048 113.048 251.72 113.048C252.271 113.048 252.728 112.922 253.092 112.67C253.466 112.409 253.727 112.063 253.876 111.634H255.248C255.043 112.371 254.632 112.973 254.016 113.44C253.4 113.897 252.635 114.126 251.72 114.126C250.992 114.126 250.339 113.963 249.76 113.636C249.191 113.309 248.743 112.847 248.416 112.25C248.09 111.643 247.926 110.943 247.926 110.15C247.926 109.357 248.085 108.661 248.402 108.064C248.72 107.467 249.163 107.009 249.732 106.692C250.311 106.365 250.974 106.202 251.72 106.202C252.448 106.202 253.092 106.361 253.652 106.678C254.212 106.995 254.642 107.434 254.94 107.994C255.248 108.545 255.402 109.17 255.402 109.87ZM254.086 109.604C254.086 109.119 253.979 108.703 253.764 108.358C253.55 108.003 253.256 107.737 252.882 107.56C252.518 107.373 252.112 107.28 251.664 107.28C251.02 107.28 250.47 107.485 250.012 107.896C249.564 108.307 249.308 108.876 249.242 109.604H254.086ZM258.638 107.378V111.9C258.638 112.273 258.717 112.539 258.876 112.698C259.035 112.847 259.31 112.922 259.702 112.922H260.64V114H259.492C258.783 114 258.251 113.837 257.896 113.51C257.541 113.183 257.364 112.647 257.364 111.9V107.378H256.37V106.328H257.364V104.396H258.638V106.328H260.64V107.378H258.638ZM268.987 106.328V114H267.713V112.866C267.471 113.258 267.13 113.566 266.691 113.79C266.262 114.005 265.786 114.112 265.263 114.112C264.666 114.112 264.129 113.991 263.653 113.748C263.177 113.496 262.799 113.123 262.519 112.628C262.249 112.133 262.113 111.531 262.113 110.822V106.328H263.373V110.654C263.373 111.41 263.565 111.993 263.947 112.404C264.33 112.805 264.853 113.006 265.515 113.006C266.197 113.006 266.733 112.796 267.125 112.376C267.517 111.956 267.713 111.345 267.713 110.542V106.328H268.987ZM272.413 107.574C272.637 107.135 272.954 106.795 273.365 106.552C273.785 106.309 274.293 106.188 274.891 106.188V107.504H274.555C273.127 107.504 272.413 108.279 272.413 109.828V114H271.139V106.328H272.413V107.574ZM285.862 111.83H281.606L280.822 114H279.478L283.006 104.298H284.476L287.99 114H286.646L285.862 111.83ZM285.498 110.794L283.734 105.866L281.97 110.794H285.498ZM289.051 110.136C289.051 109.352 289.21 108.666 289.527 108.078C289.845 107.481 290.279 107.019 290.829 106.692C291.389 106.365 292.015 106.202 292.705 106.202C293.303 106.202 293.858 106.342 294.371 106.622C294.885 106.893 295.277 107.252 295.547 107.7V103.64H296.835V114H295.547V112.558C295.295 113.015 294.922 113.393 294.427 113.692C293.933 113.981 293.354 114.126 292.691 114.126C292.01 114.126 291.389 113.958 290.829 113.622C290.279 113.286 289.845 112.815 289.527 112.208C289.21 111.601 289.051 110.911 289.051 110.136ZM295.547 110.15C295.547 109.571 295.431 109.067 295.197 108.638C294.964 108.209 294.647 107.882 294.245 107.658C293.853 107.425 293.419 107.308 292.943 107.308C292.467 107.308 292.033 107.42 291.641 107.644C291.249 107.868 290.937 108.195 290.703 108.624C290.47 109.053 290.353 109.557 290.353 110.136C290.353 110.724 290.47 111.237 290.703 111.676C290.937 112.105 291.249 112.437 291.641 112.67C292.033 112.894 292.467 113.006 292.943 113.006C293.419 113.006 293.853 112.894 294.245 112.67C294.647 112.437 294.964 112.105 295.197 111.676C295.431 111.237 295.547 110.729 295.547 110.15ZM299.646 105.082C299.403 105.082 299.198 104.998 299.03 104.83C298.862 104.662 298.778 104.457 298.778 104.214C298.778 103.971 298.862 103.766 299.03 103.598C299.198 103.43 299.403 103.346 299.646 103.346C299.879 103.346 300.075 103.43 300.234 103.598C300.402 103.766 300.486 103.971 300.486 104.214C300.486 104.457 300.402 104.662 300.234 104.83C300.075 104.998 299.879 105.082 299.646 105.082ZM300.262 106.328V114H298.988V106.328H300.262ZM303.707 107.742C303.959 107.303 304.333 106.939 304.827 106.65C305.331 106.351 305.915 106.202 306.577 106.202C307.259 106.202 307.875 106.365 308.425 106.692C308.985 107.019 309.424 107.481 309.741 108.078C310.059 108.666 310.217 109.352 310.217 110.136C310.217 110.911 310.059 111.601 309.741 112.208C309.424 112.815 308.985 113.286 308.425 113.622C307.875 113.958 307.259 114.126 306.577 114.126C305.924 114.126 305.345 113.981 304.841 113.692C304.347 113.393 303.969 113.025 303.707 112.586V117.64H302.433V106.328H303.707V107.742ZM308.915 110.136C308.915 109.557 308.799 109.053 308.565 108.624C308.332 108.195 308.015 107.868 307.613 107.644C307.221 107.42 306.787 107.308 306.311 107.308C305.845 107.308 305.411 107.425 305.009 107.658C304.617 107.882 304.3 108.213 304.057 108.652C303.824 109.081 303.707 109.581 303.707 110.15C303.707 110.729 303.824 111.237 304.057 111.676C304.3 112.105 304.617 112.437 305.009 112.67C305.411 112.894 305.845 113.006 306.311 113.006C306.787 113.006 307.221 112.894 307.613 112.67C308.015 112.437 308.332 112.105 308.565 111.676C308.799 111.237 308.915 110.724 308.915 110.136ZM312.552 105.082C312.31 105.082 312.104 104.998 311.936 104.83C311.768 104.662 311.684 104.457 311.684 104.214C311.684 103.971 311.768 103.766 311.936 103.598C312.104 103.43 312.31 103.346 312.552 103.346C312.786 103.346 312.982 103.43 313.14 103.598C313.308 103.766 313.392 103.971 313.392 104.214C313.392 104.457 313.308 104.662 313.14 104.83C312.982 104.998 312.786 105.082 312.552 105.082ZM313.168 106.328V114H311.894V106.328H313.168ZM318.056 114.126C317.468 114.126 316.94 114.028 316.474 113.832C316.007 113.627 315.638 113.347 315.368 112.992C315.097 112.628 314.948 112.213 314.92 111.746H316.236C316.273 112.129 316.45 112.441 316.768 112.684C317.094 112.927 317.519 113.048 318.042 113.048C318.527 113.048 318.91 112.941 319.19 112.726C319.47 112.511 319.61 112.241 319.61 111.914C319.61 111.578 319.46 111.331 319.162 111.172C318.863 111.004 318.401 110.841 317.776 110.682C317.206 110.533 316.74 110.383 316.376 110.234C316.021 110.075 315.713 109.847 315.452 109.548C315.2 109.24 315.074 108.839 315.074 108.344C315.074 107.952 315.19 107.593 315.424 107.266C315.657 106.939 315.988 106.683 316.418 106.496C316.847 106.3 317.337 106.202 317.888 106.202C318.737 106.202 319.423 106.417 319.946 106.846C320.468 107.275 320.748 107.863 320.786 108.61H319.512C319.484 108.209 319.32 107.887 319.022 107.644C318.732 107.401 318.34 107.28 317.846 107.28C317.388 107.28 317.024 107.378 316.754 107.574C316.483 107.77 316.348 108.027 316.348 108.344C316.348 108.596 316.427 108.806 316.586 108.974C316.754 109.133 316.959 109.263 317.202 109.366C317.454 109.459 317.799 109.567 318.238 109.688C318.788 109.837 319.236 109.987 319.582 110.136C319.927 110.276 320.221 110.491 320.464 110.78C320.716 111.069 320.846 111.447 320.856 111.914C320.856 112.334 320.739 112.712 320.506 113.048C320.272 113.384 319.941 113.65 319.512 113.846C319.092 114.033 318.606 114.126 318.056 114.126ZM322.178 110.15C322.178 109.357 322.337 108.666 322.654 108.078C322.972 107.481 323.41 107.019 323.97 106.692C324.54 106.365 325.188 106.202 325.916 106.202C326.859 106.202 327.634 106.431 328.24 106.888C328.856 107.345 329.262 107.98 329.458 108.792H328.086C327.956 108.325 327.699 107.957 327.316 107.686C326.943 107.415 326.476 107.28 325.916 107.28C325.188 107.28 324.6 107.532 324.152 108.036C323.704 108.531 323.48 109.235 323.48 110.15C323.48 111.074 323.704 111.788 324.152 112.292C324.6 112.796 325.188 113.048 325.916 113.048C326.476 113.048 326.943 112.917 327.316 112.656C327.69 112.395 327.946 112.021 328.086 111.536H329.458C329.253 112.32 328.842 112.95 328.226 113.426C327.61 113.893 326.84 114.126 325.916 114.126C325.188 114.126 324.54 113.963 323.97 113.636C323.41 113.309 322.972 112.847 322.654 112.25C322.337 111.653 322.178 110.953 322.178 110.15ZM331.816 105.082C331.573 105.082 331.368 104.998 331.2 104.83C331.032 104.662 330.948 104.457 330.948 104.214C330.948 103.971 331.032 103.766 331.2 103.598C331.368 103.43 331.573 103.346 331.816 103.346C332.049 103.346 332.245 103.43 332.404 103.598C332.572 103.766 332.656 103.971 332.656 104.214C332.656 104.457 332.572 104.662 332.404 104.83C332.245 104.998 332.049 105.082 331.816 105.082ZM332.432 106.328V114H331.158V106.328H332.432ZM338.341 106.188C339.275 106.188 340.031 106.473 340.609 107.042C341.188 107.602 341.477 108.414 341.477 109.478V114H340.217V109.66C340.217 108.895 340.026 108.311 339.643 107.91C339.261 107.499 338.738 107.294 338.075 107.294C337.403 107.294 336.867 107.504 336.465 107.924C336.073 108.344 335.877 108.955 335.877 109.758V114H334.603V106.328H335.877V107.42C336.129 107.028 336.47 106.725 336.899 106.51C337.338 106.295 337.819 106.188 338.341 106.188ZM346.722 106.202C347.385 106.202 347.964 106.347 348.458 106.636C348.962 106.925 349.336 107.289 349.578 107.728V106.328H350.866V114.168C350.866 114.868 350.717 115.489 350.418 116.03C350.12 116.581 349.69 117.01 349.13 117.318C348.58 117.626 347.936 117.78 347.198 117.78C346.19 117.78 345.35 117.542 344.678 117.066C344.006 116.59 343.61 115.941 343.488 115.12H344.748C344.888 115.587 345.178 115.96 345.616 116.24C346.055 116.529 346.582 116.674 347.198 116.674C347.898 116.674 348.468 116.455 348.906 116.016C349.354 115.577 349.578 114.961 349.578 114.168V112.558C349.326 113.006 348.953 113.379 348.458 113.678C347.964 113.977 347.385 114.126 346.722 114.126C346.041 114.126 345.42 113.958 344.86 113.622C344.31 113.286 343.876 112.815 343.558 112.208C343.241 111.601 343.082 110.911 343.082 110.136C343.082 109.352 343.241 108.666 343.558 108.078C343.876 107.481 344.31 107.019 344.86 106.692C345.42 106.365 346.041 106.202 346.722 106.202ZM349.578 110.15C349.578 109.571 349.462 109.067 349.228 108.638C348.995 108.209 348.678 107.882 348.276 107.658C347.884 107.425 347.45 107.308 346.974 107.308C346.498 107.308 346.064 107.42 345.672 107.644C345.28 107.868 344.968 108.195 344.734 108.624C344.501 109.053 344.384 109.557 344.384 110.136C344.384 110.724 344.501 111.237 344.734 111.676C344.968 112.105 345.28 112.437 345.672 112.67C346.064 112.894 346.498 113.006 346.974 113.006C347.45 113.006 347.884 112.894 348.276 112.67C348.678 112.437 348.995 112.105 349.228 111.676C349.462 111.237 349.578 110.729 349.578 110.15ZM358.026 105.278V108.54H361.582V109.59H358.026V112.95H362.002V114H356.752V104.228H362.002V105.278H358.026ZM365.204 103.64V114H363.93V103.64H365.204ZM368.033 105.082C367.79 105.082 367.585 104.998 367.417 104.83C367.249 104.662 367.165 104.457 367.165 104.214C367.165 103.971 367.249 103.766 367.417 103.598C367.585 103.43 367.79 103.346 368.033 103.346C368.266 103.346 368.462 103.43 368.621 103.598C368.789 103.766 368.873 103.971 368.873 104.214C368.873 104.457 368.789 104.662 368.621 104.83C368.462 104.998 368.266 105.082 368.033 105.082ZM368.649 106.328V114H367.375V106.328H368.649ZM372.374 107.378V111.9C372.374 112.273 372.454 112.539 372.612 112.698C372.771 112.847 373.046 112.922 373.438 112.922H374.376V114H373.228C372.519 114 371.987 113.837 371.632 113.51C371.278 113.183 371.1 112.647 371.1 111.9V107.378H370.106V106.328H371.1V104.396H372.374V106.328H374.376V107.378H372.374ZM376.326 114.084C376.083 114.084 375.878 114 375.71 113.832C375.542 113.664 375.458 113.459 375.458 113.216C375.458 112.973 375.542 112.768 375.71 112.6C375.878 112.432 376.083 112.348 376.326 112.348C376.559 112.348 376.755 112.432 376.914 112.6C377.082 112.768 377.166 112.973 377.166 113.216C377.166 113.459 377.082 113.664 376.914 113.832C376.755 114 376.559 114.084 376.326 114.084Z" fill="#707070"/>
<rect x="298" y="43" width="84" height="3" fill="#35CD8C"/>
<path d="M0.292892 43.2929C-0.0976258 43.6834 -0.0976257 44.3166 0.292893 44.7071L6.65686 51.0711C7.04738 51.4616 7.68054 51.4616 8.07108 51.0711C8.46159 50.6806 8.46159 50.0474 8.07108 49.6569L2.41422 44L8.07107 38.3432C8.46159 37.9526 8.46159 37.3195 8.07107 36.9289C7.68054 36.5384 7.04738 36.5384 6.65686 36.9289L0.292892 43.2929ZM183 43L1 43L1 45L183 45L183 43Z" fill="#35CD8C"/>
</svg>
