<svg width="670" height="758" viewBox="0 0 670 758" fill="none" xmlns="http://www.w3.org/2000/svg">
<rect width="670" height="758" fill="#FFEDDE"/>
<path d="M224.616 500.32V502.552H217.536V507.472H223.056V509.704H217.536V517H214.8V500.32H224.616ZM229.888 505.696C230.288 505.024 230.816 504.504 231.472 504.136C232.144 503.752 232.936 503.56 233.848 503.56V506.392H233.152C232.08 506.392 231.264 506.664 230.704 507.208C230.16 507.752 229.888 508.696 229.888 510.04V517H227.152V503.776H229.888V505.696ZM248.483 510.064C248.483 510.56 248.451 511.008 248.387 511.408H238.283C238.363 512.464 238.755 513.312 239.459 513.952C240.163 514.592 241.027 514.912 242.051 514.912C243.523 514.912 244.563 514.296 245.171 513.064H248.122C247.723 514.28 246.995 515.28 245.939 516.064C244.899 516.832 243.603 517.216 242.051 517.216C240.787 517.216 239.651 516.936 238.643 516.376C237.651 515.8 236.867 515 236.291 513.976C235.731 512.936 235.451 511.736 235.451 510.376C235.451 509.016 235.723 507.824 236.267 506.8C236.827 505.76 237.603 504.96 238.595 504.4C239.603 503.84 240.755 503.56 242.051 503.56C243.299 503.56 244.411 503.832 245.387 504.376C246.363 504.92 247.123 505.688 247.667 506.68C248.211 507.656 248.483 508.784 248.483 510.064ZM245.627 509.2C245.611 508.192 245.251 507.384 244.547 506.776C243.843 506.168 242.971 505.864 241.931 505.864C240.987 505.864 240.179 506.168 239.507 506.776C238.835 507.368 238.435 508.176 238.307 509.2H245.627ZM263.295 510.064C263.295 510.56 263.263 511.008 263.199 511.408H253.095C253.175 512.464 253.567 513.312 254.271 513.952C254.975 514.592 255.839 514.912 256.863 514.912C258.335 514.912 259.375 514.296 259.983 513.064H262.935C262.535 514.28 261.807 515.28 260.751 516.064C259.711 516.832 258.415 517.216 256.863 517.216C255.599 517.216 254.463 516.936 253.455 516.376C252.463 515.8 251.679 515 251.103 513.976C250.543 512.936 250.263 511.736 250.263 510.376C250.263 509.016 250.535 507.824 251.079 506.8C251.639 505.76 252.415 504.96 253.407 504.4C254.415 503.84 255.567 503.56 256.863 503.56C258.111 503.56 259.223 503.832 260.199 504.376C261.175 504.92 261.935 505.688 262.479 506.68C263.023 507.656 263.295 508.784 263.295 510.064ZM260.439 509.2C260.423 508.192 260.063 507.384 259.359 506.776C258.655 506.168 257.783 505.864 256.743 505.864C255.799 505.864 254.991 506.168 254.319 506.776C253.647 507.368 253.247 508.176 253.119 509.2H260.439ZM285.542 500.32V517H282.806V509.704H274.958V517H272.222V500.32H274.958V507.472H282.806V500.32H285.542ZM294.88 517.216C293.632 517.216 292.504 516.936 291.496 516.376C290.488 515.8 289.696 515 289.12 513.976C288.544 512.936 288.256 511.736 288.256 510.376C288.256 509.032 288.552 507.84 289.144 506.8C289.736 505.76 290.544 504.96 291.568 504.4C292.592 503.84 293.736 503.56 295 503.56C296.264 503.56 297.408 503.84 298.432 504.4C299.456 504.96 300.264 505.76 300.856 506.8C301.448 507.84 301.744 509.032 301.744 510.376C301.744 511.72 301.44 512.912 300.832 513.952C300.224 514.992 299.392 515.8 298.336 516.376C297.296 516.936 296.144 517.216 294.88 517.216ZM294.88 514.84C295.584 514.84 296.24 514.672 296.848 514.336C297.472 514 297.976 513.496 298.36 512.824C298.744 512.152 298.936 511.336 298.936 510.376C298.936 509.416 298.752 508.608 298.384 507.952C298.016 507.28 297.528 506.776 296.92 506.44C296.312 506.104 295.656 505.936 294.952 505.936C294.248 505.936 293.592 506.104 292.984 506.44C292.392 506.776 291.92 507.28 291.568 507.952C291.216 508.608 291.04 509.416 291.04 510.376C291.04 511.8 291.4 512.904 292.12 513.688C292.856 514.456 293.776 514.84 294.88 514.84ZM320.456 503.56C321.496 503.56 322.424 503.776 323.24 504.208C324.072 504.64 324.72 505.28 325.184 506.128C325.664 506.976 325.904 508 325.904 509.2V517H323.192V509.608C323.192 508.424 322.896 507.52 322.304 506.896C321.712 506.256 320.904 505.936 319.88 505.936C318.856 505.936 318.04 506.256 317.432 506.896C316.84 507.52 316.544 508.424 316.544 509.608V517H313.832V509.608C313.832 508.424 313.536 507.52 312.944 506.896C312.352 506.256 311.544 505.936 310.52 505.936C309.496 505.936 308.68 506.256 308.072 506.896C307.48 507.52 307.184 508.424 307.184 509.608V517H304.448V503.776H307.184V505.288C307.632 504.744 308.2 504.32 308.888 504.016C309.576 503.712 310.312 503.56 311.096 503.56C312.152 503.56 313.096 503.784 313.928 504.232C314.76 504.68 315.4 505.328 315.848 506.176C316.248 505.376 316.872 504.744 317.72 504.28C318.568 503.8 319.48 503.56 320.456 503.56ZM341.506 510.064C341.506 510.56 341.474 511.008 341.41 511.408H331.306C331.386 512.464 331.778 513.312 332.482 513.952C333.186 514.592 334.05 514.912 335.074 514.912C336.546 514.912 337.586 514.296 338.194 513.064H341.146C340.746 514.28 340.018 515.28 338.962 516.064C337.922 516.832 336.626 517.216 335.074 517.216C333.81 517.216 332.674 516.936 331.666 516.376C330.674 515.8 329.89 515 329.314 513.976C328.754 512.936 328.474 511.736 328.474 510.376C328.474 509.016 328.746 507.824 329.29 506.8C329.85 505.76 330.626 504.96 331.618 504.4C332.626 503.84 333.778 503.56 335.074 503.56C336.322 503.56 337.434 503.832 338.41 504.376C339.386 504.92 340.146 505.688 340.69 506.68C341.234 507.656 341.506 508.784 341.506 510.064ZM338.65 509.2C338.634 508.192 338.274 507.384 337.57 506.776C336.866 506.168 335.994 505.864 334.954 505.864C334.01 505.864 333.202 506.168 332.53 506.776C331.858 507.368 331.458 508.176 331.33 509.2H338.65ZM355.881 500.32C357.657 500.32 359.209 500.664 360.537 501.352C361.881 502.024 362.913 503 363.633 504.28C364.369 505.544 364.737 507.024 364.737 508.72C364.737 510.416 364.369 511.888 363.633 513.136C362.913 514.384 361.881 515.344 360.537 516.016C359.209 516.672 357.657 517 355.881 517H350.433V500.32H355.881ZM355.881 514.768C357.833 514.768 359.329 514.24 360.369 513.184C361.409 512.128 361.929 510.64 361.929 508.72C361.929 506.784 361.409 505.272 360.369 504.184C359.329 503.096 357.833 502.552 355.881 502.552H353.169V514.768H355.881ZM379.568 510.064C379.568 510.56 379.536 511.008 379.472 511.408H369.368C369.448 512.464 369.84 513.312 370.544 513.952C371.248 514.592 372.112 514.912 373.136 514.912C374.608 514.912 375.648 514.296 376.256 513.064H379.208C378.808 514.28 378.08 515.28 377.024 516.064C375.984 516.832 374.688 517.216 373.136 517.216C371.872 517.216 370.736 516.936 369.728 516.376C368.736 515.8 367.952 515 367.376 513.976C366.816 512.936 366.536 511.736 366.536 510.376C366.536 509.016 366.808 507.824 367.352 506.8C367.912 505.76 368.688 504.96 369.68 504.4C370.688 503.84 371.84 503.56 373.136 503.56C374.384 503.56 375.496 503.832 376.472 504.376C377.448 504.92 378.208 505.688 378.752 506.68C379.296 507.656 379.568 508.784 379.568 510.064ZM376.712 509.2C376.696 508.192 376.336 507.384 375.632 506.776C374.928 506.168 374.056 505.864 373.016 505.864C372.072 505.864 371.264 506.168 370.592 506.776C369.92 507.368 369.52 508.176 369.392 509.2H376.712ZM384.997 499.24V517H382.261V499.24H384.997ZM389.981 502.024C389.485 502.024 389.069 501.856 388.733 501.52C388.397 501.184 388.229 500.768 388.229 500.272C388.229 499.776 388.397 499.36 388.733 499.024C389.069 498.688 389.485 498.52 389.981 498.52C390.461 498.52 390.869 498.688 391.205 499.024C391.541 499.36 391.709 499.776 391.709 500.272C391.709 500.768 391.541 501.184 391.205 501.52C390.869 501.856 390.461 502.024 389.981 502.024ZM391.325 503.776V517H388.589V503.776H391.325ZM400.029 514.552L403.773 503.776H406.677L401.637 517H398.373L393.357 503.776H396.285L400.029 514.552ZM420.865 510.064C420.865 510.56 420.833 511.008 420.769 511.408H410.665C410.745 512.464 411.137 513.312 411.841 513.952C412.545 514.592 413.409 514.912 414.433 514.912C415.905 514.912 416.945 514.296 417.553 513.064H420.505C420.105 514.28 419.377 515.28 418.321 516.064C417.281 516.832 415.985 517.216 414.433 517.216C413.169 517.216 412.033 516.936 411.025 516.376C410.033 515.8 409.249 515 408.673 513.976C408.113 512.936 407.833 511.736 407.833 510.376C407.833 509.016 408.105 507.824 408.649 506.8C409.209 505.76 409.985 504.96 410.977 504.4C411.985 503.84 413.137 503.56 414.433 503.56C415.681 503.56 416.793 503.832 417.769 504.376C418.745 504.92 419.505 505.688 420.049 506.68C420.593 507.656 420.865 508.784 420.865 510.064ZM418.009 509.2C417.993 508.192 417.633 507.384 416.929 506.776C416.225 506.168 415.353 505.864 414.313 505.864C413.369 505.864 412.561 506.168 411.889 506.776C411.217 507.368 410.817 508.176 410.689 509.2H418.009ZM426.294 505.696C426.694 505.024 427.222 504.504 427.878 504.136C428.55 503.752 429.342 503.56 430.254 503.56V506.392H429.558C428.486 506.392 427.67 506.664 427.11 507.208C426.566 507.752 426.294 508.696 426.294 510.04V517H423.558V503.776H426.294V505.696ZM444.673 503.776L436.561 523.216H433.729L436.417 516.784L431.209 503.776H434.257L437.977 513.856L441.841 503.776H444.673ZM224.856 545.592H217.872L216.672 549H213.816L219.792 532.296H222.96L228.936 549H226.056L224.856 545.592ZM224.088 543.36L221.376 535.608L218.64 543.36H224.088ZM234.726 538.008V545.328C234.726 545.824 234.838 546.184 235.062 546.408C235.302 546.616 235.702 546.72 236.262 546.72H237.942V549H235.782C234.55 549 233.606 548.712 232.95 548.136C232.294 547.56 231.966 546.624 231.966 545.328V538.008H230.406V535.776H231.966V532.488H234.726V535.776H237.942V538.008H234.726ZM259.058 532.32L253.538 542.952V549H250.802V542.952L245.258 532.32H248.306L252.17 540.504L256.034 532.32H259.058ZM266.966 549.216C265.718 549.216 264.59 548.936 263.582 548.376C262.574 547.8 261.782 547 261.206 545.976C260.63 544.936 260.342 543.736 260.342 542.376C260.342 541.032 260.638 539.84 261.23 538.8C261.822 537.76 262.63 536.96 263.654 536.4C264.678 535.84 265.822 535.56 267.086 535.56C268.35 535.56 269.494 535.84 270.518 536.4C271.542 536.96 272.35 537.76 272.942 538.8C273.534 539.84 273.83 541.032 273.83 542.376C273.83 543.72 273.526 544.912 272.918 545.952C272.31 546.992 271.478 547.8 270.422 548.376C269.382 548.936 268.23 549.216 266.966 549.216ZM266.966 546.84C267.67 546.84 268.326 546.672 268.934 546.336C269.558 546 270.062 545.496 270.446 544.824C270.83 544.152 271.022 543.336 271.022 542.376C271.022 541.416 270.838 540.608 270.47 539.952C270.102 539.28 269.614 538.776 269.006 538.44C268.398 538.104 267.742 537.936 267.038 537.936C266.334 537.936 265.678 538.104 265.07 538.44C264.478 538.776 264.006 539.28 263.654 539.952C263.302 540.608 263.126 541.416 263.126 542.376C263.126 543.8 263.486 544.904 264.206 545.688C264.942 546.456 265.862 546.84 266.966 546.84ZM288.51 535.776V549H285.774V547.44C285.342 547.984 284.774 548.416 284.07 548.736C283.382 549.04 282.646 549.192 281.862 549.192C280.822 549.192 279.886 548.976 279.054 548.544C278.238 548.112 277.59 547.472 277.11 546.624C276.646 545.776 276.414 544.752 276.414 543.552V535.776H279.126V543.144C279.126 544.328 279.422 545.24 280.014 545.88C280.606 546.504 281.414 546.816 282.438 546.816C283.462 546.816 284.27 546.504 284.862 545.88C285.47 545.24 285.774 544.328 285.774 543.144V535.776H288.51ZM294.856 537.696C295.256 537.024 295.784 536.504 296.44 536.136C297.112 535.752 297.904 535.56 298.816 535.56V538.392H298.12C297.048 538.392 296.232 538.664 295.672 539.208C295.128 539.752 294.856 540.696 294.856 542.04V549H292.12V535.776H294.856V537.696ZM313.014 532.32C314.79 532.32 316.342 532.664 317.67 533.352C319.014 534.024 320.046 535 320.766 536.28C321.502 537.544 321.87 539.024 321.87 540.72C321.87 542.416 321.502 543.888 320.766 545.136C320.046 546.384 319.014 547.344 317.67 548.016C316.342 548.672 314.79 549 313.014 549H307.566V532.32H313.014ZM313.014 546.768C314.966 546.768 316.462 546.24 317.502 545.184C318.542 544.128 319.062 542.64 319.062 540.72C319.062 538.784 318.542 537.272 317.502 536.184C316.462 535.096 314.966 534.552 313.014 534.552H310.302V546.768H313.014ZM330.317 549.216C329.069 549.216 327.941 548.936 326.933 548.376C325.925 547.8 325.133 547 324.557 545.976C323.981 544.936 323.693 543.736 323.693 542.376C323.693 541.032 323.989 539.84 324.581 538.8C325.173 537.76 325.981 536.96 327.005 536.4C328.029 535.84 329.173 535.56 330.437 535.56C331.701 535.56 332.845 535.84 333.869 536.4C334.893 536.96 335.701 537.76 336.293 538.8C336.885 539.84 337.181 541.032 337.181 542.376C337.181 543.72 336.877 544.912 336.269 545.952C335.661 546.992 334.829 547.8 333.773 548.376C332.733 548.936 331.581 549.216 330.317 549.216ZM330.317 546.84C331.021 546.84 331.677 546.672 332.285 546.336C332.909 546 333.413 545.496 333.797 544.824C334.181 544.152 334.373 543.336 334.373 542.376C334.373 541.416 334.189 540.608 333.821 539.952C333.453 539.28 332.965 538.776 332.357 538.44C331.749 538.104 331.093 537.936 330.389 537.936C329.685 537.936 329.029 538.104 328.421 538.44C327.829 538.776 327.357 539.28 327.005 539.952C326.653 540.608 326.477 541.416 326.477 542.376C326.477 543.8 326.837 544.904 327.557 545.688C328.293 546.456 329.213 546.84 330.317 546.84ZM345.622 549.216C344.374 549.216 343.246 548.936 342.238 548.376C341.23 547.8 340.438 547 339.862 545.976C339.286 544.936 338.998 543.736 338.998 542.376C338.998 541.032 339.294 539.84 339.886 538.8C340.478 537.76 341.286 536.96 342.31 536.4C343.334 535.84 344.478 535.56 345.742 535.56C347.006 535.56 348.15 535.84 349.174 536.4C350.198 536.96 351.006 537.76 351.598 538.8C352.19 539.84 352.486 541.032 352.486 542.376C352.486 543.72 352.182 544.912 351.574 545.952C350.966 546.992 350.134 547.8 349.078 548.376C348.038 548.936 346.886 549.216 345.622 549.216ZM345.622 546.84C346.326 546.84 346.982 546.672 347.59 546.336C348.214 546 348.718 545.496 349.102 544.824C349.486 544.152 349.678 543.336 349.678 542.376C349.678 541.416 349.494 540.608 349.126 539.952C348.758 539.28 348.27 538.776 347.662 538.44C347.054 538.104 346.398 537.936 345.694 537.936C344.99 537.936 344.334 538.104 343.726 538.44C343.134 538.776 342.662 539.28 342.31 539.952C341.958 540.608 341.782 541.416 341.782 542.376C341.782 543.8 342.142 544.904 342.862 545.688C343.598 546.456 344.518 546.84 345.622 546.84ZM357.927 537.696C358.327 537.024 358.855 536.504 359.511 536.136C360.183 535.752 360.975 535.56 361.887 535.56V538.392H361.191C360.119 538.392 359.303 538.664 358.743 539.208C358.199 539.752 357.927 540.696 357.927 542.04V549H355.191V535.776H357.927V537.696ZM376.132 549.168C375.012 549.168 374.004 548.976 373.108 548.592C372.212 548.192 371.508 547.632 370.996 546.912C370.484 546.192 370.228 545.352 370.228 544.392H373.156C373.22 545.112 373.5 545.704 373.996 546.168C374.508 546.632 375.22 546.864 376.132 546.864C377.076 546.864 377.812 546.64 378.34 546.192C378.868 545.728 379.132 545.136 379.132 544.416C379.132 543.856 378.964 543.4 378.628 543.048C378.308 542.696 377.9 542.424 377.404 542.232C376.924 542.04 376.252 541.832 375.388 541.608C374.3 541.32 373.412 541.032 372.724 540.744C372.052 540.44 371.476 539.976 370.996 539.352C370.516 538.728 370.276 537.896 370.276 536.856C370.276 535.896 370.516 535.056 370.996 534.336C371.476 533.616 372.148 533.064 373.012 532.68C373.876 532.296 374.876 532.104 376.012 532.104C377.628 532.104 378.948 532.512 379.972 533.328C381.012 534.128 381.588 535.232 381.7 536.64H378.676C378.628 536.032 378.34 535.512 377.812 535.08C377.284 534.648 376.588 534.432 375.724 534.432C374.94 534.432 374.3 534.632 373.804 535.032C373.308 535.432 373.06 536.008 373.06 536.76C373.06 537.272 373.212 537.696 373.516 538.032C373.836 538.352 374.236 538.608 374.716 538.8C375.196 538.992 375.852 539.2 376.684 539.424C377.788 539.728 378.684 540.032 379.372 540.336C380.076 540.64 380.668 541.112 381.148 541.752C381.644 542.376 381.892 543.216 381.892 544.272C381.892 545.12 381.66 545.92 381.196 546.672C380.748 547.424 380.084 548.032 379.204 548.496C378.34 548.944 377.316 549.168 376.132 549.168ZM388.312 538.008V545.328C388.312 545.824 388.424 546.184 388.648 546.408C388.888 546.616 389.288 546.72 389.848 546.72H391.528V549H389.368C388.136 549 387.192 548.712 386.536 548.136C385.88 547.56 385.552 546.624 385.552 545.328V538.008H383.992V535.776H385.552V532.488H388.312V535.776H391.528V538.008H388.312ZM406.17 542.064C406.17 542.56 406.138 543.008 406.074 543.408H395.97C396.05 544.464 396.442 545.312 397.146 545.952C397.85 546.592 398.714 546.912 399.738 546.912C401.21 546.912 402.25 546.296 402.858 545.064H405.81C405.41 546.28 404.682 547.28 403.626 548.064C402.586 548.832 401.29 549.216 399.738 549.216C398.474 549.216 397.338 548.936 396.33 548.376C395.338 547.8 394.554 547 393.978 545.976C393.418 544.936 393.138 543.736 393.138 542.376C393.138 541.016 393.41 539.824 393.954 538.8C394.514 537.76 395.29 536.96 396.282 536.4C397.29 535.84 398.442 535.56 399.738 535.56C400.986 535.56 402.098 535.832 403.074 536.376C404.05 536.92 404.81 537.688 405.354 538.68C405.898 539.656 406.17 540.784 406.17 542.064ZM403.314 541.2C403.298 540.192 402.938 539.384 402.234 538.776C401.53 538.168 400.658 537.864 399.618 537.864C398.674 537.864 397.866 538.168 397.194 538.776C396.522 539.368 396.122 540.176 395.994 541.2H403.314ZM411.599 537.72C412.063 537.112 412.695 536.6 413.495 536.184C414.295 535.768 415.199 535.56 416.207 535.56C417.359 535.56 418.407 535.848 419.351 536.424C420.311 536.984 421.063 537.776 421.607 538.8C422.151 539.824 422.423 541 422.423 542.328C422.423 543.656 422.151 544.848 421.607 545.904C421.063 546.944 420.311 547.76 419.351 548.352C418.407 548.928 417.359 549.216 416.207 549.216C415.199 549.216 414.303 549.016 413.519 548.616C412.735 548.2 412.095 547.688 411.599 547.08V555.288H408.863V535.776H411.599V537.72ZM419.639 542.328C419.639 541.416 419.447 540.632 419.062 539.976C418.695 539.304 418.199 538.8 417.575 538.464C416.967 538.112 416.311 537.936 415.607 537.936C414.919 537.936 414.263 538.112 413.639 538.464C413.031 538.816 412.535 539.328 412.151 540C411.783 540.672 411.599 541.464 411.599 542.376C411.599 543.288 411.783 544.088 412.151 544.776C412.535 545.448 413.031 545.96 413.639 546.312C414.263 546.664 414.919 546.84 415.607 546.84C416.311 546.84 416.967 546.664 417.575 546.312C418.199 545.944 418.695 545.416 419.062 544.728C419.447 544.04 419.639 543.24 419.639 542.328ZM429.928 549.216C428.888 549.216 427.952 549.032 427.12 548.664C426.304 548.28 425.656 547.768 425.176 547.128C424.696 546.472 424.44 545.744 424.408 544.944H427.24C427.288 545.504 427.552 545.976 428.032 546.36C428.528 546.728 429.144 546.912 429.88 546.912C430.648 546.912 431.24 546.768 431.656 546.48C432.088 546.176 432.304 545.792 432.304 545.328C432.304 544.832 432.064 544.464 431.584 544.224C431.12 543.984 430.376 543.72 429.352 543.432C428.36 543.16 427.552 542.896 426.928 542.64C426.304 542.384 425.76 541.992 425.296 541.464C424.848 540.936 424.624 540.24 424.624 539.376C424.624 538.672 424.832 538.032 425.248 537.456C425.664 536.864 426.256 536.4 427.024 536.064C427.808 535.728 428.704 535.56 429.712 535.56C431.216 535.56 432.424 535.944 433.336 536.712C434.264 537.464 434.76 538.496 434.824 539.808H432.088C432.04 539.216 431.8 538.744 431.368 538.392C430.936 538.04 430.352 537.864 429.616 537.864C428.896 537.864 428.344 538 427.96 538.272C427.576 538.544 427.384 538.904 427.384 539.352C427.384 539.704 427.512 540 427.768 540.24C428.024 540.48 428.336 540.672 428.704 540.816C429.072 540.944 429.616 541.112 430.336 541.32C431.296 541.576 432.08 541.84 432.688 542.112C433.312 542.368 433.848 542.752 434.296 543.264C434.744 543.776 434.976 544.456 434.992 545.304C434.992 546.056 434.784 546.728 434.368 547.32C433.952 547.912 433.36 548.376 432.592 548.712C431.84 549.048 430.952 549.216 429.928 549.216Z" fill="#2E266F"/>
<path d="M238.352 584.964H241.768V586H237.078V576.242H238.352V584.964ZM246.467 586.126C245.748 586.126 245.095 585.963 244.507 585.636C243.928 585.309 243.471 584.847 243.135 584.25C242.808 583.643 242.645 582.943 242.645 582.15C242.645 581.366 242.813 580.675 243.149 580.078C243.494 579.471 243.961 579.009 244.549 578.692C245.137 578.365 245.795 578.202 246.523 578.202C247.251 578.202 247.909 578.365 248.497 578.692C249.085 579.009 249.547 579.467 249.883 580.064C250.228 580.661 250.401 581.357 250.401 582.15C250.401 582.943 250.224 583.643 249.869 584.25C249.524 584.847 249.052 585.309 248.455 585.636C247.858 585.963 247.195 586.126 246.467 586.126ZM246.467 585.006C246.924 585.006 247.354 584.899 247.755 584.684C248.156 584.469 248.478 584.147 248.721 583.718C248.973 583.289 249.099 582.766 249.099 582.15C249.099 581.534 248.978 581.011 248.735 580.582C248.492 580.153 248.175 579.835 247.783 579.63C247.391 579.415 246.966 579.308 246.509 579.308C246.042 579.308 245.613 579.415 245.221 579.63C244.838 579.835 244.53 580.153 244.297 580.582C244.064 581.011 243.947 581.534 243.947 582.15C243.947 582.775 244.059 583.303 244.283 583.732C244.516 584.161 244.824 584.483 245.207 584.698C245.59 584.903 246.01 585.006 246.467 585.006ZM253.35 579.574C253.574 579.135 253.891 578.795 254.302 578.552C254.722 578.309 255.231 578.188 255.828 578.188V579.504H255.492C254.064 579.504 253.35 580.279 253.35 581.828V586H252.076V578.328H253.35V579.574ZM264.299 581.87C264.299 582.113 264.285 582.369 264.257 582.64H258.125C258.171 583.396 258.428 583.989 258.895 584.418C259.371 584.838 259.945 585.048 260.617 585.048C261.167 585.048 261.625 584.922 261.989 584.67C262.362 584.409 262.623 584.063 262.773 583.634H264.145C263.939 584.371 263.529 584.973 262.913 585.44C262.297 585.897 261.531 586.126 260.617 586.126C259.889 586.126 259.235 585.963 258.657 585.636C258.087 585.309 257.639 584.847 257.313 584.25C256.986 583.643 256.823 582.943 256.823 582.15C256.823 581.357 256.981 580.661 257.299 580.064C257.616 579.467 258.059 579.009 258.629 578.692C259.207 578.365 259.87 578.202 260.617 578.202C261.345 578.202 261.989 578.361 262.549 578.678C263.109 578.995 263.538 579.434 263.837 579.994C264.145 580.545 264.299 581.17 264.299 581.87ZM262.983 581.604C262.983 581.119 262.875 580.703 262.661 580.358C262.446 580.003 262.152 579.737 261.779 579.56C261.415 579.373 261.009 579.28 260.561 579.28C259.917 579.28 259.366 579.485 258.909 579.896C258.461 580.307 258.204 580.876 258.139 581.604H262.983ZM275.206 578.188C275.804 578.188 276.336 578.314 276.802 578.566C277.269 578.809 277.638 579.177 277.908 579.672C278.179 580.167 278.314 580.769 278.314 581.478V586H277.054V581.66C277.054 580.895 276.863 580.311 276.48 579.91C276.107 579.499 275.598 579.294 274.954 579.294C274.292 579.294 273.764 579.509 273.372 579.938C272.98 580.358 272.784 580.969 272.784 581.772V586H271.524V581.66C271.524 580.895 271.333 580.311 270.95 579.91C270.577 579.499 270.068 579.294 269.424 579.294C268.762 579.294 268.234 579.509 267.842 579.938C267.45 580.358 267.254 580.969 267.254 581.772V586H265.98V578.328H267.254V579.434C267.506 579.033 267.842 578.725 268.262 578.51C268.692 578.295 269.163 578.188 269.676 578.188C270.32 578.188 270.89 578.333 271.384 578.622C271.879 578.911 272.248 579.336 272.49 579.896C272.705 579.355 273.06 578.935 273.554 578.636C274.049 578.337 274.6 578.188 275.206 578.188ZM285.411 576.242V586H284.137V576.242H285.411ZM288.856 579.742C289.108 579.303 289.481 578.939 289.976 578.65C290.48 578.351 291.063 578.202 291.726 578.202C292.407 578.202 293.023 578.365 293.574 578.692C294.134 579.019 294.573 579.481 294.89 580.078C295.207 580.666 295.366 581.352 295.366 582.136C295.366 582.911 295.207 583.601 294.89 584.208C294.573 584.815 294.134 585.286 293.574 585.622C293.023 585.958 292.407 586.126 291.726 586.126C291.073 586.126 290.494 585.981 289.99 585.692C289.495 585.393 289.117 585.025 288.856 584.586V589.64H287.582V578.328H288.856V579.742ZM294.064 582.136C294.064 581.557 293.947 581.053 293.714 580.624C293.481 580.195 293.163 579.868 292.762 579.644C292.37 579.42 291.936 579.308 291.46 579.308C290.993 579.308 290.559 579.425 290.158 579.658C289.766 579.882 289.449 580.213 289.206 580.652C288.973 581.081 288.856 581.581 288.856 582.15C288.856 582.729 288.973 583.237 289.206 583.676C289.449 584.105 289.766 584.437 290.158 584.67C290.559 584.894 290.993 585.006 291.46 585.006C291.936 585.006 292.37 584.894 292.762 584.67C293.163 584.437 293.481 584.105 293.714 583.676C293.947 583.237 294.064 582.724 294.064 582.136ZM299.759 586.126C299.171 586.126 298.644 586.028 298.177 585.832C297.71 585.627 297.342 585.347 297.071 584.992C296.8 584.628 296.651 584.213 296.623 583.746H297.939C297.976 584.129 298.154 584.441 298.471 584.684C298.798 584.927 299.222 585.048 299.745 585.048C300.23 585.048 300.613 584.941 300.893 584.726C301.173 584.511 301.313 584.241 301.313 583.914C301.313 583.578 301.164 583.331 300.865 583.172C300.566 583.004 300.104 582.841 299.479 582.682C298.91 582.533 298.443 582.383 298.079 582.234C297.724 582.075 297.416 581.847 297.155 581.548C296.903 581.24 296.777 580.839 296.777 580.344C296.777 579.952 296.894 579.593 297.127 579.266C297.36 578.939 297.692 578.683 298.121 578.496C298.55 578.3 299.04 578.202 299.591 578.202C300.44 578.202 301.126 578.417 301.649 578.846C302.172 579.275 302.452 579.863 302.489 580.61H301.215C301.187 580.209 301.024 579.887 300.725 579.644C300.436 579.401 300.044 579.28 299.549 579.28C299.092 579.28 298.728 579.378 298.457 579.574C298.186 579.77 298.051 580.027 298.051 580.344C298.051 580.596 298.13 580.806 298.289 580.974C298.457 581.133 298.662 581.263 298.905 581.366C299.157 581.459 299.502 581.567 299.941 581.688C300.492 581.837 300.94 581.987 301.285 582.136C301.63 582.276 301.924 582.491 302.167 582.78C302.419 583.069 302.55 583.447 302.559 583.914C302.559 584.334 302.442 584.712 302.209 585.048C301.976 585.384 301.644 585.65 301.215 585.846C300.795 586.033 300.31 586.126 299.759 586.126ZM311.161 578.328V586H309.887V584.866C309.645 585.258 309.304 585.566 308.865 585.79C308.436 586.005 307.96 586.112 307.437 586.112C306.84 586.112 306.303 585.991 305.827 585.748C305.351 585.496 304.973 585.123 304.693 584.628C304.423 584.133 304.287 583.531 304.287 582.822V578.328H305.547V582.654C305.547 583.41 305.739 583.993 306.121 584.404C306.504 584.805 307.027 585.006 307.689 585.006C308.371 585.006 308.907 584.796 309.299 584.376C309.691 583.956 309.887 583.345 309.887 582.542V578.328H311.161ZM322.538 578.188C323.136 578.188 323.668 578.314 324.134 578.566C324.601 578.809 324.97 579.177 325.24 579.672C325.511 580.167 325.646 580.769 325.646 581.478V586H324.386V581.66C324.386 580.895 324.195 580.311 323.812 579.91C323.439 579.499 322.93 579.294 322.286 579.294C321.624 579.294 321.096 579.509 320.704 579.938C320.312 580.358 320.116 580.969 320.116 581.772V586H318.856V581.66C318.856 580.895 318.665 580.311 318.282 579.91C317.909 579.499 317.4 579.294 316.756 579.294C316.094 579.294 315.566 579.509 315.174 579.938C314.782 580.358 314.586 580.969 314.586 581.772V586H313.312V578.328H314.586V579.434C314.838 579.033 315.174 578.725 315.594 578.51C316.024 578.295 316.495 578.188 317.008 578.188C317.652 578.188 318.222 578.333 318.716 578.622C319.211 578.911 319.58 579.336 319.822 579.896C320.037 579.355 320.392 578.935 320.886 578.636C321.381 578.337 321.932 578.188 322.538 578.188ZM334.507 576.242C335.571 576.242 336.49 576.443 337.265 576.844C338.049 577.236 338.646 577.801 339.057 578.538C339.477 579.275 339.687 580.143 339.687 581.142C339.687 582.141 339.477 583.009 339.057 583.746C338.646 584.474 338.049 585.034 337.265 585.426C336.49 585.809 335.571 586 334.507 586H331.469V576.242H334.507ZM334.507 584.95C335.767 584.95 336.728 584.619 337.391 583.956C338.053 583.284 338.385 582.346 338.385 581.142C338.385 579.929 338.049 578.981 337.377 578.3C336.714 577.619 335.757 577.278 334.507 577.278H332.743V584.95H334.507ZM344.713 586.126C343.994 586.126 343.341 585.963 342.753 585.636C342.174 585.309 341.717 584.847 341.381 584.25C341.054 583.643 340.891 582.943 340.891 582.15C340.891 581.366 341.059 580.675 341.395 580.078C341.74 579.471 342.207 579.009 342.795 578.692C343.383 578.365 344.041 578.202 344.769 578.202C345.497 578.202 346.155 578.365 346.743 578.692C347.331 579.009 347.793 579.467 348.129 580.064C348.474 580.661 348.647 581.357 348.647 582.15C348.647 582.943 348.47 583.643 348.115 584.25C347.77 584.847 347.298 585.309 346.701 585.636C346.104 585.963 345.441 586.126 344.713 586.126ZM344.713 585.006C345.17 585.006 345.6 584.899 346.001 584.684C346.402 584.469 346.724 584.147 346.967 583.718C347.219 583.289 347.345 582.766 347.345 582.15C347.345 581.534 347.224 581.011 346.981 580.582C346.738 580.153 346.421 579.835 346.029 579.63C345.637 579.415 345.212 579.308 344.755 579.308C344.288 579.308 343.859 579.415 343.467 579.63C343.084 579.835 342.776 580.153 342.543 580.582C342.31 581.011 342.193 581.534 342.193 582.15C342.193 582.775 342.305 583.303 342.529 583.732C342.762 584.161 343.07 584.483 343.453 584.698C343.836 584.903 344.256 585.006 344.713 585.006ZM351.596 575.64V586H350.322V575.64H351.596ZM357.113 586.126C356.395 586.126 355.741 585.963 355.153 585.636C354.575 585.309 354.117 584.847 353.781 584.25C353.455 583.643 353.291 582.943 353.291 582.15C353.291 581.366 353.459 580.675 353.795 580.078C354.141 579.471 354.607 579.009 355.195 578.692C355.783 578.365 356.441 578.202 357.169 578.202C357.897 578.202 358.555 578.365 359.143 578.692C359.731 579.009 360.193 579.467 360.529 580.064C360.875 580.661 361.047 581.357 361.047 582.15C361.047 582.943 360.87 583.643 360.515 584.25C360.17 584.847 359.699 585.309 359.101 585.636C358.504 585.963 357.841 586.126 357.113 586.126ZM357.113 585.006C357.571 585.006 358 584.899 358.401 584.684C358.803 584.469 359.125 584.147 359.367 583.718C359.619 583.289 359.745 582.766 359.745 582.15C359.745 581.534 359.624 581.011 359.381 580.582C359.139 580.153 358.821 579.835 358.429 579.63C358.037 579.415 357.613 579.308 357.155 579.308C356.689 579.308 356.259 579.415 355.867 579.63C355.485 579.835 355.177 580.153 354.943 580.582C354.71 581.011 354.593 581.534 354.593 582.15C354.593 582.775 354.705 583.303 354.929 583.732C355.163 584.161 355.471 584.483 355.853 584.698C356.236 584.903 356.656 585.006 357.113 585.006ZM363.997 579.574C364.221 579.135 364.538 578.795 364.949 578.552C365.369 578.309 365.877 578.188 366.475 578.188V579.504H366.139C364.711 579.504 363.997 580.279 363.997 581.828V586H362.723V578.328H363.997V579.574ZM374.772 586.098C374.128 586.098 373.549 585.986 373.036 585.762C372.532 585.529 372.135 585.211 371.846 584.81C371.556 584.399 371.407 583.928 371.398 583.396H372.756C372.802 583.853 372.989 584.241 373.316 584.558C373.652 584.866 374.137 585.02 374.772 585.02C375.378 585.02 375.854 584.871 376.2 584.572C376.554 584.264 376.732 583.872 376.732 583.396C376.732 583.023 376.629 582.719 376.424 582.486C376.218 582.253 375.962 582.075 375.654 581.954C375.346 581.833 374.93 581.702 374.408 581.562C373.764 581.394 373.246 581.226 372.854 581.058C372.471 580.89 372.14 580.629 371.86 580.274C371.589 579.91 371.454 579.425 371.454 578.818C371.454 578.286 371.589 577.815 371.86 577.404C372.13 576.993 372.508 576.676 372.994 576.452C373.488 576.228 374.053 576.116 374.688 576.116C375.602 576.116 376.349 576.345 376.928 576.802C377.516 577.259 377.847 577.866 377.922 578.622H376.522C376.475 578.249 376.279 577.922 375.934 577.642C375.588 577.353 375.131 577.208 374.562 577.208C374.03 577.208 373.596 577.348 373.26 577.628C372.924 577.899 372.756 578.281 372.756 578.776C372.756 579.131 372.854 579.42 373.05 579.644C373.255 579.868 373.502 580.041 373.792 580.162C374.09 580.274 374.506 580.405 375.038 580.554C375.682 580.731 376.2 580.909 376.592 581.086C376.984 581.254 377.32 581.52 377.6 581.884C377.88 582.239 378.02 582.724 378.02 583.34C378.02 583.816 377.894 584.264 377.642 584.684C377.39 585.104 377.016 585.445 376.522 585.706C376.027 585.967 375.444 586.098 374.772 586.098ZM380.552 577.082C380.31 577.082 380.104 576.998 379.936 576.83C379.768 576.662 379.684 576.457 379.684 576.214C379.684 575.971 379.768 575.766 379.936 575.598C380.104 575.43 380.31 575.346 380.552 575.346C380.786 575.346 380.982 575.43 381.14 575.598C381.308 575.766 381.392 575.971 381.392 576.214C381.392 576.457 381.308 576.662 381.14 576.83C380.982 576.998 380.786 577.082 380.552 577.082ZM381.168 578.328V586H379.894V578.328H381.168ZM384.894 579.378V583.9C384.894 584.273 384.973 584.539 385.132 584.698C385.29 584.847 385.566 584.922 385.958 584.922H386.896V586H385.748C385.038 586 384.506 585.837 384.152 585.51C383.797 585.183 383.62 584.647 383.62 583.9V579.378H382.626V578.328H383.62V576.396H384.894V578.328H386.896V579.378H384.894ZM397.94 583.83H393.684L392.9 586H391.556L395.084 576.298H396.554L400.068 586H398.724L397.94 583.83ZM397.576 582.794L395.812 577.866L394.048 582.794H397.576ZM410.831 578.188C411.429 578.188 411.961 578.314 412.427 578.566C412.894 578.809 413.263 579.177 413.533 579.672C413.804 580.167 413.939 580.769 413.939 581.478V586H412.679V581.66C412.679 580.895 412.488 580.311 412.105 579.91C411.732 579.499 411.223 579.294 410.579 579.294C409.917 579.294 409.389 579.509 408.997 579.938C408.605 580.358 408.409 580.969 408.409 581.772V586H407.149V581.66C407.149 580.895 406.958 580.311 406.575 579.91C406.202 579.499 405.693 579.294 405.049 579.294C404.387 579.294 403.859 579.509 403.467 579.938C403.075 580.358 402.879 580.969 402.879 581.772V586H401.605V578.328H402.879V579.434C403.131 579.033 403.467 578.725 403.887 578.51C404.317 578.295 404.788 578.188 405.301 578.188C405.945 578.188 406.515 578.333 407.009 578.622C407.504 578.911 407.873 579.336 408.115 579.896C408.33 579.355 408.685 578.935 409.179 578.636C409.674 578.337 410.225 578.188 410.831 578.188ZM423.029 581.87C423.029 582.113 423.015 582.369 422.987 582.64H416.855C416.902 583.396 417.159 583.989 417.625 584.418C418.101 584.838 418.675 585.048 419.347 585.048C419.898 585.048 420.355 584.922 420.719 584.67C421.093 584.409 421.354 584.063 421.503 583.634H422.875C422.67 584.371 422.259 584.973 421.643 585.44C421.027 585.897 420.262 586.126 419.347 586.126C418.619 586.126 417.966 585.963 417.387 585.636C416.818 585.309 416.37 584.847 416.043 584.25C415.717 583.643 415.553 582.943 415.553 582.15C415.553 581.357 415.712 580.661 416.029 580.064C416.347 579.467 416.79 579.009 417.359 578.692C417.938 578.365 418.601 578.202 419.347 578.202C420.075 578.202 420.719 578.361 421.279 578.678C421.839 578.995 422.269 579.434 422.567 579.994C422.875 580.545 423.029 581.17 423.029 581.87ZM421.713 581.604C421.713 581.119 421.606 580.703 421.391 580.358C421.177 580.003 420.883 579.737 420.509 579.56C420.145 579.373 419.739 579.28 419.291 579.28C418.647 579.28 418.097 579.485 417.639 579.896C417.191 580.307 416.935 580.876 416.869 581.604H421.713ZM426.265 579.378V583.9C426.265 584.273 426.344 584.539 426.503 584.698C426.661 584.847 426.937 584.922 427.329 584.922H428.267V586H427.119C426.409 586 425.877 585.837 425.523 585.51C425.168 585.183 424.991 584.647 424.991 583.9V579.378H423.997V578.328H424.991V576.396H426.265V578.328H428.267V579.378H426.265ZM431.126 584.236L429.558 588.002H428.704L429.726 584.236H431.126ZM236.602 605.114C236.602 604.162 236.817 603.308 237.246 602.552C237.675 601.787 238.259 601.189 238.996 600.76C239.743 600.331 240.569 600.116 241.474 600.116C242.538 600.116 243.467 600.373 244.26 600.886C245.053 601.399 245.632 602.127 245.996 603.07H244.47C244.199 602.482 243.807 602.029 243.294 601.712C242.79 601.395 242.183 601.236 241.474 601.236C240.793 601.236 240.181 601.395 239.64 601.712C239.099 602.029 238.674 602.482 238.366 603.07C238.058 603.649 237.904 604.33 237.904 605.114C237.904 605.889 238.058 606.57 238.366 607.158C238.674 607.737 239.099 608.185 239.64 608.502C240.181 608.819 240.793 608.978 241.474 608.978C242.183 608.978 242.79 608.824 243.294 608.516C243.807 608.199 244.199 607.746 244.47 607.158H245.996C245.632 608.091 245.053 608.815 244.26 609.328C243.467 609.832 242.538 610.084 241.474 610.084C240.569 610.084 239.743 609.874 238.996 609.454C238.259 609.025 237.675 608.432 237.246 607.676C236.817 606.92 236.602 606.066 236.602 605.114ZM251.238 610.126C250.52 610.126 249.866 609.963 249.278 609.636C248.7 609.309 248.242 608.847 247.906 608.25C247.58 607.643 247.416 606.943 247.416 606.15C247.416 605.366 247.584 604.675 247.92 604.078C248.266 603.471 248.732 603.009 249.32 602.692C249.908 602.365 250.566 602.202 251.294 602.202C252.022 602.202 252.68 602.365 253.268 602.692C253.856 603.009 254.318 603.467 254.654 604.064C255 604.661 255.172 605.357 255.172 606.15C255.172 606.943 254.995 607.643 254.64 608.25C254.295 608.847 253.824 609.309 253.226 609.636C252.629 609.963 251.966 610.126 251.238 610.126ZM251.238 609.006C251.696 609.006 252.125 608.899 252.526 608.684C252.928 608.469 253.25 608.147 253.492 607.718C253.744 607.289 253.87 606.766 253.87 606.15C253.87 605.534 253.749 605.011 253.506 604.582C253.264 604.153 252.946 603.835 252.554 603.63C252.162 603.415 251.738 603.308 251.28 603.308C250.814 603.308 250.384 603.415 249.992 603.63C249.61 603.835 249.302 604.153 249.068 604.582C248.835 605.011 248.718 605.534 248.718 606.15C248.718 606.775 248.83 607.303 249.054 607.732C249.288 608.161 249.596 608.483 249.978 608.698C250.361 608.903 250.781 609.006 251.238 609.006ZM260.586 602.188C261.519 602.188 262.275 602.473 262.854 603.042C263.432 603.602 263.722 604.414 263.722 605.478V610H262.462V605.66C262.462 604.895 262.27 604.311 261.888 603.91C261.505 603.499 260.982 603.294 260.32 603.294C259.648 603.294 259.111 603.504 258.71 603.924C258.318 604.344 258.122 604.955 258.122 605.758V610H256.848V602.328H258.122V603.42C258.374 603.028 258.714 602.725 259.144 602.51C259.582 602.295 260.063 602.188 260.586 602.188ZM268.519 610.126C267.931 610.126 267.403 610.028 266.937 609.832C266.47 609.627 266.101 609.347 265.831 608.992C265.56 608.628 265.411 608.213 265.383 607.746H266.699C266.736 608.129 266.913 608.441 267.231 608.684C267.557 608.927 267.982 609.048 268.505 609.048C268.99 609.048 269.373 608.941 269.653 608.726C269.933 608.511 270.073 608.241 270.073 607.914C270.073 607.578 269.923 607.331 269.625 607.172C269.326 607.004 268.864 606.841 268.239 606.682C267.669 606.533 267.203 606.383 266.839 606.234C266.484 606.075 266.176 605.847 265.915 605.548C265.663 605.24 265.537 604.839 265.537 604.344C265.537 603.952 265.653 603.593 265.887 603.266C266.12 602.939 266.451 602.683 266.881 602.496C267.31 602.3 267.8 602.202 268.351 602.202C269.2 602.202 269.886 602.417 270.409 602.846C270.931 603.275 271.211 603.863 271.249 604.61H269.975C269.947 604.209 269.783 603.887 269.485 603.644C269.195 603.401 268.803 603.28 268.309 603.28C267.851 603.28 267.487 603.378 267.217 603.574C266.946 603.77 266.811 604.027 266.811 604.344C266.811 604.596 266.89 604.806 267.049 604.974C267.217 605.133 267.422 605.263 267.665 605.366C267.917 605.459 268.262 605.567 268.701 605.688C269.251 605.837 269.699 605.987 270.045 606.136C270.39 606.276 270.684 606.491 270.927 606.78C271.179 607.069 271.309 607.447 271.319 607.914C271.319 608.334 271.202 608.712 270.969 609.048C270.735 609.384 270.404 609.65 269.975 609.846C269.555 610.033 269.069 610.126 268.519 610.126ZM280.117 605.87C280.117 606.113 280.103 606.369 280.075 606.64H273.943C273.99 607.396 274.246 607.989 274.713 608.418C275.189 608.838 275.763 609.048 276.435 609.048C276.986 609.048 277.443 608.922 277.807 608.67C278.18 608.409 278.442 608.063 278.591 607.634H279.963C279.758 608.371 279.347 608.973 278.731 609.44C278.115 609.897 277.35 610.126 276.435 610.126C275.707 610.126 275.054 609.963 274.475 609.636C273.906 609.309 273.458 608.847 273.131 608.25C272.804 607.643 272.641 606.943 272.641 606.15C272.641 605.357 272.8 604.661 273.117 604.064C273.434 603.467 273.878 603.009 274.447 602.692C275.026 602.365 275.688 602.202 276.435 602.202C277.163 602.202 277.807 602.361 278.367 602.678C278.927 602.995 279.356 603.434 279.655 603.994C279.963 604.545 280.117 605.17 280.117 605.87ZM278.801 605.604C278.801 605.119 278.694 604.703 278.479 604.358C278.264 604.003 277.97 603.737 277.597 603.56C277.233 603.373 276.827 603.28 276.379 603.28C275.735 603.28 275.184 603.485 274.727 603.896C274.279 604.307 274.022 604.876 273.957 605.604H278.801ZM281.323 606.15C281.323 605.357 281.481 604.666 281.799 604.078C282.116 603.481 282.555 603.019 283.115 602.692C283.684 602.365 284.333 602.202 285.061 602.202C286.003 602.202 286.778 602.431 287.385 602.888C288.001 603.345 288.407 603.98 288.603 604.792H287.231C287.1 604.325 286.843 603.957 286.461 603.686C286.087 603.415 285.621 603.28 285.061 603.28C284.333 603.28 283.745 603.532 283.297 604.036C282.849 604.531 282.625 605.235 282.625 606.15C282.625 607.074 282.849 607.788 283.297 608.292C283.745 608.796 284.333 609.048 285.061 609.048C285.621 609.048 286.087 608.917 286.461 608.656C286.834 608.395 287.091 608.021 287.231 607.536H288.603C288.397 608.32 287.987 608.95 287.371 609.426C286.755 609.893 285.985 610.126 285.061 610.126C284.333 610.126 283.684 609.963 283.115 609.636C282.555 609.309 282.116 608.847 281.799 608.25C281.481 607.653 281.323 606.953 281.323 606.15ZM291.857 603.378V607.9C291.857 608.273 291.936 608.539 292.095 608.698C292.253 608.847 292.529 608.922 292.921 608.922H293.859V610H292.711C292.001 610 291.469 609.837 291.115 609.51C290.76 609.183 290.583 608.647 290.583 607.9V603.378H289.589V602.328H290.583V600.396H291.857V602.328H293.859V603.378H291.857ZM302.402 605.87C302.402 606.113 302.388 606.369 302.36 606.64H296.228C296.275 607.396 296.532 607.989 296.998 608.418C297.474 608.838 298.048 609.048 298.72 609.048C299.271 609.048 299.728 608.922 300.092 608.67C300.466 608.409 300.727 608.063 300.876 607.634H302.248C302.043 608.371 301.632 608.973 301.016 609.44C300.4 609.897 299.635 610.126 298.72 610.126C297.992 610.126 297.339 609.963 296.76 609.636C296.191 609.309 295.743 608.847 295.416 608.25C295.09 607.643 294.926 606.943 294.926 606.15C294.926 605.357 295.085 604.661 295.402 604.064C295.72 603.467 296.163 603.009 296.732 602.692C297.311 602.365 297.974 602.202 298.72 602.202C299.448 602.202 300.092 602.361 300.652 602.678C301.212 602.995 301.642 603.434 301.94 603.994C302.248 604.545 302.402 605.17 302.402 605.87ZM301.086 605.604C301.086 605.119 300.979 604.703 300.764 604.358C300.55 604.003 300.256 603.737 299.882 603.56C299.518 603.373 299.112 603.28 298.664 603.28C298.02 603.28 297.47 603.485 297.012 603.896C296.564 604.307 296.308 604.876 296.242 605.604H301.086ZM305.638 603.378V607.9C305.638 608.273 305.717 608.539 305.876 608.698C306.035 608.847 306.31 608.922 306.702 608.922H307.64V610H306.492C305.783 610 305.251 609.837 304.896 609.51C304.541 609.183 304.364 608.647 304.364 607.9V603.378H303.37V602.328H304.364V600.396H305.638V602.328H307.64V603.378H305.638ZM315.987 602.328V610H314.713V608.866C314.471 609.258 314.13 609.566 313.691 609.79C313.262 610.005 312.786 610.112 312.263 610.112C311.666 610.112 311.129 609.991 310.653 609.748C310.177 609.496 309.799 609.123 309.519 608.628C309.249 608.133 309.113 607.531 309.113 606.822V602.328H310.373V606.654C310.373 607.41 310.565 607.993 310.947 608.404C311.33 608.805 311.853 609.006 312.515 609.006C313.197 609.006 313.733 608.796 314.125 608.376C314.517 607.956 314.713 607.345 314.713 606.542V602.328H315.987ZM319.413 603.574C319.637 603.135 319.954 602.795 320.365 602.552C320.785 602.309 321.293 602.188 321.891 602.188V603.504H321.555C320.127 603.504 319.413 604.279 319.413 605.828V610H318.139V602.328H319.413V603.574ZM332.862 607.83H328.606L327.822 610H326.478L330.006 600.298H331.476L334.99 610H333.646L332.862 607.83ZM332.498 606.794L330.734 601.866L328.97 606.794H332.498ZM336.051 606.136C336.051 605.352 336.21 604.666 336.527 604.078C336.845 603.481 337.279 603.019 337.829 602.692C338.389 602.365 339.015 602.202 339.705 602.202C340.303 602.202 340.858 602.342 341.371 602.622C341.885 602.893 342.277 603.252 342.547 603.7V599.64H343.835V610H342.547V608.558C342.295 609.015 341.922 609.393 341.427 609.692C340.933 609.981 340.354 610.126 339.691 610.126C339.01 610.126 338.389 609.958 337.829 609.622C337.279 609.286 336.845 608.815 336.527 608.208C336.21 607.601 336.051 606.911 336.051 606.136ZM342.547 606.15C342.547 605.571 342.431 605.067 342.197 604.638C341.964 604.209 341.647 603.882 341.245 603.658C340.853 603.425 340.419 603.308 339.943 603.308C339.467 603.308 339.033 603.42 338.641 603.644C338.249 603.868 337.937 604.195 337.703 604.624C337.47 605.053 337.353 605.557 337.353 606.136C337.353 606.724 337.47 607.237 337.703 607.676C337.937 608.105 338.249 608.437 338.641 608.67C339.033 608.894 339.467 609.006 339.943 609.006C340.419 609.006 340.853 608.894 341.245 608.67C341.647 608.437 341.964 608.105 342.197 607.676C342.431 607.237 342.547 606.729 342.547 606.15ZM346.646 601.082C346.403 601.082 346.198 600.998 346.03 600.83C345.862 600.662 345.778 600.457 345.778 600.214C345.778 599.971 345.862 599.766 346.03 599.598C346.198 599.43 346.403 599.346 346.646 599.346C346.879 599.346 347.075 599.43 347.234 599.598C347.402 599.766 347.486 599.971 347.486 600.214C347.486 600.457 347.402 600.662 347.234 600.83C347.075 600.998 346.879 601.082 346.646 601.082ZM347.262 602.328V610H345.988V602.328H347.262ZM350.707 603.742C350.959 603.303 351.333 602.939 351.827 602.65C352.331 602.351 352.915 602.202 353.577 602.202C354.259 602.202 354.875 602.365 355.425 602.692C355.985 603.019 356.424 603.481 356.741 604.078C357.059 604.666 357.217 605.352 357.217 606.136C357.217 606.911 357.059 607.601 356.741 608.208C356.424 608.815 355.985 609.286 355.425 609.622C354.875 609.958 354.259 610.126 353.577 610.126C352.924 610.126 352.345 609.981 351.841 609.692C351.347 609.393 350.969 609.025 350.707 608.586V613.64H349.433V602.328H350.707V603.742ZM355.915 606.136C355.915 605.557 355.799 605.053 355.565 604.624C355.332 604.195 355.015 603.868 354.613 603.644C354.221 603.42 353.787 603.308 353.311 603.308C352.845 603.308 352.411 603.425 352.009 603.658C351.617 603.882 351.3 604.213 351.057 604.652C350.824 605.081 350.707 605.581 350.707 606.15C350.707 606.729 350.824 607.237 351.057 607.676C351.3 608.105 351.617 608.437 352.009 608.67C352.411 608.894 352.845 609.006 353.311 609.006C353.787 609.006 354.221 608.894 354.613 608.67C355.015 608.437 355.332 608.105 355.565 607.676C355.799 607.237 355.915 606.724 355.915 606.136ZM359.552 601.082C359.31 601.082 359.104 600.998 358.936 600.83C358.768 600.662 358.684 600.457 358.684 600.214C358.684 599.971 358.768 599.766 358.936 599.598C359.104 599.43 359.31 599.346 359.552 599.346C359.786 599.346 359.982 599.43 360.14 599.598C360.308 599.766 360.392 599.971 360.392 600.214C360.392 600.457 360.308 600.662 360.14 600.83C359.982 600.998 359.786 601.082 359.552 601.082ZM360.168 602.328V610H358.894V602.328H360.168ZM365.056 610.126C364.468 610.126 363.94 610.028 363.474 609.832C363.007 609.627 362.638 609.347 362.368 608.992C362.097 608.628 361.948 608.213 361.92 607.746H363.236C363.273 608.129 363.45 608.441 363.768 608.684C364.094 608.927 364.519 609.048 365.042 609.048C365.527 609.048 365.91 608.941 366.19 608.726C366.47 608.511 366.61 608.241 366.61 607.914C366.61 607.578 366.46 607.331 366.162 607.172C365.863 607.004 365.401 606.841 364.776 606.682C364.206 606.533 363.74 606.383 363.376 606.234C363.021 606.075 362.713 605.847 362.452 605.548C362.2 605.24 362.074 604.839 362.074 604.344C362.074 603.952 362.19 603.593 362.424 603.266C362.657 602.939 362.988 602.683 363.418 602.496C363.847 602.3 364.337 602.202 364.888 602.202C365.737 602.202 366.423 602.417 366.946 602.846C367.468 603.275 367.748 603.863 367.786 604.61H366.512C366.484 604.209 366.32 603.887 366.022 603.644C365.732 603.401 365.34 603.28 364.846 603.28C364.388 603.28 364.024 603.378 363.754 603.574C363.483 603.77 363.348 604.027 363.348 604.344C363.348 604.596 363.427 604.806 363.586 604.974C363.754 605.133 363.959 605.263 364.202 605.366C364.454 605.459 364.799 605.567 365.238 605.688C365.788 605.837 366.236 605.987 366.582 606.136C366.927 606.276 367.221 606.491 367.464 606.78C367.716 607.069 367.846 607.447 367.856 607.914C367.856 608.334 367.739 608.712 367.506 609.048C367.272 609.384 366.941 609.65 366.512 609.846C366.092 610.033 365.606 610.126 365.056 610.126ZM369.178 606.15C369.178 605.357 369.337 604.666 369.654 604.078C369.972 603.481 370.41 603.019 370.97 602.692C371.54 602.365 372.188 602.202 372.916 602.202C373.859 602.202 374.634 602.431 375.24 602.888C375.856 603.345 376.262 603.98 376.458 604.792H375.086C374.956 604.325 374.699 603.957 374.316 603.686C373.943 603.415 373.476 603.28 372.916 603.28C372.188 603.28 371.6 603.532 371.152 604.036C370.704 604.531 370.48 605.235 370.48 606.15C370.48 607.074 370.704 607.788 371.152 608.292C371.6 608.796 372.188 609.048 372.916 609.048C373.476 609.048 373.943 608.917 374.316 608.656C374.69 608.395 374.946 608.021 375.086 607.536H376.458C376.253 608.32 375.842 608.95 375.226 609.426C374.61 609.893 373.84 610.126 372.916 610.126C372.188 610.126 371.54 609.963 370.97 609.636C370.41 609.309 369.972 608.847 369.654 608.25C369.337 607.653 369.178 606.953 369.178 606.15ZM378.816 601.082C378.573 601.082 378.368 600.998 378.2 600.83C378.032 600.662 377.948 600.457 377.948 600.214C377.948 599.971 378.032 599.766 378.2 599.598C378.368 599.43 378.573 599.346 378.816 599.346C379.049 599.346 379.245 599.43 379.404 599.598C379.572 599.766 379.656 599.971 379.656 600.214C379.656 600.457 379.572 600.662 379.404 600.83C379.245 600.998 379.049 601.082 378.816 601.082ZM379.432 602.328V610H378.158V602.328H379.432ZM385.341 602.188C386.275 602.188 387.031 602.473 387.609 603.042C388.188 603.602 388.477 604.414 388.477 605.478V610H387.217V605.66C387.217 604.895 387.026 604.311 386.643 603.91C386.261 603.499 385.738 603.294 385.075 603.294C384.403 603.294 383.867 603.504 383.465 603.924C383.073 604.344 382.877 604.955 382.877 605.758V610H381.603V602.328H382.877V603.42C383.129 603.028 383.47 602.725 383.899 602.51C384.338 602.295 384.819 602.188 385.341 602.188ZM393.722 602.202C394.385 602.202 394.964 602.347 395.458 602.636C395.962 602.925 396.336 603.289 396.578 603.728V602.328H397.866V610.168C397.866 610.868 397.717 611.489 397.418 612.03C397.12 612.581 396.69 613.01 396.13 613.318C395.58 613.626 394.936 613.78 394.198 613.78C393.19 613.78 392.35 613.542 391.678 613.066C391.006 612.59 390.61 611.941 390.488 611.12H391.748C391.888 611.587 392.178 611.96 392.616 612.24C393.055 612.529 393.582 612.674 394.198 612.674C394.898 612.674 395.468 612.455 395.906 612.016C396.354 611.577 396.578 610.961 396.578 610.168V608.558C396.326 609.006 395.953 609.379 395.458 609.678C394.964 609.977 394.385 610.126 393.722 610.126C393.041 610.126 392.42 609.958 391.86 609.622C391.31 609.286 390.876 608.815 390.558 608.208C390.241 607.601 390.082 606.911 390.082 606.136C390.082 605.352 390.241 604.666 390.558 604.078C390.876 603.481 391.31 603.019 391.86 602.692C392.42 602.365 393.041 602.202 393.722 602.202ZM396.578 606.15C396.578 605.571 396.462 605.067 396.228 604.638C395.995 604.209 395.678 603.882 395.276 603.658C394.884 603.425 394.45 603.308 393.974 603.308C393.498 603.308 393.064 603.42 392.672 603.644C392.28 603.868 391.968 604.195 391.734 604.624C391.501 605.053 391.384 605.557 391.384 606.136C391.384 606.724 391.501 607.237 391.734 607.676C391.968 608.105 392.28 608.437 392.672 608.67C393.064 608.894 393.498 609.006 393.974 609.006C394.45 609.006 394.884 608.894 395.276 608.67C395.678 608.437 395.995 608.105 396.228 607.676C396.462 607.237 396.578 606.729 396.578 606.15ZM405.026 601.278V604.54H408.582V605.59H405.026V608.95H409.002V610H403.752V600.228H409.002V601.278H405.026ZM412.204 599.64V610H410.93V599.64H412.204ZM415.033 601.082C414.79 601.082 414.585 600.998 414.417 600.83C414.249 600.662 414.165 600.457 414.165 600.214C414.165 599.971 414.249 599.766 414.417 599.598C414.585 599.43 414.79 599.346 415.033 599.346C415.266 599.346 415.462 599.43 415.621 599.598C415.789 599.766 415.873 599.971 415.873 600.214C415.873 600.457 415.789 600.662 415.621 600.83C415.462 600.998 415.266 601.082 415.033 601.082ZM415.649 602.328V610H414.375V602.328H415.649ZM419.374 603.378V607.9C419.374 608.273 419.454 608.539 419.612 608.698C419.771 608.847 420.046 608.922 420.438 608.922H421.376V610H420.228C419.519 610 418.987 609.837 418.632 609.51C418.278 609.183 418.1 608.647 418.1 607.9V603.378H417.106V602.328H418.1V600.396H419.374V602.328H421.376V603.378H419.374ZM423.326 610.084C423.083 610.084 422.878 610 422.71 609.832C422.542 609.664 422.458 609.459 422.458 609.216C422.458 608.973 422.542 608.768 422.71 608.6C422.878 608.432 423.083 608.348 423.326 608.348C423.559 608.348 423.755 608.432 423.914 608.6C424.082 608.768 424.166 608.973 424.166 609.216C424.166 609.459 424.082 609.664 423.914 609.832C423.755 610 423.559 610.084 423.326 610.084Z" fill="#707070"/>
<rect x="240" y="633" width="192" height="3" fill="#35CD8C"/>
<path d="M311.436 393.4C309.78 393.4 308.158 394.074 306.989 395.243C305.82 396.412 305.146 398.036 305.146 399.689C305.146 401.343 305.82 402.967 306.989 404.136C308.158 405.305 309.78 405.979 311.436 405.979C313.089 405.979 314.71 405.305 315.882 404.136C317.051 402.967 317.725 401.35 317.725 399.689C317.725 398.036 317.051 396.412 315.882 395.243C314.71 394.074 313.089 393.4 311.436 393.4Z" fill="#35CD8C"/>
<path d="M436.699 287.815L422.042 221.601C425.997 221.065 429.486 219.053 431.94 216.14C434.836 217.95 438.254 219.002 441.914 219.002H454.492C457.966 219.002 460.781 216.186 460.781 212.712V187.556C460.781 184.083 457.966 181.267 454.492 181.267H441.914C438.146 181.267 434.633 182.383 431.682 184.296C428.803 181.041 424.599 178.982 419.922 178.982H382.797C376.127 178.982 370.418 183.166 368.145 189.045H353.238C344.222 189.045 336.887 196.381 336.887 205.397C336.887 214.413 344.222 221.748 353.238 221.748H385.61V234.422C385.61 237.896 388.425 240.711 391.899 240.711C395.373 240.711 398.188 237.896 398.188 234.422V221.748H409.194L424.98 293.077L395.102 346.294C391.837 352.086 385.681 355.685 379.031 355.685H304.444C301.322 329.5 278.995 309.127 251.984 309.127C240.033 309.127 228.757 313.021 219.375 320.386C219.362 320.395 219.35 320.405 219.338 320.415C208.167 329.2 201.146 341.808 199.51 355.685H186.593C187.413 310.473 224.448 273.947 269.849 273.947H314.462C317.983 273.947 320.85 276.814 320.85 280.337V336.818C320.85 340.292 323.665 343.107 327.139 343.107H360.603C374.255 343.107 386.836 335.683 393.434 323.737C396.488 318.209 398.107 311.949 398.112 305.638L398.144 284.744C398.149 281.271 395.336 278.45 391.862 278.445C391.86 278.445 391.857 278.445 391.855 278.445C388.386 278.445 385.57 281.256 385.566 284.725L385.534 305.624C385.531 309.82 384.455 313.981 382.426 317.654C378.038 325.594 369.676 330.527 360.603 330.527H333.428V280.335C333.428 277.114 332.617 274.078 331.195 271.417C336.845 268.152 340.658 262.05 340.658 255.07C340.658 244.666 332.192 236.203 321.791 236.203H298.835C296.629 236.203 294.514 236.586 292.546 237.284V182.117C292.546 171.713 284.081 163.25 273.679 163.25H233.107C203.696 163.25 179.238 184.844 174.742 213.007C174.553 213.607 174.45 214.243 174.45 214.904C174.45 214.943 174.454 214.98 174.454 215.017C174.155 217.424 174 219.874 174 222.357V255.073C174 264.519 180.979 272.365 190.052 273.729L203.979 287.656C185.527 305.137 174 329.856 174 357.221V361.975C174 365.448 176.815 368.264 180.289 368.264H215.633C215.552 368.669 215.508 369.092 215.508 369.521C215.508 378.648 218.886 386.998 224.448 393.4H180.289C176.815 393.4 174 396.218 174 399.689C174 403.163 176.815 405.978 180.289 405.978H251.257C251.5 405.986 251.741 405.998 251.984 405.998C272.097 405.998 288.461 389.634 288.461 369.521C288.461 369.092 288.417 368.669 288.336 368.264H379.031C388.934 368.264 398.188 363.517 403.988 355.666H411.953C410.162 360.024 409.211 364.721 409.211 369.521C409.211 378.648 412.589 386.998 418.151 393.4H336.592C333.118 393.4 330.303 396.218 330.303 399.689C330.303 403.163 333.118 405.978 336.592 405.978H444.96C445.204 405.986 445.444 405.998 445.688 405.998C465.8 405.998 482.164 389.634 482.164 369.521C482.164 364.721 481.213 360.024 479.422 355.666H489.711C493.185 355.666 496 352.85 496 349.377C496 316.18 469.603 289.031 436.699 287.815ZM298.835 248.784H321.791C325.257 248.784 328.08 251.604 328.08 255.073C328.08 258.539 325.257 261.362 321.791 261.362H298.835C295.367 261.362 292.546 258.539 292.546 255.073C292.546 251.604 295.367 248.784 298.835 248.784ZM186.578 222.357C186.578 221.969 186.598 221.584 186.608 221.195H255.426C258.9 221.195 261.715 218.38 261.715 214.906C261.715 211.433 258.9 208.617 255.426 208.617H188.652C194.528 189.647 212.233 175.831 233.107 175.831H273.677C277.146 175.831 279.966 178.651 279.966 182.12V255.073C279.966 258.539 277.146 261.362 273.677 261.362H192.87C192.87 261.362 192.867 261.362 192.865 261.362C189.398 261.362 186.578 258.539 186.578 255.073V222.357ZM208.052 273.94H222.443C219.421 275.665 216.505 277.554 213.7 279.588L208.052 273.94ZM275.883 369.521C275.883 382.618 265.292 393.282 252.228 393.412C252.147 393.41 252.065 393.4 251.984 393.4H251.26C238.416 393.015 228.086 382.456 228.086 369.521C228.086 369.092 228.042 368.669 227.961 368.264H276.008C275.927 368.669 275.883 369.092 275.883 369.521ZM212.201 355.685C213.759 345.694 219.006 336.668 227.111 330.303C227.13 330.291 227.147 330.274 227.167 330.261C234.306 324.665 242.887 321.705 251.984 321.705C272.05 321.705 288.734 336.457 291.763 355.685H212.201ZM441.914 193.845H448.203V206.423H441.914C438.445 206.423 435.625 203.603 435.625 200.134C435.625 196.668 438.445 193.845 441.914 193.845ZM349.465 205.397C349.465 203.316 351.157 201.623 353.238 201.623H367.094V206.045C367.094 207.116 367.202 208.16 367.406 209.17H353.238C351.157 209.17 349.465 207.477 349.465 205.397ZM391.899 209.17H382.797C381.075 209.17 379.672 207.77 379.672 206.045V194.685C379.672 192.963 381.075 191.561 382.797 191.561H419.922C421.644 191.561 423.047 192.963 423.047 194.685V206.045C423.047 207.77 421.644 209.17 419.922 209.17H391.899ZM469.586 369.521C469.586 382.618 458.995 393.282 445.931 393.412C445.85 393.41 445.769 393.4 445.688 393.4H444.963C432.119 393.015 421.789 382.456 421.789 369.521C421.789 364.525 423.347 359.695 426.216 355.666H465.159C468.028 359.695 469.586 364.525 469.586 369.521ZM411.326 343.088L435.308 300.374C459.799 300.823 479.963 319.31 483.019 343.088H411.326Z" fill="#35CD8C"/>
<path d="M391.899 265.867C395.372 265.867 398.188 263.052 398.188 259.578C398.188 256.104 395.372 253.289 391.899 253.289H391.877C388.403 253.289 385.597 256.104 385.597 259.578C385.597 263.052 388.425 265.867 391.899 265.867Z" fill="#35CD8C"/>
</svg>
