<svg width="390" height="380" viewBox="0 0 390 380" fill="none" xmlns="http://www.w3.org/2000/svg">
<rect width="390" height="380" fill="#FFEDDE"/>
<path d="M195.616 137.151C163.14 137.151 136.72 163.572 136.72 196.048C136.72 228.524 163.141 254.945 195.616 254.945C228.092 254.945 254.513 228.524 254.513 196.048C254.513 163.572 228.092 137.151 195.616 137.151ZM195.616 247.171C167.427 247.171 144.493 224.237 144.493 196.048C144.493 167.858 167.426 144.924 195.616 144.924C223.806 144.924 246.74 167.858 246.74 196.048C246.74 224.237 223.806 247.171 195.616 247.171Z" fill="#35CD8C"/>
<path d="M230.481 177.049C229.452 175.166 227.091 174.472 225.207 175.501C225.144 175.535 225.086 175.575 225.025 175.612C223.282 176.691 222.664 178.954 223.658 180.775C226.199 185.427 227.541 190.709 227.541 196.048C227.541 213.651 213.22 227.972 195.616 227.972C178.013 227.972 163.692 213.651 163.692 196.048C163.692 178.444 178.013 164.123 195.616 164.123C197.305 164.123 199.001 164.256 200.655 164.518C202.706 164.844 204.628 163.501 205.058 161.497C205.073 161.428 205.091 161.359 205.102 161.288C205.438 159.167 203.991 157.176 201.871 156.841C199.816 156.515 197.711 156.35 195.616 156.35C173.727 156.35 155.918 174.158 155.918 196.048C155.918 217.937 173.726 235.746 195.616 235.746C217.506 235.746 235.314 217.937 235.314 196.048C235.314 189.411 233.643 182.841 230.481 177.049Z" fill="#35CD8C"/>
<path d="M220.449 163.569C220.27 163.391 220.072 163.227 219.858 163.088C219.648 162.948 219.423 162.827 219.186 162.73C218.953 162.633 218.708 162.559 218.459 162.508C217.958 162.407 217.441 162.407 216.939 162.508C216.69 162.559 216.45 162.633 216.212 162.73C215.979 162.827 215.754 162.948 215.544 163.088C215.33 163.227 215.132 163.391 214.949 163.569C214.77 163.748 214.611 163.946 214.467 164.16C214.327 164.37 214.207 164.596 214.11 164.833C214.048 164.98 214 165.132 213.957 165.286C213.932 165.377 213.907 165.467 213.889 165.559C213.838 165.808 213.815 166.064 213.815 166.317C213.815 166.574 213.838 166.827 213.889 167.079C213.939 167.328 214.013 167.569 214.11 167.806C214.207 168.039 214.328 168.265 214.468 168.475C214.611 168.688 214.771 168.887 214.95 169.065C215.132 169.244 215.331 169.407 215.544 169.551C215.754 169.691 215.98 169.812 216.213 169.909C216.45 170.006 216.691 170.08 216.94 170.13C217.192 170.181 217.449 170.204 217.701 170.204C217.954 170.204 218.211 170.18 218.459 170.13C218.708 170.08 218.953 170.006 219.186 169.909C219.39 169.825 219.582 169.722 219.766 169.606C219.796 169.587 219.829 169.571 219.858 169.551C220.072 169.407 220.27 169.244 220.449 169.065C220.628 168.887 220.791 168.688 220.931 168.475C221.071 168.265 221.191 168.039 221.288 167.806C221.386 167.569 221.459 167.324 221.51 167.079C221.561 166.827 221.588 166.574 221.588 166.317C221.588 165.295 221.172 164.292 220.449 163.569Z" fill="#35CD8C"/>
<path d="M294.901 251.711L282.294 149.045C281.417 141.9 279.173 135.1 275.625 128.835C273.447 124.989 270.801 121.413 267.76 118.206L267.421 117.848C264.831 115.115 260.957 114.387 257.55 115.992C254.143 117.597 252.239 121.05 252.698 124.787L268.677 254.931C268.729 255.349 268.799 255.759 268.888 256.163C270.215 262.212 275.618 266.533 281.779 266.532C282.314 266.532 282.855 266.5 283.399 266.433C287.691 265.906 291.254 263.363 293.255 259.871C293.465 259.503 293.658 259.126 293.833 258.738C294.008 258.351 294.165 257.954 294.302 257.549C294.922 255.728 295.15 253.744 294.901 251.711ZM260.414 123.84C260.395 123.684 260.344 123.269 260.864 123.023C261.007 122.956 261.132 122.93 261.241 122.93C261.529 122.93 261.702 123.113 261.78 123.195L262.119 123.553C264.726 126.303 266.994 129.369 268.861 132.666C271.904 138.037 273.828 143.866 274.58 149.992L281.298 204.709L270.506 206.034L260.414 123.84ZM286.849 255.308C286.14 257.102 284.498 258.466 282.452 258.717C279.475 259.085 276.759 256.959 276.393 253.983L271.453 213.75L282.245 212.425L287.185 252.658C287.3 253.588 287.17 254.492 286.849 255.308Z" fill="#35CD8C"/>
<path d="M143.933 118.88C141.802 118.617 139.864 120.134 139.602 122.264L136.067 151.054C135.516 155.54 131.89 158.925 127.403 159.199L124.826 158.883L129.475 121.021C129.737 118.891 128.222 116.951 126.091 116.689C123.96 116.425 122.021 117.943 121.76 120.073L117.111 157.935L114.532 157.619C110.245 156.267 107.546 152.106 108.097 147.619L111.632 118.83C111.894 116.7 110.379 114.76 108.248 114.498C106.118 114.234 104.178 115.752 103.917 117.882L100.382 146.672C99.4974 153.875 103.174 160.628 109.375 163.868L96.1529 248.962C96.1513 248.972 96.1498 248.982 96.1482 248.991C95.6115 252.629 96.5431 256.243 98.7714 259.168C101 262.093 104.237 263.951 107.883 264.398L107.954 264.407C108.517 264.476 109.079 264.51 109.637 264.51C112.711 264.51 115.666 263.471 118.1 261.507C120.976 259.187 122.744 255.883 123.08 252.204L130.895 166.511C137.697 164.868 142.899 159.205 143.783 152.001L147.318 123.211C147.579 121.081 146.064 119.142 143.933 118.88ZM115.339 251.498C115.196 253.064 114.443 254.47 113.219 255.458C111.996 256.445 110.463 256.886 108.904 256.692L108.834 256.684C107.281 256.493 105.903 255.703 104.955 254.458C104.009 253.216 103.612 251.683 103.837 250.139L116.951 165.748L120.018 166.124C120.019 166.124 120.02 166.125 120.022 166.125C120.023 166.125 120.024 166.125 120.025 166.125L123.09 166.501L115.339 251.498Z" fill="#35CD8C"/>
</svg>
