<svg width="515" height="118" viewBox="0 0 515 118" fill="none" xmlns="http://www.w3.org/2000/svg">
<path d="M12.866 4.32V6.552H5.786V11.472H11.306V13.704H5.786V21H3.05V4.32H12.866ZM21.1376 21.216C19.8896 21.216 18.7616 20.936 17.7536 20.376C16.7456 19.8 15.9536 19 15.3776 17.976C14.8016 16.936 14.5136 15.736 14.5136 14.376C14.5136 13.032 14.8096 11.84 15.4016 10.8C15.9936 9.76 16.8016 8.96 17.8256 8.4C18.8496 7.84 19.9936 7.56 21.2576 7.56C22.5216 7.56 23.6656 7.84 24.6896 8.4C25.7136 8.96 26.5216 9.76 27.1136 10.8C27.7056 11.84 28.0016 13.032 28.0016 14.376C28.0016 15.72 27.6976 16.912 27.0896 17.952C26.4816 18.992 25.6496 19.8 24.5936 20.376C23.5536 20.936 22.4016 21.216 21.1376 21.216ZM21.1376 18.84C21.8416 18.84 22.4976 18.672 23.1056 18.336C23.7296 18 24.2336 17.496 24.6176 16.824C25.0016 16.152 25.1936 15.336 25.1936 14.376C25.1936 13.416 25.0096 12.608 24.6416 11.952C24.2736 11.28 23.7856 10.776 23.1776 10.44C22.5696 10.104 21.9136 9.936 21.2096 9.936C20.5056 9.936 19.8496 10.104 19.2416 10.44C18.6496 10.776 18.1776 11.28 17.8256 11.952C17.4736 12.608 17.2976 13.416 17.2976 14.376C17.2976 15.8 17.6576 16.904 18.3776 17.688C19.1136 18.456 20.0336 18.84 21.1376 18.84ZM36.4423 21.216C35.1943 21.216 34.0663 20.936 33.0583 20.376C32.0503 19.8 31.2583 19 30.6823 17.976C30.1063 16.936 29.8183 15.736 29.8183 14.376C29.8183 13.032 30.1143 11.84 30.7063 10.8C31.2983 9.76 32.1063 8.96 33.1303 8.4C34.1543 7.84 35.2983 7.56 36.5623 7.56C37.8263 7.56 38.9703 7.84 39.9943 8.4C41.0183 8.96 41.8263 9.76 42.4183 10.8C43.0103 11.84 43.3063 13.032 43.3063 14.376C43.3063 15.72 43.0023 16.912 42.3943 17.952C41.7863 18.992 40.9543 19.8 39.8983 20.376C38.8583 20.936 37.7063 21.216 36.4423 21.216ZM36.4423 18.84C37.1463 18.84 37.8023 18.672 38.4103 18.336C39.0343 18 39.5383 17.496 39.9223 16.824C40.3063 16.152 40.4983 15.336 40.4983 14.376C40.4983 13.416 40.3143 12.608 39.9463 11.952C39.5783 11.28 39.0903 10.776 38.4823 10.44C37.8743 10.104 37.2183 9.936 36.5143 9.936C35.8103 9.936 35.1543 10.104 34.5463 10.44C33.9543 10.776 33.4823 11.28 33.1303 11.952C32.7783 12.608 32.6023 13.416 32.6023 14.376C32.6023 15.8 32.9623 16.904 33.6823 17.688C34.4183 18.456 35.3383 18.84 36.4423 18.84ZM45.0989 14.328C45.0989 13 45.3709 11.824 45.9149 10.8C46.4749 9.776 47.2269 8.984 48.1709 8.424C49.1309 7.848 50.1949 7.56 51.3629 7.56C52.2269 7.56 53.0749 7.752 53.9069 8.136C54.7549 8.504 55.4269 9 55.9229 9.624V3.24H58.6829V21H55.9229V19.008C55.4749 19.648 54.8509 20.176 54.0509 20.592C53.2669 21.008 52.3629 21.216 51.3389 21.216C50.1869 21.216 49.1309 20.928 48.1709 20.352C47.2269 19.76 46.4749 18.944 45.9149 17.904C45.3709 16.848 45.0989 15.656 45.0989 14.328ZM55.9229 14.376C55.9229 13.464 55.7309 12.672 55.3469 12C54.9789 11.328 54.4909 10.816 53.8829 10.464C53.2749 10.112 52.6189 9.936 51.9149 9.936C51.2109 9.936 50.5549 10.112 49.9469 10.464C49.3389 10.8 48.8429 11.304 48.4589 11.976C48.0909 12.632 47.9069 13.416 47.9069 14.328C47.9069 15.24 48.0909 16.04 48.4589 16.728C48.8429 17.416 49.3389 17.944 49.9469 18.312C50.5709 18.664 51.2269 18.84 51.9149 18.84C52.6189 18.84 53.2749 18.664 53.8829 18.312C54.4909 17.96 54.9789 17.448 55.3469 16.776C55.7309 16.088 55.9229 15.288 55.9229 14.376ZM78.3269 4.32V6.552H71.2469V11.472H76.7669V13.704H71.2469V21H68.5109V4.32H78.3269ZM86.5985 21.216C85.3505 21.216 84.2225 20.936 83.2145 20.376C82.2065 19.8 81.4145 19 80.8385 17.976C80.2625 16.936 79.9745 15.736 79.9745 14.376C79.9745 13.032 80.2705 11.84 80.8625 10.8C81.4545 9.76 82.2625 8.96 83.2865 8.4C84.3105 7.84 85.4545 7.56 86.7185 7.56C87.9825 7.56 89.1265 7.84 90.1505 8.4C91.1745 8.96 91.9825 9.76 92.5745 10.8C93.1665 11.84 93.4625 13.032 93.4625 14.376C93.4625 15.72 93.1585 16.912 92.5505 17.952C91.9425 18.992 91.1105 19.8 90.0545 20.376C89.0145 20.936 87.8625 21.216 86.5985 21.216ZM86.5985 18.84C87.3025 18.84 87.9585 18.672 88.5665 18.336C89.1905 18 89.6945 17.496 90.0785 16.824C90.4625 16.152 90.6545 15.336 90.6545 14.376C90.6545 13.416 90.4705 12.608 90.1025 11.952C89.7345 11.28 89.2465 10.776 88.6385 10.44C88.0305 10.104 87.3745 9.936 86.6705 9.936C85.9665 9.936 85.3105 10.104 84.7025 10.44C84.1105 10.776 83.6385 11.28 83.2865 11.952C82.9345 12.608 82.7585 13.416 82.7585 14.376C82.7585 15.8 83.1185 16.904 83.8385 17.688C84.5745 18.456 85.4945 18.84 86.5985 18.84ZM98.9032 9.696C99.3032 9.024 99.8312 8.504 100.487 8.136C101.159 7.752 101.951 7.56 102.863 7.56V10.392H102.167C101.095 10.392 100.279 10.664 99.7192 11.208C99.1752 11.752 98.9032 12.696 98.9032 14.04V21H96.1672V7.776H98.9032V9.696ZM121.429 4.32V6.552H114.349V11.472H119.869V13.704H114.349V21H111.613V4.32H121.429ZM126.7 9.696C127.1 9.024 127.628 8.504 128.284 8.136C128.956 7.752 129.748 7.56 130.66 7.56V10.392H129.964C128.892 10.392 128.076 10.664 127.516 11.208C126.972 11.752 126.7 12.696 126.7 14.04V21H123.964V7.776H126.7V9.696ZM145.295 14.064C145.295 14.56 145.263 15.008 145.199 15.408H135.095C135.175 16.464 135.567 17.312 136.271 17.952C136.975 18.592 137.839 18.912 138.863 18.912C140.335 18.912 141.375 18.296 141.983 17.064H144.935C144.535 18.28 143.807 19.28 142.751 20.064C141.711 20.832 140.415 21.216 138.863 21.216C137.599 21.216 136.463 20.936 135.455 20.376C134.463 19.8 133.679 19 133.103 17.976C132.543 16.936 132.263 15.736 132.263 14.376C132.263 13.016 132.535 11.824 133.079 10.8C133.639 9.76 134.415 8.96 135.407 8.4C136.415 7.84 137.567 7.56 138.863 7.56C140.111 7.56 141.223 7.832 142.199 8.376C143.175 8.92 143.935 9.688 144.479 10.68C145.023 11.656 145.295 12.784 145.295 14.064ZM142.439 13.2C142.423 12.192 142.063 11.384 141.359 10.776C140.655 10.168 139.783 9.864 138.743 9.864C137.799 9.864 136.991 10.168 136.319 10.776C135.647 11.368 135.247 12.176 135.119 13.2H142.439ZM160.108 14.064C160.108 14.56 160.076 15.008 160.012 15.408H149.908C149.988 16.464 150.38 17.312 151.084 17.952C151.788 18.592 152.652 18.912 153.676 18.912C155.148 18.912 156.188 18.296 156.796 17.064H159.747C159.348 18.28 158.62 19.28 157.564 20.064C156.524 20.832 155.228 21.216 153.676 21.216C152.412 21.216 151.276 20.936 150.268 20.376C149.276 19.8 148.492 19 147.916 17.976C147.356 16.936 147.076 15.736 147.076 14.376C147.076 13.016 147.348 11.824 147.892 10.8C148.452 9.76 149.228 8.96 150.22 8.4C151.228 7.84 152.38 7.56 153.676 7.56C154.924 7.56 156.036 7.832 157.012 8.376C157.988 8.92 158.748 9.688 159.292 10.68C159.836 11.656 160.108 12.784 160.108 14.064ZM157.252 13.2C157.236 12.192 156.876 11.384 156.172 10.776C155.468 10.168 154.596 9.864 153.556 9.864C152.612 9.864 151.804 10.168 151.132 10.776C150.46 11.368 150.06 12.176 149.932 13.2H157.252ZM108.804 49.28C110.34 47.952 111.548 46.864 112.428 46.016C113.324 45.152 114.068 44.256 114.66 43.328C115.252 42.4 115.548 41.472 115.548 40.544C115.548 39.584 115.316 38.832 114.852 38.288C114.404 37.744 113.692 37.472 112.716 37.472C111.772 37.472 111.036 37.776 110.508 38.384C109.996 38.976 109.724 39.776 109.692 40.784H107.052C107.1 38.96 107.644 37.568 108.684 36.608C109.74 35.632 111.076 35.144 112.692 35.144C114.436 35.144 115.796 35.624 116.772 36.584C117.764 37.544 118.26 38.824 118.26 40.424C118.26 41.576 117.964 42.688 117.372 43.76C116.796 44.816 116.1 45.768 115.284 46.616C114.484 47.448 113.46 48.416 112.212 49.52L111.132 50.48H118.74V52.76H107.076V50.768L108.804 49.28ZM120.807 49.352V47.288L128.871 35.72H132.183V46.976H134.415V49.352H132.183V53H129.495V49.352H120.807ZM129.615 38.504L123.951 46.976H129.615V38.504ZM145.922 30.344L139.394 57.2H136.706L143.21 30.344H145.922ZM160.098 37.616L153.426 53H150.666L157.41 37.904H148.53V35.576H160.098V37.616Z" fill="#2E266F"/>
<rect x="1" y="45" width="84" height="3" fill="#35CD8C"/>
<path d="M2.352 88.964H5.768V90H1.078V80.242H2.352V88.964ZM10.467 90.126C9.7483 90.126 9.09497 89.9627 8.50697 89.636C7.9283 89.3093 7.47097 88.8473 7.13497 88.25C6.8083 87.6433 6.64497 86.9433 6.64497 86.15C6.64497 85.366 6.81297 84.6753 7.14897 84.078C7.4943 83.4713 7.96097 83.0093 8.54897 82.692C9.13697 82.3653 9.79497 82.202 10.523 82.202C11.251 82.202 11.909 82.3653 12.497 82.692C13.085 83.0093 13.547 83.4667 13.883 84.064C14.2283 84.6613 14.401 85.3567 14.401 86.15C14.401 86.9433 14.2236 87.6433 13.869 88.25C13.5236 88.8473 13.0523 89.3093 12.455 89.636C11.8576 89.9627 11.195 90.126 10.467 90.126ZM10.467 89.006C10.9243 89.006 11.3536 88.8987 11.755 88.684C12.1563 88.4693 12.4783 88.1473 12.721 87.718C12.973 87.2887 13.099 86.766 13.099 86.15C13.099 85.534 12.9776 85.0113 12.735 84.582C12.4923 84.1527 12.175 83.8353 11.783 83.63C11.391 83.4153 10.9663 83.308 10.509 83.308C10.0423 83.308 9.61297 83.4153 9.22097 83.63C8.8383 83.8353 8.5303 84.1527 8.29697 84.582C8.06364 85.0113 7.94697 85.534 7.94697 86.15C7.94697 86.7753 8.05897 87.3027 8.28297 87.732C8.5163 88.1613 8.8243 88.4833 9.20697 88.698C9.58964 88.9033 10.0096 89.006 10.467 89.006ZM17.35 83.574C17.574 83.1353 17.8914 82.7947 18.302 82.552C18.722 82.3093 19.2307 82.188 19.828 82.188V83.504H19.492C18.064 83.504 17.35 84.2787 17.35 85.828V90H16.076V82.328H17.35V83.574ZM28.2987 85.87C28.2987 86.1127 28.2847 86.3693 28.2567 86.64H22.1247C22.1714 87.396 22.428 87.9887 22.8947 88.418C23.3707 88.838 23.9447 89.048 24.6167 89.048C25.1674 89.048 25.6247 88.922 25.9887 88.67C26.362 88.4087 26.6234 88.0633 26.7727 87.634H28.1447C27.9394 88.3713 27.5287 88.9733 26.9127 89.44C26.2967 89.8973 25.5314 90.126 24.6167 90.126C23.8887 90.126 23.2354 89.9627 22.6567 89.636C22.0874 89.3093 21.6394 88.8473 21.3127 88.25C20.986 87.6433 20.8227 86.9433 20.8227 86.15C20.8227 85.3567 20.9814 84.6613 21.2987 84.064C21.616 83.4667 22.0594 83.0093 22.6287 82.692C23.2074 82.3653 23.87 82.202 24.6167 82.202C25.3447 82.202 25.9887 82.3607 26.5487 82.678C27.1087 82.9953 27.538 83.434 27.8367 83.994C28.1447 84.5447 28.2987 85.17 28.2987 85.87ZM26.9827 85.604C26.9827 85.1187 26.8754 84.7033 26.6607 84.358C26.446 84.0033 26.152 83.7373 25.7787 83.56C25.4147 83.3733 25.0087 83.28 24.5607 83.28C23.9167 83.28 23.366 83.4853 22.9087 83.896C22.4607 84.3067 22.204 84.876 22.1387 85.604H26.9827ZM39.2063 82.188C39.8037 82.188 40.3357 82.314 40.8023 82.566C41.269 82.8087 41.6377 83.1773 41.9083 83.672C42.179 84.1667 42.3143 84.7687 42.3143 85.478V90H41.0543V85.66C41.0543 84.8947 40.863 84.3113 40.4803 83.91C40.107 83.4993 39.5983 83.294 38.9543 83.294C38.2917 83.294 37.7643 83.5087 37.3723 83.938C36.9803 84.358 36.7843 84.9693 36.7843 85.772V90H35.5243V85.66C35.5243 84.8947 35.333 84.3113 34.9503 83.91C34.577 83.4993 34.0683 83.294 33.4243 83.294C32.7617 83.294 32.2343 83.5087 31.8423 83.938C31.4503 84.358 31.2543 84.9693 31.2543 85.772V90H29.9803V82.328H31.2543V83.434C31.5063 83.0327 31.8423 82.7247 32.2623 82.51C32.6917 82.2953 33.163 82.188 33.6763 82.188C34.3203 82.188 34.8897 82.3327 35.3843 82.622C35.879 82.9113 36.2477 83.336 36.4903 83.896C36.705 83.3547 37.0597 82.9347 37.5543 82.636C38.049 82.3373 38.5997 82.188 39.2063 82.188ZM49.4106 80.242V90H48.1366V80.242H49.4106ZM52.8559 83.742C53.1079 83.3033 53.4812 82.9393 53.9759 82.65C54.4799 82.3513 55.0632 82.202 55.7259 82.202C56.4072 82.202 57.0232 82.3653 57.5739 82.692C58.1339 83.0187 58.5726 83.4807 58.8899 84.078C59.2072 84.666 59.3659 85.352 59.3659 86.136C59.3659 86.9107 59.2072 87.6013 58.8899 88.208C58.5726 88.8147 58.1339 89.286 57.5739 89.622C57.0232 89.958 56.4072 90.126 55.7259 90.126C55.0726 90.126 54.4939 89.9813 53.9899 89.692C53.4952 89.3933 53.1172 89.0247 52.8559 88.586V93.64H51.5819V82.328H52.8559V83.742ZM58.0639 86.136C58.0639 85.5573 57.9472 85.0533 57.7139 84.624C57.4806 84.1947 57.1632 83.868 56.7619 83.644C56.3699 83.42 55.9359 83.308 55.4599 83.308C54.9932 83.308 54.5592 83.4247 54.1579 83.658C53.7659 83.882 53.4486 84.2133 53.2059 84.652C52.9726 85.0813 52.8559 85.5807 52.8559 86.15C52.8559 86.7287 52.9726 87.2373 53.2059 87.676C53.4486 88.1053 53.7659 88.4367 54.1579 88.67C54.5592 88.894 54.9932 89.006 55.4599 89.006C55.9359 89.006 56.3699 88.894 56.7619 88.67C57.1632 88.4367 57.4806 88.1053 57.7139 87.676C57.9472 87.2373 58.0639 86.724 58.0639 86.136ZM63.7588 90.126C63.1708 90.126 62.6435 90.028 62.1768 89.832C61.7102 89.6267 61.3415 89.3467 61.0708 88.992C60.8002 88.628 60.6508 88.2127 60.6228 87.746H61.9388C61.9762 88.1287 62.1535 88.4413 62.4708 88.684C62.7975 88.9267 63.2222 89.048 63.7448 89.048C64.2302 89.048 64.6128 88.9407 64.8928 88.726C65.1728 88.5113 65.3128 88.2407 65.3128 87.914C65.3128 87.578 65.1635 87.3307 64.8648 87.172C64.5662 87.004 64.1042 86.8407 63.4788 86.682C62.9095 86.5327 62.4428 86.3833 62.0788 86.234C61.7242 86.0753 61.4162 85.8467 61.1548 85.548C60.9028 85.24 60.7768 84.8387 60.7768 84.344C60.7768 83.952 60.8935 83.5927 61.1268 83.266C61.3602 82.9393 61.6915 82.6827 62.1208 82.496C62.5502 82.3 63.0402 82.202 63.5908 82.202C64.4402 82.202 65.1262 82.4167 65.6488 82.846C66.1715 83.2753 66.4515 83.8633 66.4888 84.61H65.2148C65.1868 84.2087 65.0235 83.8867 64.7248 83.644C64.4355 83.4013 64.0435 83.28 63.5488 83.28C63.0915 83.28 62.7275 83.378 62.4568 83.574C62.1862 83.77 62.0508 84.0267 62.0508 84.344C62.0508 84.596 62.1302 84.806 62.2888 84.974C62.4568 85.1327 62.6622 85.2633 62.9048 85.366C63.1568 85.4593 63.5022 85.5667 63.9408 85.688C64.4915 85.8373 64.9395 85.9867 65.2848 86.136C65.6302 86.276 65.9242 86.4907 66.1668 86.78C66.4188 87.0693 66.5495 87.4473 66.5588 87.914C66.5588 88.334 66.4422 88.712 66.2088 89.048C65.9755 89.384 65.6442 89.65 65.2148 89.846C64.7948 90.0327 64.3095 90.126 63.7588 90.126ZM75.1613 82.328V90H73.8873V88.866C73.6446 89.258 73.304 89.566 72.8653 89.79C72.436 90.0047 71.96 90.112 71.4373 90.112C70.84 90.112 70.3033 89.9907 69.8273 89.748C69.3513 89.496 68.9733 89.1227 68.6933 88.628C68.4226 88.1333 68.2873 87.5313 68.2873 86.822V82.328H69.5473V86.654C69.5473 87.41 69.7386 87.9933 70.1213 88.404C70.504 88.8053 71.0266 89.006 71.6893 89.006C72.3706 89.006 72.9073 88.796 73.2993 88.376C73.6913 87.956 73.8873 87.3447 73.8873 86.542V82.328H75.1613ZM86.5384 82.188C87.1357 82.188 87.6677 82.314 88.1344 82.566C88.601 82.8087 88.9697 83.1773 89.2404 83.672C89.511 84.1667 89.6464 84.7687 89.6464 85.478V90H88.3864V85.66C88.3864 84.8947 88.195 84.3113 87.8124 83.91C87.439 83.4993 86.9304 83.294 86.2864 83.294C85.6237 83.294 85.0964 83.5087 84.7044 83.938C84.3124 84.358 84.1164 84.9693 84.1164 85.772V90H82.8564V85.66C82.8564 84.8947 82.665 84.3113 82.2824 83.91C81.909 83.4993 81.4004 83.294 80.7564 83.294C80.0937 83.294 79.5664 83.5087 79.1744 83.938C78.7824 84.358 78.5864 84.9693 78.5864 85.772V90H77.3124V82.328H78.5864V83.434C78.8384 83.0327 79.1744 82.7247 79.5944 82.51C80.0237 82.2953 80.495 82.188 81.0084 82.188C81.6524 82.188 82.2217 82.3327 82.7164 82.622C83.211 82.9113 83.5797 83.336 83.8224 83.896C84.037 83.3547 84.3917 82.9347 84.8864 82.636C85.381 82.3373 85.9317 82.188 86.5384 82.188ZM98.5066 80.242C99.5706 80.242 100.49 80.4427 101.265 80.844C102.049 81.236 102.646 81.8007 103.057 82.538C103.477 83.2753 103.687 84.1433 103.687 85.142C103.687 86.1407 103.477 87.0087 103.057 87.746C102.646 88.474 102.049 89.034 101.265 89.426C100.49 89.8087 99.5706 90 98.5066 90H95.4686V80.242H98.5066ZM98.5066 88.95C99.7666 88.95 100.728 88.6187 101.391 87.956C102.053 87.284 102.385 86.346 102.385 85.142C102.385 83.9287 102.049 82.9813 101.377 82.3C100.714 81.6187 99.7573 81.278 98.5066 81.278H96.7426V88.95H98.5066ZM108.713 90.126C107.994 90.126 107.341 89.9627 106.753 89.636C106.174 89.3093 105.717 88.8473 105.381 88.25C105.054 87.6433 104.891 86.9433 104.891 86.15C104.891 85.366 105.059 84.6753 105.395 84.078C105.74 83.4713 106.207 83.0093 106.795 82.692C107.383 82.3653 108.041 82.202 108.769 82.202C109.497 82.202 110.155 82.3653 110.743 82.692C111.331 83.0093 111.793 83.4667 112.129 84.064C112.474 84.6613 112.647 85.3567 112.647 86.15C112.647 86.9433 112.47 87.6433 112.115 88.25C111.77 88.8473 111.298 89.3093 110.701 89.636C110.104 89.9627 109.441 90.126 108.713 90.126ZM108.713 89.006C109.17 89.006 109.6 88.8987 110.001 88.684C110.402 88.4693 110.724 88.1473 110.967 87.718C111.219 87.2887 111.345 86.766 111.345 86.15C111.345 85.534 111.224 85.0113 110.981 84.582C110.738 84.1527 110.421 83.8353 110.029 83.63C109.637 83.4153 109.212 83.308 108.755 83.308C108.288 83.308 107.859 83.4153 107.467 83.63C107.084 83.8353 106.776 84.1527 106.543 84.582C106.31 85.0113 106.193 85.534 106.193 86.15C106.193 86.7753 106.305 87.3027 106.529 87.732C106.762 88.1613 107.07 88.4833 107.453 88.698C107.836 88.9033 108.256 89.006 108.713 89.006ZM115.596 79.64V90H114.322V79.64H115.596ZM121.113 90.126C120.395 90.126 119.741 89.9627 119.153 89.636C118.575 89.3093 118.117 88.8473 117.781 88.25C117.455 87.6433 117.291 86.9433 117.291 86.15C117.291 85.366 117.459 84.6753 117.795 84.078C118.141 83.4713 118.607 83.0093 119.195 82.692C119.783 82.3653 120.441 82.202 121.169 82.202C121.897 82.202 122.555 82.3653 123.143 82.692C123.731 83.0093 124.193 83.4667 124.529 84.064C124.875 84.6613 125.047 85.3567 125.047 86.15C125.047 86.9433 124.87 87.6433 124.515 88.25C124.17 88.8473 123.699 89.3093 123.101 89.636C122.504 89.9627 121.841 90.126 121.113 90.126ZM121.113 89.006C121.571 89.006 122 88.8987 122.401 88.684C122.803 88.4693 123.125 88.1473 123.367 87.718C123.619 87.2887 123.745 86.766 123.745 86.15C123.745 85.534 123.624 85.0113 123.381 84.582C123.139 84.1527 122.821 83.8353 122.429 83.63C122.037 83.4153 121.613 83.308 121.155 83.308C120.689 83.308 120.259 83.4153 119.867 83.63C119.485 83.8353 119.177 84.1527 118.943 84.582C118.71 85.0113 118.593 85.534 118.593 86.15C118.593 86.7753 118.705 87.3027 118.929 87.732C119.163 88.1613 119.471 88.4833 119.853 88.698C120.236 88.9033 120.656 89.006 121.113 89.006ZM127.997 83.574C128.221 83.1353 128.538 82.7947 128.949 82.552C129.369 82.3093 129.877 82.188 130.475 82.188V83.504H130.139C128.711 83.504 127.997 84.2787 127.997 85.828V90H126.723V82.328H127.997V83.574ZM138.772 90.098C138.128 90.098 137.549 89.986 137.036 89.762C136.532 89.5287 136.135 89.2113 135.846 88.81C135.556 88.3993 135.407 87.928 135.398 87.396H136.756C136.802 87.8533 136.989 88.2407 137.316 88.558C137.652 88.866 138.137 89.02 138.772 89.02C139.378 89.02 139.854 88.8707 140.2 88.572C140.554 88.264 140.732 87.872 140.732 87.396C140.732 87.0227 140.629 86.7193 140.424 86.486C140.218 86.2527 139.962 86.0753 139.654 85.954C139.346 85.8327 138.93 85.702 138.408 85.562C137.764 85.394 137.246 85.226 136.854 85.058C136.471 84.89 136.14 84.6287 135.86 84.274C135.589 83.91 135.454 83.4247 135.454 82.818C135.454 82.286 135.589 81.8147 135.86 81.404C136.13 80.9933 136.508 80.676 136.994 80.452C137.488 80.228 138.053 80.116 138.688 80.116C139.602 80.116 140.349 80.3447 140.928 80.802C141.516 81.2593 141.847 81.866 141.922 82.622H140.522C140.475 82.2487 140.279 81.922 139.934 81.642C139.588 81.3527 139.131 81.208 138.562 81.208C138.03 81.208 137.596 81.348 137.26 81.628C136.924 81.8987 136.756 82.2813 136.756 82.776C136.756 83.1307 136.854 83.42 137.05 83.644C137.255 83.868 137.502 84.0407 137.792 84.162C138.09 84.274 138.506 84.4047 139.038 84.554C139.682 84.7313 140.2 84.9087 140.592 85.086C140.984 85.254 141.32 85.52 141.6 85.884C141.88 86.2387 142.02 86.724 142.02 87.34C142.02 87.816 141.894 88.264 141.642 88.684C141.39 89.104 141.016 89.4447 140.522 89.706C140.027 89.9673 139.444 90.098 138.772 90.098ZM144.552 81.082C144.31 81.082 144.104 80.998 143.936 80.83C143.768 80.662 143.684 80.4567 143.684 80.214C143.684 79.9713 143.768 79.766 143.936 79.598C144.104 79.43 144.31 79.346 144.552 79.346C144.786 79.346 144.982 79.43 145.14 79.598C145.308 79.766 145.392 79.9713 145.392 80.214C145.392 80.4567 145.308 80.662 145.14 80.83C144.982 80.998 144.786 81.082 144.552 81.082ZM145.168 82.328V90H143.894V82.328H145.168ZM148.894 83.378V87.9C148.894 88.2733 148.973 88.5393 149.132 88.698C149.29 88.8473 149.566 88.922 149.958 88.922H150.896V90H149.748C149.038 90 148.506 89.8367 148.152 89.51C147.797 89.1833 147.62 88.6467 147.62 87.9V83.378H146.626V82.328H147.62V80.396H148.894V82.328H150.896V83.378H148.894ZM161.94 87.83H157.684L156.9 90H155.556L159.084 80.298H160.554L164.068 90H162.724L161.94 87.83ZM161.576 86.794L159.812 81.866L158.048 86.794H161.576ZM174.831 82.188C175.429 82.188 175.961 82.314 176.427 82.566C176.894 82.8087 177.263 83.1773 177.533 83.672C177.804 84.1667 177.939 84.7687 177.939 85.478V90H176.679V85.66C176.679 84.8947 176.488 84.3113 176.105 83.91C175.732 83.4993 175.223 83.294 174.579 83.294C173.917 83.294 173.389 83.5087 172.997 83.938C172.605 84.358 172.409 84.9693 172.409 85.772V90H171.149V85.66C171.149 84.8947 170.958 84.3113 170.575 83.91C170.202 83.4993 169.693 83.294 169.049 83.294C168.387 83.294 167.859 83.5087 167.467 83.938C167.075 84.358 166.879 84.9693 166.879 85.772V90H165.605V82.328H166.879V83.434C167.131 83.0327 167.467 82.7247 167.887 82.51C168.317 82.2953 168.788 82.188 169.301 82.188C169.945 82.188 170.515 82.3327 171.009 82.622C171.504 82.9113 171.873 83.336 172.115 83.896C172.33 83.3547 172.685 82.9347 173.179 82.636C173.674 82.3373 174.225 82.188 174.831 82.188ZM187.029 85.87C187.029 86.1127 187.015 86.3693 186.987 86.64H180.855C180.902 87.396 181.159 87.9887 181.625 88.418C182.101 88.838 182.675 89.048 183.347 89.048C183.898 89.048 184.355 88.922 184.719 88.67C185.093 88.4087 185.354 88.0633 185.503 87.634H186.875C186.67 88.3713 186.259 88.9733 185.643 89.44C185.027 89.8973 184.262 90.126 183.347 90.126C182.619 90.126 181.966 89.9627 181.387 89.636C180.818 89.3093 180.37 88.8473 180.043 88.25C179.717 87.6433 179.553 86.9433 179.553 86.15C179.553 85.3567 179.712 84.6613 180.029 84.064C180.347 83.4667 180.79 83.0093 181.359 82.692C181.938 82.3653 182.601 82.202 183.347 82.202C184.075 82.202 184.719 82.3607 185.279 82.678C185.839 82.9953 186.269 83.434 186.567 83.994C186.875 84.5447 187.029 85.17 187.029 85.87ZM185.713 85.604C185.713 85.1187 185.606 84.7033 185.391 84.358C185.177 84.0033 184.883 83.7373 184.509 83.56C184.145 83.3733 183.739 83.28 183.291 83.28C182.647 83.28 182.097 83.4853 181.639 83.896C181.191 84.3067 180.935 84.876 180.869 85.604H185.713ZM190.265 83.378V87.9C190.265 88.2733 190.344 88.5393 190.503 88.698C190.661 88.8473 190.937 88.922 191.329 88.922H192.267V90H191.119C190.409 90 189.877 89.8367 189.523 89.51C189.168 89.1833 188.991 88.6467 188.991 87.9V83.378H187.997V82.328H188.991V80.396H190.265V82.328H192.267V83.378H190.265ZM195.126 88.236L193.558 92.002H192.704L193.726 88.236H195.126ZM0.602 109.114C0.602 108.162 0.816667 107.308 1.246 106.552C1.67533 105.787 2.25867 105.189 2.996 104.76C3.74267 104.331 4.56867 104.116 5.474 104.116C6.538 104.116 7.46667 104.373 8.26 104.886C9.05333 105.399 9.632 106.127 9.996 107.07H8.47C8.19933 106.482 7.80733 106.029 7.294 105.712C6.79 105.395 6.18333 105.236 5.474 105.236C4.79267 105.236 4.18133 105.395 3.64 105.712C3.09867 106.029 2.674 106.482 2.366 107.07C2.058 107.649 1.904 108.33 1.904 109.114C1.904 109.889 2.058 110.57 2.366 111.158C2.674 111.737 3.09867 112.185 3.64 112.502C4.18133 112.819 4.79267 112.978 5.474 112.978C6.18333 112.978 6.79 112.824 7.294 112.516C7.80733 112.199 8.19933 111.746 8.47 111.158H9.996C9.632 112.091 9.05333 112.815 8.26 113.328C7.46667 113.832 6.538 114.084 5.474 114.084C4.56867 114.084 3.74267 113.874 2.996 113.454C2.25867 113.025 1.67533 112.432 1.246 111.676C0.816667 110.92 0.602 110.066 0.602 109.114ZM15.2385 114.126C14.5198 114.126 13.8665 113.963 13.2785 113.636C12.6998 113.309 12.2425 112.847 11.9065 112.25C11.5798 111.643 11.4165 110.943 11.4165 110.15C11.4165 109.366 11.5845 108.675 11.9205 108.078C12.2658 107.471 12.7325 107.009 13.3205 106.692C13.9085 106.365 14.5665 106.202 15.2945 106.202C16.0225 106.202 16.6805 106.365 17.2685 106.692C17.8565 107.009 18.3185 107.467 18.6545 108.064C18.9998 108.661 19.1725 109.357 19.1725 110.15C19.1725 110.943 18.9951 111.643 18.6405 112.25C18.2951 112.847 17.8238 113.309 17.2265 113.636C16.6291 113.963 15.9665 114.126 15.2385 114.126ZM15.2385 113.006C15.6958 113.006 16.1251 112.899 16.5265 112.684C16.9278 112.469 17.2498 112.147 17.4925 111.718C17.7445 111.289 17.8705 110.766 17.8705 110.15C17.8705 109.534 17.7491 109.011 17.5065 108.582C17.2638 108.153 16.9465 107.835 16.5545 107.63C16.1625 107.415 15.7378 107.308 15.2805 107.308C14.8138 107.308 14.3845 107.415 13.9925 107.63C13.6098 107.835 13.3018 108.153 13.0685 108.582C12.8351 109.011 12.7185 109.534 12.7185 110.15C12.7185 110.775 12.8305 111.303 13.0545 111.732C13.2878 112.161 13.5958 112.483 13.9785 112.698C14.3611 112.903 14.7811 113.006 15.2385 113.006ZM24.5855 106.188C25.5189 106.188 26.2749 106.473 26.8535 107.042C27.4322 107.602 27.7215 108.414 27.7215 109.478V114H26.4615V109.66C26.4615 108.895 26.2702 108.311 25.8875 107.91C25.5049 107.499 24.9822 107.294 24.3195 107.294C23.6475 107.294 23.1109 107.504 22.7095 107.924C22.3175 108.344 22.1215 108.955 22.1215 109.758V114H20.8475V106.328H22.1215V107.42C22.3735 107.028 22.7142 106.725 23.1435 106.51C23.5822 106.295 24.0629 106.188 24.5855 106.188ZM32.5186 114.126C31.9306 114.126 31.4033 114.028 30.9366 113.832C30.4699 113.627 30.1013 113.347 29.8306 112.992C29.5599 112.628 29.4106 112.213 29.3826 111.746H30.6986C30.7359 112.129 30.9133 112.441 31.2306 112.684C31.5573 112.927 31.9819 113.048 32.5046 113.048C32.9899 113.048 33.3726 112.941 33.6526 112.726C33.9326 112.511 34.0726 112.241 34.0726 111.914C34.0726 111.578 33.9233 111.331 33.6246 111.172C33.3259 111.004 32.8639 110.841 32.2386 110.682C31.6693 110.533 31.2026 110.383 30.8386 110.234C30.4839 110.075 30.1759 109.847 29.9146 109.548C29.6626 109.24 29.5366 108.839 29.5366 108.344C29.5366 107.952 29.6533 107.593 29.8866 107.266C30.1199 106.939 30.4513 106.683 30.8806 106.496C31.3099 106.3 31.7999 106.202 32.3506 106.202C33.1999 106.202 33.8859 106.417 34.4086 106.846C34.9313 107.275 35.2113 107.863 35.2486 108.61H33.9746C33.9466 108.209 33.7833 107.887 33.4846 107.644C33.1953 107.401 32.8033 107.28 32.3086 107.28C31.8513 107.28 31.4873 107.378 31.2166 107.574C30.9459 107.77 30.8106 108.027 30.8106 108.344C30.8106 108.596 30.8899 108.806 31.0486 108.974C31.2166 109.133 31.4219 109.263 31.6646 109.366C31.9166 109.459 32.2619 109.567 32.7006 109.688C33.2513 109.837 33.6993 109.987 34.0446 110.136C34.3899 110.276 34.6839 110.491 34.9266 110.78C35.1786 111.069 35.3093 111.447 35.3186 111.914C35.3186 112.334 35.2019 112.712 34.9686 113.048C34.7353 113.384 34.4039 113.65 33.9746 113.846C33.5546 114.033 33.0693 114.126 32.5186 114.126ZM44.1171 109.87C44.1171 110.113 44.1031 110.369 44.0751 110.64H37.9431C37.9897 111.396 38.2464 111.989 38.7131 112.418C39.1891 112.838 39.7631 113.048 40.4351 113.048C40.9857 113.048 41.4431 112.922 41.8071 112.67C42.1804 112.409 42.4417 112.063 42.5911 111.634H43.9631C43.7577 112.371 43.3471 112.973 42.7311 113.44C42.1151 113.897 41.3497 114.126 40.4351 114.126C39.7071 114.126 39.0537 113.963 38.4751 113.636C37.9057 113.309 37.4577 112.847 37.1311 112.25C36.8044 111.643 36.6411 110.943 36.6411 110.15C36.6411 109.357 36.7997 108.661 37.1171 108.064C37.4344 107.467 37.8777 107.009 38.4471 106.692C39.0257 106.365 39.6884 106.202 40.4351 106.202C41.1631 106.202 41.8071 106.361 42.3671 106.678C42.9271 106.995 43.3564 107.434 43.6551 107.994C43.9631 108.545 44.1171 109.17 44.1171 109.87ZM42.8011 109.604C42.8011 109.119 42.6937 108.703 42.4791 108.358C42.2644 108.003 41.9704 107.737 41.5971 107.56C41.2331 107.373 40.8271 107.28 40.3791 107.28C39.7351 107.28 39.1844 107.485 38.7271 107.896C38.2791 108.307 38.0224 108.876 37.9571 109.604H42.8011ZM45.3227 110.15C45.3227 109.357 45.4814 108.666 45.7987 108.078C46.116 107.481 46.5547 107.019 47.1147 106.692C47.684 106.365 48.3327 106.202 49.0607 106.202C50.0034 106.202 50.778 106.431 51.3847 106.888C52.0007 107.345 52.4067 107.98 52.6027 108.792H51.2307C51.1 108.325 50.8434 107.957 50.4607 107.686C50.0874 107.415 49.6207 107.28 49.0607 107.28C48.3327 107.28 47.7447 107.532 47.2967 108.036C46.8487 108.531 46.6247 109.235 46.6247 110.15C46.6247 111.074 46.8487 111.788 47.2967 112.292C47.7447 112.796 48.3327 113.048 49.0607 113.048C49.6207 113.048 50.0874 112.917 50.4607 112.656C50.834 112.395 51.0907 112.021 51.2307 111.536H52.6027C52.3974 112.32 51.9867 112.95 51.3707 113.426C50.7547 113.893 49.9847 114.126 49.0607 114.126C48.3327 114.126 47.684 113.963 47.1147 113.636C46.5547 113.309 46.116 112.847 45.7987 112.25C45.4814 111.653 45.3227 110.953 45.3227 110.15ZM55.8566 107.378V111.9C55.8566 112.273 55.9359 112.539 56.0946 112.698C56.2533 112.847 56.5286 112.922 56.9206 112.922H57.8586V114H56.7106C56.0013 114 55.4693 113.837 55.1146 113.51C54.7599 113.183 54.5826 112.647 54.5826 111.9V107.378H53.5886V106.328H54.5826V104.396H55.8566V106.328H57.8586V107.378H55.8566ZM66.4022 109.87C66.4022 110.113 66.3882 110.369 66.3602 110.64H60.2282C60.2749 111.396 60.5316 111.989 60.9982 112.418C61.4742 112.838 62.0482 113.048 62.7202 113.048C63.2709 113.048 63.7282 112.922 64.0922 112.67C64.4656 112.409 64.7269 112.063 64.8762 111.634H66.2482C66.0429 112.371 65.6322 112.973 65.0162 113.44C64.4002 113.897 63.6349 114.126 62.7202 114.126C61.9922 114.126 61.3389 113.963 60.7602 113.636C60.1909 113.309 59.7429 112.847 59.4162 112.25C59.0896 111.643 58.9262 110.943 58.9262 110.15C58.9262 109.357 59.0849 108.661 59.4022 108.064C59.7196 107.467 60.1629 107.009 60.7322 106.692C61.3109 106.365 61.9736 106.202 62.7202 106.202C63.4482 106.202 64.0922 106.361 64.6522 106.678C65.2122 106.995 65.6416 107.434 65.9402 107.994C66.2482 108.545 66.4022 109.17 66.4022 109.87ZM65.0862 109.604C65.0862 109.119 64.9789 108.703 64.7642 108.358C64.5496 108.003 64.2556 107.737 63.8822 107.56C63.5182 107.373 63.1122 107.28 62.6642 107.28C62.0202 107.28 61.4696 107.485 61.0122 107.896C60.5642 108.307 60.3076 108.876 60.2422 109.604H65.0862ZM69.6379 107.378V111.9C69.6379 112.273 69.7172 112.539 69.8759 112.698C70.0345 112.847 70.3099 112.922 70.7019 112.922H71.6399V114H70.4919C69.7825 114 69.2505 113.837 68.8959 113.51C68.5412 113.183 68.3639 112.647 68.3639 111.9V107.378H67.3699V106.328H68.3639V104.396H69.6379V106.328H71.6399V107.378H69.6379ZM79.9875 106.328V114H78.7135V112.866C78.4708 113.258 78.1301 113.566 77.6915 113.79C77.2621 114.005 76.7861 114.112 76.2635 114.112C75.6661 114.112 75.1295 113.991 74.6535 113.748C74.1775 113.496 73.7995 113.123 73.5195 112.628C73.2488 112.133 73.1135 111.531 73.1135 110.822V106.328H74.3735V110.654C74.3735 111.41 74.5648 111.993 74.9475 112.404C75.3301 112.805 75.8528 113.006 76.5155 113.006C77.1968 113.006 77.7335 112.796 78.1255 112.376C78.5175 111.956 78.7135 111.345 78.7135 110.542V106.328H79.9875ZM83.4125 107.574C83.6365 107.135 83.9539 106.795 84.3645 106.552C84.7845 106.309 85.2932 106.188 85.8905 106.188V107.504H85.5545C84.1265 107.504 83.4125 108.279 83.4125 109.828V114H82.1385V106.328H83.4125V107.574ZM96.8616 111.83H92.6056L91.8216 114H90.4776L94.0056 104.298H95.4756L98.9896 114H97.6456L96.8616 111.83ZM96.4976 110.794L94.7336 105.866L92.9696 110.794H96.4976ZM100.051 110.136C100.051 109.352 100.21 108.666 100.527 108.078C100.845 107.481 101.279 107.019 101.829 106.692C102.389 106.365 103.015 106.202 103.705 106.202C104.303 106.202 104.858 106.342 105.371 106.622C105.885 106.893 106.277 107.252 106.547 107.7V103.64H107.835V114H106.547V112.558C106.295 113.015 105.922 113.393 105.427 113.692C104.933 113.981 104.354 114.126 103.691 114.126C103.01 114.126 102.389 113.958 101.829 113.622C101.279 113.286 100.845 112.815 100.527 112.208C100.21 111.601 100.051 110.911 100.051 110.136ZM106.547 110.15C106.547 109.571 106.431 109.067 106.197 108.638C105.964 108.209 105.647 107.882 105.245 107.658C104.853 107.425 104.419 107.308 103.943 107.308C103.467 107.308 103.033 107.42 102.641 107.644C102.249 107.868 101.937 108.195 101.703 108.624C101.47 109.053 101.353 109.557 101.353 110.136C101.353 110.724 101.47 111.237 101.703 111.676C101.937 112.105 102.249 112.437 102.641 112.67C103.033 112.894 103.467 113.006 103.943 113.006C104.419 113.006 104.853 112.894 105.245 112.67C105.647 112.437 105.964 112.105 106.197 111.676C106.431 111.237 106.547 110.729 106.547 110.15ZM110.646 105.082C110.403 105.082 110.198 104.998 110.03 104.83C109.862 104.662 109.778 104.457 109.778 104.214C109.778 103.971 109.862 103.766 110.03 103.598C110.198 103.43 110.403 103.346 110.646 103.346C110.879 103.346 111.075 103.43 111.234 103.598C111.402 103.766 111.486 103.971 111.486 104.214C111.486 104.457 111.402 104.662 111.234 104.83C111.075 104.998 110.879 105.082 110.646 105.082ZM111.262 106.328V114H109.988V106.328H111.262ZM114.707 107.742C114.959 107.303 115.333 106.939 115.827 106.65C116.331 106.351 116.915 106.202 117.577 106.202C118.259 106.202 118.875 106.365 119.425 106.692C119.985 107.019 120.424 107.481 120.741 108.078C121.059 108.666 121.217 109.352 121.217 110.136C121.217 110.911 121.059 111.601 120.741 112.208C120.424 112.815 119.985 113.286 119.425 113.622C118.875 113.958 118.259 114.126 117.577 114.126C116.924 114.126 116.345 113.981 115.841 113.692C115.347 113.393 114.969 113.025 114.707 112.586V117.64H113.433V106.328H114.707V107.742ZM119.915 110.136C119.915 109.557 119.799 109.053 119.565 108.624C119.332 108.195 119.015 107.868 118.613 107.644C118.221 107.42 117.787 107.308 117.311 107.308C116.845 107.308 116.411 107.425 116.009 107.658C115.617 107.882 115.3 108.213 115.057 108.652C114.824 109.081 114.707 109.581 114.707 110.15C114.707 110.729 114.824 111.237 115.057 111.676C115.3 112.105 115.617 112.437 116.009 112.67C116.411 112.894 116.845 113.006 117.311 113.006C117.787 113.006 118.221 112.894 118.613 112.67C119.015 112.437 119.332 112.105 119.565 111.676C119.799 111.237 119.915 110.724 119.915 110.136ZM123.552 105.082C123.31 105.082 123.104 104.998 122.936 104.83C122.768 104.662 122.684 104.457 122.684 104.214C122.684 103.971 122.768 103.766 122.936 103.598C123.104 103.43 123.31 103.346 123.552 103.346C123.786 103.346 123.982 103.43 124.14 103.598C124.308 103.766 124.392 103.971 124.392 104.214C124.392 104.457 124.308 104.662 124.14 104.83C123.982 104.998 123.786 105.082 123.552 105.082ZM124.168 106.328V114H122.894V106.328H124.168ZM129.056 114.126C128.468 114.126 127.94 114.028 127.474 113.832C127.007 113.627 126.638 113.347 126.368 112.992C126.097 112.628 125.948 112.213 125.92 111.746H127.236C127.273 112.129 127.45 112.441 127.768 112.684C128.094 112.927 128.519 113.048 129.042 113.048C129.527 113.048 129.91 112.941 130.19 112.726C130.47 112.511 130.61 112.241 130.61 111.914C130.61 111.578 130.46 111.331 130.162 111.172C129.863 111.004 129.401 110.841 128.776 110.682C128.206 110.533 127.74 110.383 127.376 110.234C127.021 110.075 126.713 109.847 126.452 109.548C126.2 109.24 126.074 108.839 126.074 108.344C126.074 107.952 126.19 107.593 126.424 107.266C126.657 106.939 126.988 106.683 127.418 106.496C127.847 106.3 128.337 106.202 128.888 106.202C129.737 106.202 130.423 106.417 130.946 106.846C131.468 107.275 131.748 107.863 131.786 108.61H130.512C130.484 108.209 130.32 107.887 130.022 107.644C129.732 107.401 129.34 107.28 128.846 107.28C128.388 107.28 128.024 107.378 127.754 107.574C127.483 107.77 127.348 108.027 127.348 108.344C127.348 108.596 127.427 108.806 127.586 108.974C127.754 109.133 127.959 109.263 128.202 109.366C128.454 109.459 128.799 109.567 129.238 109.688C129.788 109.837 130.236 109.987 130.582 110.136C130.927 110.276 131.221 110.491 131.464 110.78C131.716 111.069 131.846 111.447 131.856 111.914C131.856 112.334 131.739 112.712 131.506 113.048C131.272 113.384 130.941 113.65 130.512 113.846C130.092 114.033 129.606 114.126 129.056 114.126ZM133.178 110.15C133.178 109.357 133.337 108.666 133.654 108.078C133.972 107.481 134.41 107.019 134.97 106.692C135.54 106.365 136.188 106.202 136.916 106.202C137.859 106.202 138.634 106.431 139.24 106.888C139.856 107.345 140.262 107.98 140.458 108.792H139.086C138.956 108.325 138.699 107.957 138.316 107.686C137.943 107.415 137.476 107.28 136.916 107.28C136.188 107.28 135.6 107.532 135.152 108.036C134.704 108.531 134.48 109.235 134.48 110.15C134.48 111.074 134.704 111.788 135.152 112.292C135.6 112.796 136.188 113.048 136.916 113.048C137.476 113.048 137.943 112.917 138.316 112.656C138.69 112.395 138.946 112.021 139.086 111.536H140.458C140.253 112.32 139.842 112.95 139.226 113.426C138.61 113.893 137.84 114.126 136.916 114.126C136.188 114.126 135.54 113.963 134.97 113.636C134.41 113.309 133.972 112.847 133.654 112.25C133.337 111.653 133.178 110.953 133.178 110.15ZM142.816 105.082C142.573 105.082 142.368 104.998 142.2 104.83C142.032 104.662 141.948 104.457 141.948 104.214C141.948 103.971 142.032 103.766 142.2 103.598C142.368 103.43 142.573 103.346 142.816 103.346C143.049 103.346 143.245 103.43 143.404 103.598C143.572 103.766 143.656 103.971 143.656 104.214C143.656 104.457 143.572 104.662 143.404 104.83C143.245 104.998 143.049 105.082 142.816 105.082ZM143.432 106.328V114H142.158V106.328H143.432ZM149.341 106.188C150.275 106.188 151.031 106.473 151.609 107.042C152.188 107.602 152.477 108.414 152.477 109.478V114H151.217V109.66C151.217 108.895 151.026 108.311 150.643 107.91C150.261 107.499 149.738 107.294 149.075 107.294C148.403 107.294 147.867 107.504 147.465 107.924C147.073 108.344 146.877 108.955 146.877 109.758V114H145.603V106.328H146.877V107.42C147.129 107.028 147.47 106.725 147.899 106.51C148.338 106.295 148.819 106.188 149.341 106.188ZM157.722 106.202C158.385 106.202 158.964 106.347 159.458 106.636C159.962 106.925 160.336 107.289 160.578 107.728V106.328H161.866V114.168C161.866 114.868 161.717 115.489 161.418 116.03C161.12 116.581 160.69 117.01 160.13 117.318C159.58 117.626 158.936 117.78 158.198 117.78C157.19 117.78 156.35 117.542 155.678 117.066C155.006 116.59 154.61 115.941 154.488 115.12H155.748C155.888 115.587 156.178 115.96 156.616 116.24C157.055 116.529 157.582 116.674 158.198 116.674C158.898 116.674 159.468 116.455 159.906 116.016C160.354 115.577 160.578 114.961 160.578 114.168V112.558C160.326 113.006 159.953 113.379 159.458 113.678C158.964 113.977 158.385 114.126 157.722 114.126C157.041 114.126 156.42 113.958 155.86 113.622C155.31 113.286 154.876 112.815 154.558 112.208C154.241 111.601 154.082 110.911 154.082 110.136C154.082 109.352 154.241 108.666 154.558 108.078C154.876 107.481 155.31 107.019 155.86 106.692C156.42 106.365 157.041 106.202 157.722 106.202ZM160.578 110.15C160.578 109.571 160.462 109.067 160.228 108.638C159.995 108.209 159.678 107.882 159.276 107.658C158.884 107.425 158.45 107.308 157.974 107.308C157.498 107.308 157.064 107.42 156.672 107.644C156.28 107.868 155.968 108.195 155.734 108.624C155.501 109.053 155.384 109.557 155.384 110.136C155.384 110.724 155.501 111.237 155.734 111.676C155.968 112.105 156.28 112.437 156.672 112.67C157.064 112.894 157.498 113.006 157.974 113.006C158.45 113.006 158.884 112.894 159.276 112.67C159.678 112.437 159.995 112.105 160.228 111.676C160.462 111.237 160.578 110.729 160.578 110.15ZM169.026 105.278V108.54H172.582V109.59H169.026V112.95H173.002V114H167.752V104.228H173.002V105.278H169.026ZM176.204 103.64V114H174.93V103.64H176.204ZM179.033 105.082C178.79 105.082 178.585 104.998 178.417 104.83C178.249 104.662 178.165 104.457 178.165 104.214C178.165 103.971 178.249 103.766 178.417 103.598C178.585 103.43 178.79 103.346 179.033 103.346C179.266 103.346 179.462 103.43 179.621 103.598C179.789 103.766 179.873 103.971 179.873 104.214C179.873 104.457 179.789 104.662 179.621 104.83C179.462 104.998 179.266 105.082 179.033 105.082ZM179.649 106.328V114H178.375V106.328H179.649ZM183.374 107.378V111.9C183.374 112.273 183.454 112.539 183.612 112.698C183.771 112.847 184.046 112.922 184.438 112.922H185.376V114H184.228C183.519 114 182.987 113.837 182.632 113.51C182.278 113.183 182.1 112.647 182.1 111.9V107.378H181.106V106.328H182.1V104.396H183.374V106.328H185.376V107.378H183.374ZM187.326 114.084C187.083 114.084 186.878 114 186.71 113.832C186.542 113.664 186.458 113.459 186.458 113.216C186.458 112.973 186.542 112.768 186.71 112.6C186.878 112.432 187.083 112.348 187.326 112.348C187.559 112.348 187.755 112.432 187.914 112.6C188.082 112.768 188.166 112.973 188.166 113.216C188.166 113.459 188.082 113.664 187.914 113.832C187.755 114 187.559 114.084 187.326 114.084Z" fill="#707070"/>
<path d="M514.707 47.7071C515.098 47.3166 515.098 46.6834 514.707 46.2929L508.343 39.9289C507.953 39.5384 507.319 39.5384 506.929 39.9289C506.538 40.3194 506.538 40.9526 506.929 41.3431L512.586 47L506.929 52.6568C506.538 53.0474 506.538 53.6805 506.929 54.071C507.319 54.4616 507.953 54.4616 508.343 54.071L514.707 47.7071ZM247 48L514 48L514 46L247 46L247 48Z" fill="#35CD8C"/>
</svg>
