<svg width="56" height="56" viewBox="0 0 56 56" fill="none" xmlns="http://www.w3.org/2000/svg">
<circle cx="28" cy="28" r="28" fill="#35CD8C"/>
<path d="M39.6732 27.211L32.5312 20.069C32.0954 19.6332 31.3887 19.6332 30.953 20.069C30.5171 20.5048 30.5171 21.2114 30.953 21.6472L36.1899 26.8842H17.1159C16.4997 26.8842 16 27.3838 16 28.0001C16 28.6163 16.4997 29.116 17.1159 29.116H36.1899L30.9531 34.353C30.5173 34.7889 30.5173 35.4954 30.9531 35.9312C31.171 36.149 31.4566 36.2581 31.7422 36.2581C32.0278 36.2581 32.3134 36.149 32.5313 35.9312L39.6732 28.7892C40.109 28.3534 40.109 27.6468 39.6732 27.211Z" fill="white"/>
</svg>
